<?xml version="1.0" standalone="no"?>
<!DOCTYPE svg PUBLIC "-//W3C//DTD SVG 1.1//EN" "http://www.w3.org/Graphics/SVG/1.1/DTD/svg11.dtd" >
<svg xmlns="http://www.w3.org/2000/svg">
<metadata></metadata>
<defs>
<font id="qanelas_softregular_italic" horiz-adv-x="1064" >
<font-face units-per-em="2048" ascent="1638" descent="-410" />
<missing-glyph horiz-adv-x="512" />
<glyph unicode="&#xfb01;" horiz-adv-x="1046" d="M116 937l9 50q6 37 44 37h137l7 41q67 393 500 393q74 0 151 -16q39 -8 33 -48l-7 -43q-6 -40 -47 -34q-77 10 -154 10q-154 0 -234 -59t-106 -203l-8 -41h479h28q21 0 31.5 -11.5t6.5 -32.5l-166 -943q-6 -37 -45 -37h-52q-21 0 -31 11.5t-6 32.5l149 849h-417 l-151 -856q-6 -37 -45 -37h-52q-21 0 -31 11.5t-6 32.5l150 849h-130q-21 0 -31 11.5t-6 32.5z" />
<glyph unicode="&#xfb02;" horiz-adv-x="1046" d="M116 937l9 50q6 37 44 37h137l7 41q67 393 500 393q109 0 211 -17q20 -3 29 -16t5 -32l-238 -1356q-6 -37 -45 -37h-52q-21 0 -31 11.5t-6 32.5l226 1285q-61 6 -121 6q-152 0 -234 -62.5t-108 -207.5l-8 -41h188q21 0 31 -11.5t6 -32.5l-8 -50q-6 -37 -44 -37h-196 l-151 -856q-6 -37 -45 -37h-52q-21 0 -31 11.5t-6 32.5l150 849h-130q-21 0 -31 11.5t-6 32.5z" />
<glyph horiz-adv-x="0" />
<glyph horiz-adv-x="682" />
<glyph unicode=" "  horiz-adv-x="512" />
<glyph unicode="&#x09;" horiz-adv-x="512" />
<glyph unicode="&#xa0;" horiz-adv-x="512" />
<glyph unicode="!" horiz-adv-x="471" d="M61 44l18 103q6 37 45 37h101q21 0 31 -11.5t6 -32.5l-18 -103q-6 -37 -44 -37h-102q-21 0 -31 11.5t-6 32.5zM169 433l75 591l65 372q6 38 44 38h81q21 0 31.5 -12t6.5 -33l-64 -365l-134 -599q-8 -36 -45 -36h-21q-44 0 -39 44z" />
<glyph unicode="&#x22;" horiz-adv-x="634" d="M218 1067l41 328q5 39 44 39h58q22 0 31.5 -12.5t4.5 -33.5l-74 -328q-7 -36 -44 -36h-22q-44 0 -39 43zM505 1067l41 328q5 39 43 39h59q22 0 31.5 -12.5t4.5 -33.5l-74 -328q-8 -36 -45 -36h-22q-43 0 -38 43z" />
<glyph unicode="#" horiz-adv-x="1226" d="M69 513l17 51q10 30 42 30h215l84 246h-204q-20 0 -28.5 11.5t-1.5 30.5l18 51q11 30 42 30h216l117 338q10 30 42 30h55q20 0 28.5 -11.5t1.5 -30.5l-113 -326h271l116 338q11 30 42 30h55q20 0 28.5 -11.5t1.5 -30.5l-112 -326h198q20 0 28.5 -12t1.5 -31l-17 -51 q-10 -29 -42 -29h-211l-85 -246h201q20 0 28.5 -11.5t1.5 -30.5l-17 -51q-11 -30 -41 -30h-215l-116 -339q-11 -30 -42 -30h-55q-20 0 -28.5 11.5t-1.5 30.5l112 327h-270l-117 -339q-11 -30 -41 -30h-55q-20 0 -28.5 11.5t-1.5 30.5l112 327h-201q-20 0 -29 11.5t-2 30.5z M474 594h270l85 246h-271z" />
<glyph unicode="$" horiz-adv-x="1128" d="M60 378q4 38 44 38h61q41 0 39 -44q-6 -105 55 -169t173 -82l99 558q-33 14 -60 27t-58 30t-54 33.5t-48.5 38.5t-41 44.5t-32 51t-21 58.5t-8 67t6.5 77q29 157 155 247t298 103l28 156q5 26 31 26h65q31 0 26 -31l-27 -153q71 -10 132 -38.5t106 -74t68 -111.5t16 -143 q-3 -38 -43 -38h-62q-41 0 -39 43q3 92 -52.5 149t-150.5 73l-95 -540q68 -29 115 -53t100.5 -63.5t83.5 -81.5t44.5 -103.5t1.5 -132.5q-19 -110 -90.5 -191.5t-172.5 -123.5t-223 -49l-28 -155q-5 -26 -31 -26h-65q-31 0 -26 31l28 155q-107 14 -188.5 63.5t-126 136 t-33.5 197.5zM358 1094q-9 -50 2.5 -91.5t41 -74t66 -57t88.5 -48.5l87 493q-109 -12 -188.5 -69t-96.5 -153zM554 116q124 9 212 71t106 165q9 51 -4 94t-48 77t-76 59t-99 50z" />
<glyph unicode="%" horiz-adv-x="1536" d="M129.5 15q-6.5 15 10.5 35l1190 1361q20 23 50 23h67q27 0 33 -15.5t-11 -35.5l-1191 -1360q-20 -23 -50 -23h-65q-27 0 -33.5 15zM238 1159q23 128 127 213.5t241 85.5q131 0 206 -93.5t52 -221.5q-24 -129 -125.5 -214t-240.5 -85q-131 0 -207 93.5t-53 221.5z M369 1151q-14 -78 27.5 -131t121.5 -53t140.5 53t74.5 131t-27.5 131t-121.5 53t-140.5 -53t-74.5 -131zM745 291q23 128 127.5 213.5t241.5 85.5q131 0 206 -93.5t52 -222.5q-22 -128 -125.5 -213.5t-240.5 -85.5q-131 0 -207 93.5t-54 222.5zM877 283q-12 -79 28.5 -132 t120.5 -53q81 0 142 53.5t73 131.5q14 78 -27.5 131t-121.5 53t-140.5 -53t-74.5 -131z" />
<glyph unicode="&#x26;" horiz-adv-x="1341" d="M84 408q42 238 301 378q-91 135 -63 295q21 118 95.5 205t177 129.5t220.5 42.5q77 0 146 -24t122.5 -68.5t81 -117t18.5 -161.5q-4 -38 -44 -38h-61q-42 0 -39 43q6 112 -62.5 169.5t-185.5 57.5q-122 0 -213.5 -67t-112.5 -183q-22 -134 86 -268l407 -494 q96 121 137 319q8 38 44 38h61q22 0 32 -7.5t8 -21.5q-54 -272 -195 -434l124 -151q17 -20 9.5 -35t-33.5 -15h-84q-30 0 -50 24l-69 83q-180 -132 -444 -132q-99 0 -183 32t-141 88t-81.5 137.5t-8.5 175.5zM227 395q-22 -126 60 -203t235 -77q201 0 335 95l-393 475 q-103 -52 -162.5 -127.5t-74.5 -162.5z" />
<glyph unicode="'" horiz-adv-x="348" d="M218 1067l41 328q5 39 44 39h58q22 0 31.5 -12.5t4.5 -33.5l-74 -328q-7 -36 -44 -36h-22q-44 0 -39 43z" />
<glyph unicode="(" horiz-adv-x="546" d="M162 729q79 447 369 883q16 26 50 26h44q25 0 32.5 -14t-6.5 -35q-276 -424 -354 -872q-79 -452 47 -876q13 -46 -34 -46h-51q-36 0 -46 34q-132 437 -51 900z" />
<glyph unicode=")" horiz-adv-x="544" d="M-39 -190.5q-8 14.5 6 35.5q277 426 355 872q78 449 -48 875q-6 22 3 34t32 12h51q36 0 46 -33q132 -437 51 -900q-78 -445 -370 -883q-17 -27 -49 -27h-44q-25 0 -33 14.5z" />
<glyph unicode="*" horiz-adv-x="804" d="M241 1180l6 32q6 38 45 36l146 -5l-61 118q-18 35 17 55l36 21q18 10 32.5 5t22.5 -25l47 -125l102 135q24 31 57 10l27 -17q38 -24 9 -57l-104 -120l142 5q22 1 32 -11t6 -33l-6 -32q-6 -38 -45 -36l-148 5l61 -118q19 -36 -16 -56l-35 -20q-18 -10 -32.5 -5t-22.5 25 l-49 125l-100 -135q-22 -31 -56 -11l-29 18q-39 24 -9 57l104 120l-141 -5q-22 -1 -32 11t-6 33z" />
<glyph unicode="+" horiz-adv-x="1105" d="M155 696l9 49q6 37 44 37h328l58 328q6 37 44 37h48q21 0 31 -11.5t6 -32.5l-56 -321h318q21 0 31.5 -11.5t6.5 -32.5l-9 -50q-6 -37 -44 -37h-326l-58 -327q-6 -37 -44 -37h-48q-21 0 -31.5 11.5t-6.5 32.5l57 320h-321q-21 0 -31 12t-6 33z" />
<glyph unicode="," horiz-adv-x="471" d="M13 -225l2 8q5 29 36 44q71 35 94 173h-47q-21 0 -31 11.5t-6 32.5l18 103q6 37 45 37h101q21 0 31 -11.5t6 -32.5l-24 -140q-35 -201 -181 -253q-22 -8 -34.5 0.5t-9.5 27.5z" />
<glyph unicode="-" d="M182 612l8 49q6 37 44 37h655q21 0 31 -11.5t6 -32.5l-8 -50q-6 -37 -44 -37h-655q-21 0 -31 12t-6 33z" />
<glyph unicode="." horiz-adv-x="471" d="M61 44l18 103q6 37 45 37h101q21 0 31 -11.5t6 -32.5l-18 -103q-6 -37 -44 -37h-102q-21 0 -31 11.5t-6 32.5z" />
<glyph unicode="/" horiz-adv-x="1085" d="M-27 -195q-6 10 3 25l1106 1789q12 19 34 19h46q17 0 22.5 -9.5t-3.5 -24.5l-1106 -1790q-12 -19 -34 -19h-45q-17 0 -23 10z" />
<glyph unicode="0" horiz-adv-x="1296" d="M125.5 428q-15.5 139 15.5 305q60 340 232.5 532.5t441.5 192.5q123 0 216 -56.5t144.5 -157t67 -239.5t-15.5 -305q-60 -340 -232.5 -532.5t-441.5 -192.5q-123 0 -216 56.5t-144.5 157t-67 239.5zM285 717q-51 -287 26.5 -444.5t266.5 -157.5t321.5 157.5t183.5 444.5 t-26 444.5t-266 157.5t-322 -157.5t-184 -444.5z" />
<glyph unicode="1" horiz-adv-x="696" d="M142 1136l12 74q6 31 34 45l339 167q23 12 51 12h71q21 0 31.5 -12t6.5 -33l-238 -1352q-6 -37 -44 -37h-61q-21 0 -31 11.5t-6 32.5l215 1226l-335 -167q-23 -11 -36 -1.5t-9 34.5z" />
<glyph unicode="2" horiz-adv-x="1075" d="M0 44l9 57q6 30 27 47l587 501q123 105 197 196t91 183q23 139 -47.5 215t-189.5 76q-125 0 -220.5 -63t-128.5 -191q-9 -37 -45 -37h-60q-22 0 -31.5 12.5t-4.5 33.5q32 126 112.5 215t181 129t212.5 40q81 0 154 -31t127 -86t78 -140t6 -185q-16 -87 -68 -172 t-115.5 -150t-160.5 -147l-484 -408h656q21 0 31 -11.5t6 -32.5l-10 -58q-6 -37 -44 -37h-829q-21 0 -31 11.5t-6 32.5z" />
<glyph unicode="3" horiz-adv-x="1087" d="M19 377q5 39 44 39h62q41 0 38 -44q-7 -123 74.5 -190t215.5 -67q147 0 256.5 79t134.5 222q25 144 -57 222.5t-228 78.5h-57q-21 0 -31.5 11.5t-6.5 32.5l4 23q4 26 23 48l416 466h-621q-21 0 -31 12t-6 33l9 53q6 38 44 38h757q21 0 31.5 -12t6.5 -33l-11 -63 q-4 -26 -23 -48l-392 -442q77 -13 141 -47.5t109 -88t63.5 -130t2.5 -167.5q-19 -104 -72 -187t-128.5 -134.5t-165 -79t-185.5 -27.5q-91 0 -170 26.5t-138 76.5t-88.5 127t-20.5 172z" />
<glyph unicode="4" horiz-adv-x="1167" d="M20 331l10 65q4 25 20 48l677 964q19 26 50 26h72q25 0 32.5 -14.5t-7.5 -35.5l-675 -962h594l71 401q6 37 44 37h61q21 0 31 -11.5t6 -32.5l-69 -394h138q21 0 31.5 -11.5t6.5 -32.5l-9 -54q-6 -37 -44 -37h-147l-44 -250q-6 -37 -44 -37h-61q-21 0 -31 11.5t-6 32.5 l42 243h-712q-21 0 -31 11.5t-6 32.5z" />
<glyph unicode="5" horiz-adv-x="1128" d="M60 377q4 39 44 39h62q41 0 38 -44q-7 -123 74.5 -190t215.5 -67q147 0 256.5 79t134.5 222q25 144 -57 222.5t-228 78.5h-363q-22 0 -31 12t-4 33l156 636q9 36 45 36h707q21 0 31.5 -12t6.5 -33l-9 -53q-6 -38 -44 -38h-620l-110 -442h260q86 0 165.5 -31.5 t139.5 -87.5t88 -143.5t10 -190.5q-37 -205 -191.5 -316.5t-359.5 -111.5q-90 0 -168.5 27t-138 76t-89.5 127t-21 172z" />
<glyph unicode="6" horiz-adv-x="1087" d="M53 461q31 174 149 295l552 654q21 24 51 24h78q26 0 33 -15.5t-10 -35.5l-397 -470q51 9 105 9q135 0 235 -62.5t143.5 -174t19.5 -249.5q-38 -210 -191.5 -335.5t-372.5 -125.5q-206 0 -319.5 138t-75.5 348zM197 448q-28 -151 46.5 -242t229.5 -91q154 0 260.5 90.5 t134.5 242.5q26 152 -49 243t-229 91t-260.5 -91t-132.5 -243z" />
<glyph unicode="7" horiz-adv-x="1003" d="M165 14q-8 14 5 35l733 1249h-678q-21 0 -31 12t-6 33l9 53q6 38 44 38h798q21 0 31 -12t6 -33l-11 -65q-4 -28 -17 -48l-733 -1248q-16 -28 -48 -28h-69q-25 0 -33 14z" />
<glyph unicode="8" horiz-adv-x="1126" d="M61 401q20 118 100.5 207.5t200.5 136.5q-79 54 -117.5 138.5t-19.5 189.5q18 98 68.5 174t121 121t150.5 67.5t164 22.5q77 0 148 -26.5t126 -75.5t80 -129t7 -178q-19 -107 -85 -187.5t-162 -127.5q99 -54 148 -147.5t29 -209.5q-24 -131 -105.5 -223.5t-196 -135.5 t-251.5 -43q-92 0 -173 29t-139.5 82t-85 135t-8.5 180zM205 389q-24 -132 58 -203t229 -71q152 0 256.5 70t128.5 204q22 132 -62.5 203.5t-226.5 71.5q-147 0 -254 -71.5t-129 -203.5zM369 1061q-11 -63 5.5 -113.5t52.5 -81t83.5 -47t101.5 -16.5q124 0 218 66.5 t116 191.5q12 67 -3.5 118.5t-52 81t-83.5 44t-103 14.5q-76 0 -143.5 -24.5t-121.5 -85t-70 -148.5z" />
<glyph unicode="9" horiz-adv-x="1091" d="M147 1001q37 209 191.5 333t374.5 124q135 0 234.5 -63t143 -175.5t19.5 -250.5q-29 -171 -147 -290l-552 -656q-20 -23 -50 -23h-78q-26 0 -33.5 15t9.5 35l395 471q-53 -9 -109 -9q-135 0 -235 63t-143.5 175.5t-19.5 250.5zM291 985q-26 -152 49 -243t229 -91 q155 0 263.5 91.5t134.5 242.5t-49 242.5t-230 91.5t-263 -91.5t-134 -242.5z" />
<glyph unicode=":" horiz-adv-x="471" d="M61 44l18 103q6 37 45 37h101q21 0 31 -11.5t6 -32.5l-18 -103q-6 -37 -44 -37h-102q-21 0 -31 11.5t-6 32.5zM209 884l18 103q6 37 44 37h102q21 0 31 -11.5t6 -32.5l-18 -103q-6 -37 -45 -37h-101q-21 0 -31 11.5t-6 32.5z" />
<glyph unicode=";" horiz-adv-x="471" d="M13 -225l2 8q5 29 36 44q71 35 94 173h-47q-21 0 -31 11.5t-6 32.5l18 103q6 37 45 37h101q21 0 31 -11.5t6 -32.5l-24 -140q-35 -201 -181 -253q-22 -8 -34.5 0.5t-9.5 27.5zM209 884l18 103q6 37 44 37h102q21 0 31 -11.5t6 -32.5l-18 -103q-6 -37 -45 -37h-101 q-21 0 -31 11.5t-6 32.5z" />
<glyph unicode="&#x3c;" d="M154 681l13 76q6 33 35 44l799 324q23 9 35 -1t8 -35l-12 -70q-6 -33 -36 -44l-683 -266l582 -264q33 -15 27 -51l-11 -60q-4 -22 -17.5 -29.5t-33.5 2.5l-680 323q-32 15 -26 51z" />
<glyph unicode="=" horiz-adv-x="1105" d="M119 491l9 50q7 37 45 37h777q21 0 31 -12t6 -33l-9 -50q-7 -37 -45 -37h-777q-21 0 -31 12t-6 33zM192 900l8 50q6 37 45 37h777q21 0 31 -11.5t6 -32.5l-8 -50q-6 -37 -44 -37h-778q-21 0 -31 11.5t-6 32.5z" />
<glyph unicode="&#x3e;" d="M94 344l13 71q6 31 36 43l680 267l-579 264q-33 15 -27 50l10 61q4 22 18 29t34 -3l678 -322q32 -15 26 -51l-13 -76q-6 -33 -35 -44l-797 -324q-23 -10 -35.5 0t-8.5 35z" />
<glyph unicode="?" horiz-adv-x="1095" d="M186 1094q48 175 192.5 269.5t330.5 94.5q64 0 123.5 -16.5t109 -48.5t83 -79.5t46.5 -109t0 -137.5q-12 -71 -50.5 -134.5t-87 -107.5t-106 -92t-108 -89.5t-92.5 -99t-60 -119.5q-11 -36 -45 -36h-60q-22 0 -32 12.5t-4 33.5q18 65 53 123t77.5 101t90 83.5t93 77.5 t84.5 75t67 85t37 99q21 119 -48.5 179.5t-195.5 60.5q-129 0 -226 -59t-130 -175q-10 -36 -45 -36h-61q-22 0 -32 12t-4 33zM334 44l18 103q6 37 44 37h102q21 0 31 -11.5t6 -32.5l-18 -103q-6 -37 -45 -37h-101q-21 0 -31 11.5t-6 32.5z" />
<glyph unicode="@" horiz-adv-x="1628" d="M86 532q35 202 162 367.5t315 259.5t398 94q91 0 173 -21.5t145 -60.5t115.5 -92t85.5 -116t55 -133t23.5 -143t-8.5 -146q-20 -113 -59.5 -197.5t-90.5 -132t-105.5 -70t-112.5 -22.5q-80 0 -135 43t-63 129q-105 -107 -247 -107q-137 0 -218 99t-56 237 q25 139 133 229.5t256 90.5q129 0 199 -106l9 54q6 37 45 37h44q21 0 31 -11.5t6 -32.5l-70 -398q-32 -197 98 -197q91 0 166.5 89.5t108.5 277.5q23 135 -6.5 254.5t-101 205t-183.5 134.5t-248 49q-190 0 -361 -86t-289.5 -241.5t-152.5 -348.5q-35 -195 30.5 -353.5 t214.5 -248.5t353 -90q193 0 341 50q11 4 17 -1t4 -17l-2 -18q-3 -15 -15 -20q-159 -51 -355 -51q-218 0 -380 100t-234 274.5t-35 386.5zM590 512q-17 -91 35 -148t141 -57q87 0 158 57t88 148t-34 148t-138 57q-89 0 -161 -57t-89 -148z" />
<glyph unicode="A" horiz-adv-x="1290" d="M-46 14q-3 6 -3 12q0 10 7 23l759 1356q16 29 49 29h78q36 0 44 -37l282 -1352q2 -7 2 -13q0 -12 -6 -20q-10 -12 -32 -12h-65q-36 0 -44 37l-62 315h-681l-180 -323q-16 -29 -49 -29h-67q-24 0 -32 14zM357 487h579l-152 768z" />
<glyph unicode="B" horiz-adv-x="1402" d="M82 44l237 1353q6 37 44 37h106h387q96 0 171 -30.5t117 -80.5q43 -51 59 -113q9 -34 9 -69q0 -29 -6 -58q-22 -108 -98 -192q122 -60 180 -177q40 -81 41 -176q0 -42 -8 -87q-16 -91 -59.5 -171.5t-109.5 -143t-160.5 -99.5t-203.5 -37h-653h-16q-21 0 -31 12 q-7 8 -7 21q0 5 1 11zM241 135h552q147 0 255.5 97t133.5 239q6 36 6 69q0 98 -55 170q-74 96 -222 97h-552zM383 942h491q54 0 103 -9q71 62 88 154q4 21 4 41q0 64 -39 110q-51 60 -156 60h-429z" />
<glyph unicode="C" horiz-adv-x="1564" d="M121 737q36 203 157 367.5t305.5 259t395.5 94.5q218 0 385.5 -120.5t210.5 -310.5q1 -6 1 -11q0 -14 -7 -22q-10 -12 -31 -11h-70q-35 0 -45 35q-41 137 -160 219t-292 82q-180 0 -334 -81t-251 -217.5t-126 -303.5q-10 -60 -10 -116q0 -100 32 -187q52 -137 177.5 -218 t302.5 -81q167 0 319 84.5t240 223.5q18 28 49 28h68q24 0 33 -13.5t-2 -32.5q-110 -195 -306.5 -312.5t-429.5 -117.5q-158 0 -287 61.5t-208.5 165.5t-111.5 244q-17 76 -17 154q0 67 12 137z" />
<glyph unicode="D" horiz-adv-x="1519" d="M82 44l237 1353q6 37 44 37h106h451q188 0 327.5 -102t198.5 -271q37 -106 37 -223q0 -69 -13 -142q-26 -147 -98 -275t-176.5 -221t-241.5 -146.5t-286 -53.5h-533h-16q-21 0 -31 12q-7 8 -7 21q0 5 1 11zM241 135h451q156 0 293 78.5t227.5 211t118.5 292.5 q10 62 10 120q0 92 -26 173q-43 132 -152.5 210t-265.5 78h-452z" />
<glyph unicode="E" d="M82 45l237 1352q6 37 43 37h107h621q20 0 30 -12q7 -9 7 -23q0 -5 -1 -10l-8 -54q-5 -37 -45 -37h-628l-89 -507h570q38 0 38 -35q0 -5 -1 -11l-11 -53q-6 -37 -43 -37h-577l-91 -520h631q38 0 38 -35q0 -5 -1 -10l-10 -53q-6 -37 -43 -37h-721h-16q-20 0 -30 12 q-8 10 -8 24q0 4 1 9z" />
<glyph unicode="F" horiz-adv-x="1013" d="M82 44l237 1353q6 37 44 37h106h621q21 0 31 -12q7 -9 7 -22q0 -5 -1 -11l-9 -53q-6 -38 -44 -38h-629l-100 -569h591q21 0 31 -11.5t6 -32.5l-10 -54q-6 -37 -44 -37h-598l-97 -557q-6 -37 -45 -37h-60q-21 0 -31 12q-7 8 -7 21q0 5 1 11z" />
<glyph unicode="G" horiz-adv-x="1619" d="M116 510q-5 44 -5 90q0 72 12 148q36 203 158.5 365t307 253.5t396.5 91.5q225 0 381.5 -119t192.5 -313q1 -4 1 -8q0 -15 -8 -24q-11 -11 -32 -11h-66q-34 0 -43 37q-31 134 -152 216.5t-290 82.5q-130 0 -250 -46t-212.5 -124.5t-156 -188t-84.5 -233.5 q-11 -61 -11 -118q0 -99 33 -187q50 -140 173 -223.5t295 -83.5q108 0 206 26t180.5 78t140.5 137t78 195l6 37h-445q-20 0 -30 12.5t-7 32.5l8 53q5 37 45 37h535h16q20 0 30 -12.5t7 -32.5l-113 -641q-6 -37 -43 -37h-61q-20 0 -30 12.5t-7 32.5l29 169 q-98 -121 -245.5 -180t-324.5 -59q-127 0 -237 41t-186 113t-128 170t-64 211z" />
<glyph unicode="H" horiz-adv-x="1290" d="M82 44l237 1352q6 38 44 38h61q21 0 31 -12t6 -33l-102 -584h675l104 592q6 37 44 37h61q21 0 31 -12q7 -9 7 -22q0 -5 -1 -11l-237 -1352q-6 -37 -44 -37h-61q-21 0 -31 11.5t-6 32.5l110 626h-676l-111 -633q-6 -37 -45 -37h-60q-21 0 -31 12q-7 8 -7 21q0 5 1 11z" />
<glyph unicode="I" horiz-adv-x="471" d="M82 44l237 1353q6 37 44 37h61q21 0 31 -12q7 -9 7 -22q0 -5 -1 -11l-237 -1352q-6 -37 -45 -37h-60q-21 0 -31 12q-7 8 -7 21q0 5 1 11z" />
<glyph unicode="J" horiz-adv-x="1087" d="M21 387q5 39 44 39h61q39 0 39 -35q0 -4 -1 -9q-2 -20 -2 -38q0 -102 56 -160q67 -69 204 -69q64 0 121 16.5t106 50.5t83.5 91t47.5 132l174 991q6 38 44 38h61q21 0 31 -12q7 -9 7 -22q0 -5 -1 -11l-172 -988q-16 -91 -53.5 -164t-87.5 -121.5t-114.5 -80.5t-131.5 -46 t-140 -14q-78 0 -148.5 25t-126.5 73.5t-84 130.5q-20 58 -20 127q0 27 3 56z" />
<glyph unicode="K" horiz-adv-x="1183" d="M82 44l237 1352q6 38 44 38h61q21 0 31 -12t6 -33l-108 -614l745 640q23 19 51 19h87q29 0 35 -16q1 -3 1 -7q0 -13 -17 -28l-756 -656l535 -677q16 -20 8.5 -35t-33.5 -15h-75q-32 0 -50 24l-542 685l-118 -672q-6 -37 -45 -37h-60q-21 0 -31 12q-7 8 -7 21q0 5 1 11z " />
<glyph unicode="L" horiz-adv-x="1003" d="M82 44l237 1352q6 38 44 38h61q21 0 31 -12t6 -33l-220 -1254h611q21 1 31 -11q7 -8 7 -22q0 -5 -1 -11l-10 -54q-6 -37 -44 -37h-700h-16q-21 0 -31 12q-7 8 -7 21q0 5 1 11z" />
<glyph unicode="M" horiz-adv-x="1638" d="M82 44l237 1353q6 37 44 37h61h34q35 0 46 -35l284 -989l639 997q17 27 49 27h71h44q21 0 31 -12q7 -9 7 -22q0 -5 -1 -11l-237 -1352q-6 -37 -44 -37h-61q-21 0 -31 11.5t-6 32.5l202 1148l-590 -917q-17 -27 -49 -27h-76q-36 0 -46 34l-264 910l-202 -1155 q-6 -37 -45 -37h-60q-21 0 -31 12q-7 8 -7 21q0 5 1 11z" />
<glyph unicode="N" horiz-adv-x="1290" d="M82 44l237 1353q6 37 44 37h39q35 0 48 -31l494 -1120l194 1113q6 38 45 38h60q21 0 31 -12q7 -9 7 -22q0 -5 -1 -11l-237 -1352q-6 -37 -44 -37h-39q-35 0 -48 31l-492 1120l-196 -1114q-6 -37 -45 -37h-60q-21 0 -31 12q-7 8 -7 21q0 5 1 11z" />
<glyph unicode="O" horiz-adv-x="1654" d="M121 737q36 203 158.5 367.5t308 259t395.5 94.5q153 0 282.5 -63.5t212 -168.5t118.5 -247q20 -81 19 -164q0 -64 -11 -129q-37 -203 -160 -365t-308.5 -254t-398.5 -92q-152 0 -280.5 62t-210.5 165q-84 104 -118 244q-19 79 -19 160q0 65 12 131zM264 717 q-10 -56 -10 -110q0 -65 14 -125q26 -111 92 -191.5t170.5 -128t231.5 -47.5q130 0 249.5 45.5t210.5 125t153.5 188.5t84.5 233q9 55 9 107q-1 66 -15 130q-26 112 -91.5 194.5t-171 131.5t-233.5 49q-129 0 -248 -47.5t-209.5 -128.5t-153 -191.5t-83.5 -234.5z" />
<glyph unicode="P" horiz-adv-x="1187" d="M82 44l237 1353q6 37 44 37h106h367q111 0 201 -62.5t132 -167.5q28 -70 28 -145q0 -37 -7 -76q-31 -177 -175.5 -293.5t-330.5 -116.5h-366l-94 -536q-6 -37 -45 -37h-60q-21 0 -31 12q-7 8 -7 21q0 5 1 11zM342 709h367q121 0 220.5 86.5t121.5 208.5q6 30 6 58 q0 85 -54 150q-71 86 -190 86h-368z" />
<glyph unicode="Q" horiz-adv-x="1665" d="M121 737q36 203 158.5 367.5t308 259t395.5 94.5q153 0 282.5 -63.5t212 -168.5t118.5 -247q20 -81 20 -164q0 -64 -12 -129q-27 -152 -105.5 -283t-196.5 -228l116 -166q9 -14 9 -26q0 -17 -19 -31l-43 -31q-14 -9 -26 -9q-17 0 -31 19l-117 166q-208 -122 -454 -122 q-152 0 -280.5 62t-211 165t-117.5 244q-19 78 -19 160q0 65 12 131zM264 717q-10 -56 -10 -110q0 -64 14 -125q27 -111 92.5 -191.5t170 -128t231.5 -47.5q189 0 351 93l-145 207q-9 14 -9 26q0 17 19 31l43 31q14 9 26 9q17 0 31 -19l145 -206q191 166 237 420q9 55 9 107 q0 67 -15 130q-26 112 -91.5 194.5t-171 131.5t-233.5 49q-129 0 -248 -47.5t-209.5 -128.5t-153 -191.5t-83.5 -234.5z" />
<glyph unicode="R" horiz-adv-x="1290" d="M82 44l237 1352q6 38 44 38h106h369q111 0 201 -62.5t132 -167.5q28 -70 28 -145q0 -37 -7 -76q-25 -146 -132 -254t-255 -142l380 -537q10 -14 10 -26q0 -6 -2 -10q-7 -14 -33 -14h-80q-31 0 -50 26l-385 547h-327l-94 -536q-6 -37 -45 -37h-60q-21 0 -31 12q-7 8 -7 21 q0 5 1 11zM342 709h369q121 0 220.5 86.5t121.5 208.5q6 30 6 58q0 85 -54 150q-71 86 -190 86h-370z" />
<glyph unicode="S" horiz-adv-x="1130" d="M60 377q3 39 44 39h62q38 0 38 -40l-1 -22q0 -110 79 -172q85 -67 232 -67q136 0 238 67t122 180q3 19 3 37q0 25 -6 47q-11 39 -33 66t-63.5 54t-78 44t-92.5 39q-81 33 -125 53t-108.5 61.5t-95 84t-48.5 109.5q-10 38 -10 79q0 33 6 68q31 170 170.5 262t325.5 92 q60 0 118 -15.5t108.5 -47t88.5 -75.5q37 -44 56 -104q14 -46 15 -96q0 -16 -2 -33q-3 -38 -44 -38h-61q-39 0 -39 39v15q1 101 -67 157q-72 60 -194 59q-124 0 -217.5 -63t-113.5 -173q-4 -24 -4 -46q1 -32 9 -58q14 -45 58.5 -80t85.5 -56.5t115 -51.5q79 -33 125 -54.5 t110.5 -63.5t96.5 -84q33 -43 51 -107q11 -37 10 -77q0 -31 -6 -63q-15 -87 -64.5 -158t-121.5 -116t-160 -69t-183 -24q-90 0 -171 27t-142 76.5t-93 127.5q-25 60 -25 131q0 19 2 40z" />
<glyph unicode="T" horiz-adv-x="1024" d="M188 1343l9 53q6 38 44 38h504h355q21 0 31 -12q7 -9 7 -22q0 -5 -1 -11l-9 -53q-6 -38 -44 -38h-362l-222 -1261q-6 -37 -44 -37h-61q-21 0 -31 11.5t-6 32.5l220 1254h-353q-21 0 -31 12q-7 9 -7 22q0 5 1 11z" />
<glyph unicode="U" horiz-adv-x="1269" d="M128 270q-7 34 -7 72q0 40 8 84l170 970q6 38 44 38h61q21 0 31 -12t6 -33l-169 -963q-7 -41 -8 -76q0 -100 60 -158q80 -78 241 -77q160 0 268.5 80t135.5 231l169 970q6 38 44 38h61q21 0 31 -12q7 -9 7 -22q0 -5 -1 -11l-168 -963q-41 -231 -193.5 -341t-377.5 -110 q-76 0 -144.5 19.5t-124 57.5t-93 93t-51.5 125z" />
<glyph unicode="V" horiz-adv-x="1245" d="M191 1389q-1 7 -1 13q0 32 38 32h60q37 0 44 -37l223 -1219l656 1227q16 29 49 29h71q24 0 32 -14q3 -6 3 -13q0 -10 -6 -22l-738 -1356q-16 -29 -49 -29h-77q-37 0 -44 37z" />
<glyph unicode="W" horiz-adv-x="1761" d="M188 1390q-1 5 -1 10q0 34 39 34h51q39 0 44 -38l171 -1251l394 811l-59 434q-1 5 -1 10q0 34 39 34h51q39 0 44 -38l170 -1251l613 1259q14 30 48 30h58q25 0 33 -14q4 -6 3 -14q0 -10 -6 -21l-660 -1355q-14 -30 -48 -30h-117q-38 0 -43 38l-93 685l-338 -693 q-14 -30 -48 -30h-117q-38 0 -43 38z" />
<glyph unicode="X" horiz-adv-x="1167" d="M-18 15q-2 5 -3 10q0 11 12 25l556 699l-291 637q-10 22 -1.5 35t31.5 13h59q33 0 48 -31l246 -538l433 544q19 25 50 25h71q25 0 33 -15q2 -5 3 -10q0 -11 -11 -25l-518 -651l314 -685q10 -22 1 -35t-32 -13h-58q-33 0 -48 31l-269 586l-472 -593q-18 -24 -50 -24h-71 q-25 0 -33 15z" />
<glyph unicode="Y" horiz-adv-x="1177" d="M204 1420q8 14 32 14h60q33 0 48 -31l286 -601l501 608q20 24 51 24h72q26 0 33 -16q2 -4 2 -9q0 -12 -12 -26l-590 -715l-111 -631q-6 -37 -44 -37h-61q-21 0 -31 11.5t-6 32.5l110 626l-339 715q-5 12 -5 21q0 8 4 14z" />
<glyph unicode="Z" d="M0 44l12 65q6 28 21 47l925 1142h-672q-21 0 -31 12t-6 33l9 53q6 38 44 38h798q22 0 32 -12q8 -9 7 -22q0 -5 -1 -11l-11 -64q-4 -26 -22 -48l-926 -1142h714q21 0 31 -11.5t6 -32.5l-10 -54q-6 -37 -44 -37h-839q-21 0 -31 12q-7 8 -7 21q0 5 1 11z" />
<glyph unicode="[" horiz-adv-x="532" d="M4 -160l311 1762q6 36 44 36h98h229q21 0 31.5 -11.5t6.5 -32.5l-9 -50q-6 -37 -44 -37h-237l-280 -1581h231q21 0 31 -11.5t6 -32.5l-10 -50q-7 -37 -44 -37h-290h-37q-21 0 -31 12t-6 33z" />
<glyph unicode="\" horiz-adv-x="1085" d="M289 1606q-8 32 25 32h44q26 0 32 -24l478 -1787q8 -32 -25 -32h-44q-25 0 -31 25z" />
<glyph unicode="]" horiz-adv-x="532" d="M-119 -160l10 49q7 37 44 37h236l279 1581h-229q-21 0 -31 12t-6 33l8 49q6 37 44 37h290h37q21 0 31 -11.5t6 -32.5l-311 -1762q-6 -37 -44 -37h-98h-229q-21 0 -31 12t-6 33z" />
<glyph unicode="^" horiz-adv-x="1024" d="M164.5 833.5q-7.5 14.5 8.5 35.5l410 540q19 25 50 25h74q34 0 47 -32l222 -535q9 -22 0 -35t-32 -13h-62q-34 0 -47 32l-178 433l-335 -440q-19 -25 -50 -25h-74q-26 0 -33.5 14.5z" />
<glyph unicode="_" d="M-52 -245l9 50q6 37 44 37h818q21 0 31.5 -11.5t6.5 -32.5l-9 -50q-6 -37 -44 -37h-818q-21 0 -31.5 11.5t-6.5 32.5z" />
<glyph unicode="`" horiz-adv-x="411" d="M226.5 1420q-7.5 -14 4.5 -35l107 -189q16 -29 49 -29h46q23 0 32 13t-1 35l-84 188q-13 31 -47 31h-74q-25 0 -32.5 -14z" />
<glyph unicode="a" horiz-adv-x="1021" d="M47 319q14 80 56.5 142t102.5 99t128 56t139 19q94 0 172.5 -38t118.5 -107l31 176q6 33 6 62q-1 30 -7 56q-12 50 -44.5 78.5t-74 41.5t-93.5 13q-97 0 -173.5 -42.5t-104.5 -126.5q-12 -35 -46 -35h-52q-22 0 -31.5 12t-3.5 33q40 131 157 211t276 80q168 1 262 -107 q72 -82 71 -199q0 -37 -7 -77l-110 -629q-6 -37 -45 -37h-52q-21 0 -31 11.5t-6 32.5l11 62q-119 -131 -326 -131q-70 0 -134 23t-112 65.5t-70 108.5q-13 41 -13 87q0 29 5 60zM182 309q-3 -18 -3 -35q1 -68 49 -114q60 -58 184 -58q123 0 213.5 57.5t105.5 145.5 q3 17 3 33q0 69 -60 114q-74 56 -191 56q-130 0 -207.5 -54t-93.5 -145z" />
<glyph unicode="b" horiz-adv-x="1302" d="M61 44l238 1353q6 37 44 37h52q21 0 31.5 -12t6.5 -33l-98 -552q82 100 198 156t253 56q103 0 192.5 -42.5t149.5 -114t86 -172.5q15 -58 15 -120q0 -45 -8 -92q-40 -230 -214 -381.5t-409 -151.5q-127 0 -225 64.5t-147 174.5l-31 -177q-6 -37 -44 -37h-53q-21 0 -31 12 q-7 8 -7 21q0 5 1 11zM279 512q-7 -40 -7 -77q0 -121 73 -211q95 -118 265 -118q175 0 310 121t165 295q8 42 8 80q-1 118 -73 203q-96 113 -266 113t-307 -117.5t-168 -288.5z" />
<glyph unicode="c" horiz-adv-x="1175" d="M86 535q40 226 215.5 370t405.5 144q164 0 281 -85t148 -224q1 -6 1 -11q1 -13 -7 -21q-10 -12 -32 -12h-58q-35 0 -47 35q-31 87 -108.5 136.5t-190.5 49.5q-173 0 -307.5 -113t-165.5 -284q-7 -42 -7 -81q0 -121 70 -213q93 -120 267 -120q114 0 212 52.5t158 141.5 q19 28 49 28h57q24 0 33 -14t-2 -35q-77 -142 -218.5 -223t-311.5 -81q-147 0 -258 77q-110 76 -160 205q-32 85 -33 178q0 49 9 100z" />
<glyph unicode="d" horiz-adv-x="1304" d="M86 532q22 125 81.5 226t140.5 163t174.5 95t189.5 33q133 0 242.5 -62t163.5 -177l103 587q6 37 45 37h52q21 0 31 -12q7 -9 7 -22q0 -5 -1 -11l-237 -1352q-6 -37 -45 -37h-52q-21 0 -31 11.5t-6 32.5l22 128q-80 -94 -193.5 -145.5t-248.5 -51.5q-140 0 -250 75 q-110 76 -162 205q-34 86 -35 180q0 47 9 97zM221 522q-7 -38 -7 -75q0 -71 24 -133q36 -96 121 -152t198 -56q158 0 286.5 95.5t171.5 246.5l18 104q1 16 1 32q0 69 -22 126q-26 71 -76 115.5t-115.5 68.5t-138.5 24q-75 0 -148.5 -25.5t-137.5 -73t-111 -124.5t-64 -173z " />
<glyph unicode="e" horiz-adv-x="1169" d="M86 532q40 228 206 372.5t398 144.5q144 0 250 -77q104 -76 148 -200q28 -80 28 -166q0 -48 -8 -98q-5 -22 -7 -29q-8 -31 -40 -34v-1h-105h-743q0 -8 -1 -16q0 -143 85 -230q89 -92 244 -92q102 0 185 40.5t133 107.5q19 27 49 27h66q25 0 34.5 -12t-1.5 -30 q-74 -121 -202 -192.5t-289 -71.5q-144 0 -252 74q-109 75 -157 203q-31 82 -31 174q0 51 10 106zM233 575h746q1 17 1 33q0 139 -77 220q-86 90 -225 90q-167 0 -284.5 -93.5t-160.5 -249.5z" />
<glyph unicode="f" horiz-adv-x="645" d="M116 937l9 50q6 37 44 37h137l7 41q34 195 151 296q115 99 297 99h7q21 0 31 -12q7 -9 7 -22q0 -5 -1 -11l-9 -50q-7 -36 -44 -36h-9q-248 0 -294 -264l-8 -41h249q21 0 31.5 -11.5t6.5 -32.5l-9 -50q-6 -37 -44 -37h-257l-151 -856q-6 -37 -45 -37h-52q-21 0 -31 11.5 t-6 32.5l150 849h-130q-21 0 -31 11q-7 9 -7 22q0 5 1 11z" />
<glyph unicode="g" horiz-adv-x="1308" d="M60 -89q0 17 10 27q12 11 32 11h54q35 0 40 -40q10 -85 92 -148.5t218 -63.5q183 0 297.5 92t142.5 252l24 135q-80 -96 -194.5 -148.5t-251.5 -52.5q-140 0 -250.5 75.5t-161.5 204.5q-35 86 -35 180q0 47 9 97q22 125 81.5 226t140.5 163t174.5 95t189.5 33 q134 0 244.5 -63t163.5 -180l32 181q6 37 44 37h52q21 0 32 -12q7 -8 7 -21q0 -5 -1 -11l-165 -939q-21 -122 -77.5 -215t-138 -149t-177.5 -83.5t-205 -27.5q-167 0 -292 96q-131 102 -131 249zM221 522q-7 -38 -7 -75q0 -70 24 -133q37 -95 121.5 -151.5t197.5 -56.5 q171 0 305.5 111.5t163.5 280.5q8 45 8 87q0 49 -12 93q-21 82 -72 133t-120 78.5t-148 27.5q-102 0 -196.5 -42.5t-168.5 -134.5t-96 -218z" />
<glyph unicode="h" horiz-adv-x="1060" d="M61 44l238 1352q6 38 44 38h52q21 0 31.5 -12t6.5 -33l-87 -492q133 152 338 152q141 1 228 -107q66 -81 66 -195q0 -37 -7 -77l-112 -633q-6 -37 -45 -37h-52q-21 0 -31 11.5t-6 32.5l111 626q6 33 6 61q0 75 -40 121q-55 64 -161 65q-117 0 -216 -79t-132 -241 l-98 -560q-6 -37 -44 -37h-53q-21 0 -31 12q-7 8 -7 21q0 5 1 11z" />
<glyph unicode="i" horiz-adv-x="421" d="M61 44l166 943q6 37 44 37h53q21 0 31 -11.5t6 -32.5l-166 -943q-6 -37 -44 -37h-53q-21 0 -31 12q-7 8 -7 21q0 5 1 11zM278 1273l21 123q6 38 44 38h52q21 0 31 -12q8 -9 8 -22q0 -5 -1 -11l-21 -123q-6 -37 -44 -37h-53q-21 -1 -31 11q-7 8 -7 22q0 5 1 11z" />
<glyph unicode="j" horiz-adv-x="471" d="M-199 -391l8 50q6 38 41 36h11q93 0 148 50q58 53 79 173l188 1069q6 37 44 37h53q21 0 31 -11.5t6 -32.5l-187 -1062q-34 -192 -129 -276q-92 -79 -242 -79h-15q-37 2 -37 33q0 6 1 13zM327 1273l21 123q6 38 44 38h53q21 0 31 -12q7 -9 7 -22q0 -5 -1 -11l-21 -123 q-6 -37 -44 -37h-53q-21 0 -31 11q-7 9 -7 22q0 5 1 11z" />
<glyph unicode="k" horiz-adv-x="1011" d="M61 44l238 1353q6 37 44 37h52q21 0 31.5 -12t6.5 -33l-143 -812l540 429q22 18 50 18h80q28 0 34 -16l2 -6q0 -13 -19 -28l-555 -442l415 -482q17 -20 10.5 -35t-33.5 -15h-67q-30 0 -50 23l-419 486l-83 -472q-6 -37 -44 -37h-53q-21 0 -31 12q-7 8 -7 21q0 5 1 11z " />
<glyph unicode="l" horiz-adv-x="421" d="M61 44l101 568l145 825q6 38 44 38h53q21 0 31 -12q7 -9 7 -22q0 -5 -1 -11l-144 -818l-102 -575q-6 -37 -44 -37h-53q-21 0 -31 12q-7 8 -7 21q0 5 1 11z" />
<glyph unicode="m" horiz-adv-x="1572" d="M61 44l166 943q6 37 44 37h53q21 0 31 -11.5t6 -32.5l-11 -63q124 132 297 132q76 0 142 -44t96 -124q134 168 340 168q58 0 110.5 -23.5t92.5 -67t56 -113.5q8 -36 8 -76q0 -38 -7 -79l-115 -653q-6 -37 -44 -37h-52q-21 0 -31 11.5t-6 32.5l113 646q6 36 6 65 q0 67 -32 107q-47 56 -136 56q-32 0 -65 -8t-70.5 -28.5t-68.5 -52t-57.5 -83.5t-40.5 -117l-103 -592q-6 -37 -44 -37h-53q-21 0 -31 11.5t-6 32.5l113 646q6 36 6 65q0 67 -32 107q-47 56 -136 56q-32 0 -65 -8t-70 -28.5t-68 -51t-57 -80.5t-39 -113l-106 -600 q-6 -37 -44 -37h-53q-21 0 -31 12q-7 8 -7 21q0 5 1 11z" />
<glyph unicode="n" horiz-adv-x="1060" d="M61 44l166 943q6 37 44 37h53q21 0 31 -11.5t6 -32.5l-14 -81q133 150 331 150q71 0 131.5 -26.5t101.5 -74.5t58 -120q9 -39 9 -80q0 -37 -7 -78l-112 -633q-6 -37 -45 -37h-52q-21 0 -31 11.5t-6 32.5l111 626q6 34 6 64q0 76 -39 122q-54 62 -162 62q-54 0 -104.5 -17 t-99.5 -53t-87 -100.5t-57 -150.5l-98 -560q-6 -37 -44 -37h-53q-21 0 -31 12q-7 8 -7 21q0 5 1 11z" />
<glyph unicode="o" horiz-adv-x="1243" d="M84 522q18 102 64 189.5t109.5 148.5t140.5 104.5t158.5 64t162.5 20.5q100 0 188.5 -38t152.5 -105.5t92 -172.5q16 -60 16 -126q0 -50 -9 -103q-22 -129 -84.5 -232.5t-149 -167t-185.5 -96.5t-201 -33t-193 37t-158 104q-66 68 -96 174q-17 61 -17 128q0 50 9 104z M219 512q-7 -43 -7 -82q0 -50 12 -95q20 -79 68 -129q50 -49 116 -75q64 -25 137 -25h6q105 0 202.5 44.5t174 140.5t98.5 227q8 43 8 83q0 47 -12 89q-20 78 -69 127t-115.5 75t-143.5 26q-104 -1 -201 -45t-174 -138.5t-100 -222.5z" />
<glyph unicode="p" horiz-adv-x="1302" d="M-11 -365l238 1352q6 37 44 37h53q21 0 31 -11.5t6 -32.5l-25 -143q82 100 198 156t252 56q103 0 192.5 -42.5t149.5 -114t86 -172.5q15 -58 15 -120q0 -45 -8 -92q-40 -230 -214 -381.5t-409 -151.5q-127 0 -225 64.5t-147 174.5l-103 -587q-6 -37 -44 -37h-52 q-21 0 -31 12q-8 9 -8 22q0 5 1 11zM277 502q-5 -35 -5 -67q0 -125 76 -215q95 -114 262 -114q175 0 310 121t165 295q8 42 8 80q0 118 -73 203q-95 113 -266 113q-168 0 -304 -114t-170 -282z" />
<glyph unicode="q" horiz-adv-x="1306" d="M86 532q22 125 81.5 226t140.5 163t174.5 95t189.5 33q134 0 244.5 -63t163.5 -180l32 181q6 37 44 37h52q21 0 32 -12q7 -8 7 -21q0 -5 -1 -11l-238 -1353q-6 -37 -44 -37h-53q-21 0 -31 12t-6 33l95 540q-80 -95 -194 -147.5t-251 -52.5q-140 0 -250.5 75.5 t-161.5 204.5q-35 86 -35 180q0 47 9 97zM221 522q-7 -38 -7 -75q0 -70 24 -133q37 -95 121.5 -151.5t197.5 -56.5q166 0 298 105.5t167 267.5l7 39q5 33 5 65q0 57 -16 107q-23 77 -73 126t-118 75t-145 26q-102 0 -196.5 -42.5t-168.5 -134.5t-96 -218z" />
<glyph unicode="r" horiz-adv-x="645" d="M61 44l166 943q6 37 44 37h53q21 0 31 -11.5t6 -32.5l-18 -99q124 155 309 160h3q19 1 27 -11q7 -9 7 -22q0 -5 -1 -12l-10 -50q-7 -36 -31 -37q-83 -4 -153 -37t-127.5 -110.5t-77.5 -192.5v1l-94 -533q-6 -37 -44 -37h-53q-21 0 -31 12q-7 8 -7 21q0 5 1 11z" />
<glyph unicode="s" horiz-adv-x="942" d="M49 259q3 38 43 38h54q38 0 38 -43q1 -77 59.5 -112.5t153.5 -35.5q105 0 182 40.5t91 121.5q2 13 2 25q0 35 -20 62q-27 36 -76.5 58t-111 40.5t-122 42.5t-108.5 56q-46 32 -70 88q-15 35 -15 78q0 26 5 54q23 125 133 201t266 76q147 0 237 -77q82 -71 82 -185 q0 -10 -1 -21q-3 -39 -43 -39h-54q-39 0 -39 43q-1 52 -30 86.5t-70.5 47.5t-93.5 13q-59 0 -110 -14.5t-92 -51.5t-50 -91q-2 -13 -2 -25q0 -35 20 -62q27 -36 76.5 -58t111 -40.5t122 -42.5t108 -56t71.5 -88q15 -35 14 -78q0 -26 -5 -54q-22 -127 -136.5 -204t-283.5 -77 q-160 0 -252 77q-85 71 -85 187q0 10 1 20z" />
<glyph unicode="t" horiz-adv-x="645" d="M116 937l9 50q6 37 44 37h177l51 291q6 37 44 37h53q21 0 31 -12t6 -33l-50 -283h168q21 0 31 -12q8 -8 8 -21q0 -5 -1 -11l-9 -50q-6 -37 -44 -37h-176l-150 -856q-6 -37 -45 -37h-52q-21 0 -31 11.5t-6 32.5l149 849h-170q-21 -1 -31 11q-7 8 -7 22q0 5 1 11z" />
<glyph unicode="u" horiz-adv-x="1060" d="M92 354l110 633q6 37 45 37h52q21 0 31 -11.5t6 -32.5l-109 -626q-6 -33 -6 -62q0 -74 39 -121q54 -65 160 -65q54 0 106 18t100 55t85.5 101t55.5 147l99 560q6 37 44 37h53q21 0 31 -12q7 -8 7 -21q0 -5 -1 -11l-166 -943q-6 -37 -44 -37h-53q-21 0 -31 11.5t-6 32.5 l14 80q-121 -149 -321 -149q-72 0 -133.5 26.5t-104.5 74.5t-61 120q-10 38 -10 80q0 38 8 78z" />
<glyph unicode="v" horiz-adv-x="962" d="M119 979q-1 7 -1 13q0 32 38 32h52q38 0 45 -37l156 -840l456 848q16 29 49 29h63q24 0 32 -14q3 -6 3 -13q0 -10 -6 -22l-517 -946q-16 -29 -49 -29h-55h-38q-38 0 -45 37z" />
<glyph unicode="w" horiz-adv-x="1392" d="M118 980q-1 6 -1 11q-1 13 7 21q10 12 32 12h54q38 0 44 -38l129 -829l277 529l-50 294q-4 21 6 32.5t31 11.5h54q38 0 44 -38l129 -826l424 834q15 30 48 30h61q25 0 33 -14q4 -6 3 -14q0 -10 -6 -21l-496 -946q-16 -29 -48 -29h-46h-31q-38 0 -44 37l-78 453l-244 -461 q-16 -29 -49 -29h-45h-32q-38 0 -44 37z" />
<glyph unicode="x" horiz-adv-x="921" d="M-18 15q-2 5 -2 10q0 11 12 25l399 488l-210 438q-10 22 -2 35t32 13h55q34 0 48 -30l166 -347l289 353q20 24 50 24h60q25 0 33 -15q2 -5 3 -10q0 -11 -12 -25l-365 -447l229 -479q10 -22 2 -35t-32 -13h-54q-34 0 -48 30l-186 388l-323 -394q-20 -24 -50 -24h-60 q-26 0 -34 15z" />
<glyph unicode="y" horiz-adv-x="962" d="M121 979q-2 7 -2 13q0 12 7 20q9 12 31 12h52q36 0 45 -36l186 -798l429 805q16 29 49 29h59q24 0 32 -14q3 -6 3 -13q0 -10 -6 -22l-720 -1355q-16 -30 -49 -30h-59q-24 0 -32 14t3 35l197 373z" />
<glyph unicode="z" horiz-adv-x="921" d="M0 44l3 19q6 28 23 48l687 782h-498q-21 0 -31 11.5t-6 32.5l8 50q6 37 44 37h655q21 0 31 -12q7 -8 7 -21q0 -5 -1 -11l-4 -19q-6 -28 -23 -48l-686 -782h539q21 0 31 -11.5t6 -32.5l-9 -50q-6 -37 -44 -37h-695q-21 0 -31 12q-7 8 -7 21q0 5 1 11z" />
<glyph unicode="{" horiz-adv-x="727" d="M135 697l10 51q7 36 44 37q92 4 141 45.5t69 154.5l60 342q32 181 127.5 260t256.5 74q44 -2 36 -45l-8 -50q-6 -37 -46 -35q-102 4 -156.5 -41.5t-74.5 -162.5l-59 -342q-23 -125 -72.5 -188.5t-134.5 -87.5q75 -24 103.5 -84.5t8.5 -171.5l-59 -342q-21 -115 15 -160.5 t134 -43.5q23 1 33.5 -10t6.5 -33l-9 -49q-6 -37 -43 -38q-161 -5 -231 81t-41 253l59 342q19 111 -13.5 152t-119.5 47q-44 3 -37 45z" />
<glyph unicode="|" horiz-adv-x="462" d="M10 -365l317 1802q6 38 44 38h53q21 0 31 -12t6 -33l-317 -1803q-6 -37 -44 -37h-53q-21 0 -31 12t-6 33z" />
<glyph unicode="}" horiz-adv-x="727" d="M-81 -178l9 49q7 37 46 36q102 -4 156.5 41.5t74.5 162.5l59 342q23 125 72.5 188.5t134.5 87.5q-75 24 -104 84.5t-9 171.5l60 342q21 115 -15.5 160.5t-134.5 43.5q-23 -1 -33 10t-6 33l8 49q6 36 44 38q161 5 231 -81t41 -253l-59 -342q-19 -111 13.5 -152t119.5 -47 q44 -3 37 -45l-10 -51q-7 -36 -44 -37q-92 -4 -141.5 -45.5t-69.5 -154.5l-59 -342q-32 -182 -128 -261t-256 -74q-21 1 -31 13.5t-6 32.5z" />
<glyph unicode="~" horiz-adv-x="1216" d="M162 680q78 154 215.5 182t308.5 -88q83 -58 145.5 -69.5t104 15.5t76.5 91q19 36 55 18l40 -20q37 -19 19 -55q-78 -155 -213 -183.5t-309 88.5q-62 43 -112.5 61t-90 10t-69.5 -34t-56 -73q-20 -37 -55 -19l-40 21q-37 19 -19 55z" />
<glyph unicode="&#xa1;" horiz-adv-x="471" d="M0 -365l63 365l136 599q7 36 45 36h21q45 0 39 -44l-77 -591l-65 -372q-6 -38 -44 -38h-81q-21 0 -31 12t-6 33zM209 884l18 103q6 37 44 37h102q21 0 31 -11.5t6 -32.5l-18 -103q-6 -37 -45 -37h-101q-21 0 -31 11.5t-6 32.5z" />
<glyph unicode="&#xa2;" horiz-adv-x="1175" d="M123 739q40 226 215 370t405 144q53 0 101 -9l84 169q10 21 33 21h46q17 0 22.5 -9.5t-1.5 -24.5l-91 -183q91 -38 152.5 -108.5t82.5 -163.5q4 -21 -6 -32.5t-31 -11.5h-59q-34 0 -46 35q-40 112 -153 159l-383 -773q46 -11 94 -11q114 0 212 52.5t158 141.5 q18 27 49 27h57q24 0 33 -13.5t-2 -34.5q-77 -142 -218.5 -223t-311.5 -81q-71 0 -133 18l-88 -177q-10 -21 -34 -21h-45q-17 0 -22.5 9.5t1.5 24.5l100 201q-127 69 -188.5 205.5t-32.5 298.5zM258 725q-20 -119 19.5 -217t127.5 -150l377 761q-24 3 -51 3 q-173 0 -307.5 -113t-165.5 -284z" />
<glyph unicode="&#xa3;" horiz-adv-x="1198" d="M0 44l10 58q6 37 44 37h155l77 432h-108q-21 0 -31 12t-6 33l8 45q6 37 44 37h115l59 330q19 107 67 190.5t115 135t146.5 78t166.5 26.5q57 0 111.5 -16.5t103.5 -50.5t82.5 -85t48 -120.5t-1.5 -157.5l-1 -8q-6 -37 -44 -37h-61q-20 0 -31 11t-8 26l2 8q25 147 -39 219 t-186 72q-117 0 -210 -73t-118 -218l-58 -330h427q21 0 31 -11.5t6 -32.5l-8 -46q-6 -37 -45 -37h-434l-76 -432h704q21 0 31 -11.5t6 -32.5l-10 -58q-6 -37 -44 -37h-1003q-21 0 -31 11.5t-6 32.5z" />
<glyph unicode="&#xa4;" horiz-adv-x="1130" d="M65 277q-20 22 2 41l150 128q-79 123 -51 279q26 154 142 270l-97 118q-18 22 3 40l32 28q22 19 41 -3l100 -119q135 92 291 92q146 0 250 -94l148 127q22 19 41 -3l23 -25q19 -21 -3 -40l-150 -129q79 -122 51 -278q-27 -154 -142 -269l98 -119q18 -21 -4 -40l-34 -29 q-21 -18 -40 4l-99 119q-136 -92 -293 -92q-145 0 -247 92l-149 -126q-22 -18 -40 3zM301 717q-23 -127 48.5 -215t199.5 -88q127 0 229 87.5t125 215.5q22 128 -49.5 215.5t-198.5 87.5t-229.5 -87.5t-124.5 -215.5z" />
<glyph unicode="&#xa5;" horiz-adv-x="1177" d="M128 394l7 38q6 37 44 37h329l22 123h-321q-21 0 -31.5 11.5t-6.5 32.5l7 37q6 38 44 38h303l-320 674q-10 22 -1.5 35.5t32.5 13.5h60q33 0 48 -31l286 -601l501 608q20 24 51 24h72q26 0 33 -15.5t-10 -35.5l-555 -672h298q21 0 31 -12t6 -33l-6 -37q-6 -37 -44 -37 h-334l-21 -123h325q21 0 31 -11.5t6 -32.5l-6 -38q-6 -37 -44 -37h-333l-55 -313q-6 -37 -44 -37h-61q-21 0 -31 11.5t-6 32.5l53 306h-321q-21 0 -31.5 11.5t-6.5 32.5z" />
<glyph unicode="&#xa6;" horiz-adv-x="462" d="M10 -365l119 676q6 37 44 37h52q21 0 31.5 -11.5t6.5 -32.5l-119 -677q-6 -37 -44 -37h-53q-21 0 -31 12t-6 33zM208 761l119 676q6 38 44 38h53q21 0 31 -12t6 -33l-119 -676q-6 -37 -44 -37h-52q-21 0 -31.5 11.5t-6.5 32.5z" />
<glyph unicode="&#xa7;" horiz-adv-x="1044" d="M69 74q3 39 43 39h54q39 0 39 -44q-1 -90 60.5 -128.5t160.5 -38.5q104 0 175.5 39.5t84.5 121.5q8 43 -6 78.5t-60 70.5t-75.5 52.5t-102.5 55.5q-11 6 -17 9t-15 8t-17 9q-63 34 -107.5 65t-86.5 75t-58 100t-4 121q26 155 199 253q-79 92 -57 220q23 126 133 202 t270 76q143 0 232.5 -81.5t77.5 -221.5q-3 -39 -43 -39h-54q-41 0 -39 44q1 89 -56.5 128t-142.5 39q-90 0 -159.5 -40.5t-83.5 -121.5q-8 -43 8 -80t57.5 -70t79 -55.5t100.5 -55.5q19 -10 29 -15q50 -28 86 -51.5t75.5 -58.5t61.5 -70.5t32.5 -84t0.5 -102.5 q-26 -151 -186 -248q86 -94 63 -223q-22 -127 -134.5 -203.5t-285.5 -76.5q-156 0 -249.5 81t-82.5 222zM272 694q-14 -77 38 -132t155 -107q12 -6 48 -23.5t54.5 -26.5t46.5 -24.5t50 -29.5q123 68 145 184q7 42 -5 78t-42.5 66t-65.5 52.5t-86 48.5q-136 69 -184 102 q-135 -70 -154 -188z" />
<glyph unicode="&#xa8;" horiz-adv-x="655" d="M168 1232l14 83q6 37 44 37h81q21 0 31.5 -12t6.5 -33l-15 -82q-6 -37 -44 -37h-81q-21 0 -31 11.5t-6 32.5zM577 1232l15 83q6 37 44 37h81q21 0 31 -12t6 -33l-14 -82q-6 -37 -44 -37h-82q-21 0 -31 11.5t-6 32.5z" />
<glyph unicode="&#xa9;" horiz-adv-x="1646" d="M121 729q27 151 108.5 286.5t197.5 232.5t263.5 153.5t300.5 56.5q148 0 274.5 -60.5t208 -162t116.5 -240.5t9 -290q-36 -202 -163.5 -369.5t-314.5 -264t-392 -96.5q-148 0 -274.5 60.5t-208.5 162t-117 241t-8 290.5zM182 717q-25 -140 6 -266.5t106 -218t191 -145.5 t254 -54q187 0 359 91.5t289 248.5t151 344q32 186 -30.5 343.5t-202.5 249t-324 91.5q-187 0 -359.5 -91.5t-289.5 -248.5t-150 -344zM469 729q29 164 162 272.5t305 108.5q120 0 209.5 -70.5t109.5 -177.5q4 -20 -7 -31.5t-32 -11.5h-58q-33 0 -44 37q-18 61 -74 94 t-127 33q-118 0 -204.5 -79t-106.5 -187t39.5 -187t177.5 -79q74 0 142 34t107 99q18 30 49 30h53q24 0 33 -13t-1 -33q-58 -110 -167 -177t-238 -67q-161 0 -259 120.5t-69 284.5z" />
<glyph unicode="&#xaa;" horiz-adv-x="573" d="M164 1096q11 73 71 114t134 41q96 0 141 -61l14 78q7 45 -17.5 68.5t-74.5 23.5q-81 0 -106 -52q-9 -20 -28 -20h-51q-13 0 -19 7t-2 20q21 67 80 105t149 38q88 0 136.5 -53.5t33.5 -136.5l-56 -312q-4 -22 -26 -22h-51q-27 0 -22 26l2 17q-52 -55 -153 -55 q-75 0 -121.5 49.5t-33.5 124.5zM264 1092q-6 -36 19.5 -60t74.5 -24q29 0 55 6t49 23t29 44l1 4q6 39 -28 59.5t-87 20.5q-46 0 -76.5 -19.5t-36.5 -53.5z" />
<glyph unicode="&#xab;" horiz-adv-x="1017" d="M177 603q-13 30 7 56l252 318q18 24 50 24h83q26 0 33.5 -15t-8.5 -35l-258 -328l136 -311q10 -22 1 -35t-32 -13h-81q-35 0 -48 31zM505 603q-13 30 7 56l251 318q18 24 50 24h84q26 0 33 -15t-9 -35l-257 -328l136 -311q10 -22 1 -35t-32 -13h-82q-34 0 -47 31z" />
<glyph unicode="&#xac;" d="M155 696l9 49q6 37 44 37h699h37q21 0 31.5 -11.5t6.5 -32.5l-50 -287q-6 -37 -44 -37h-53q-21 0 -31 11.5t-6 32.5l33 193h-639q-21 0 -31 12t-6 33z" />
<glyph unicode="&#xad;" d="M182 612l8 49q6 37 44 37h655q21 0 31 -11.5t6 -32.5l-8 -50q-6 -37 -44 -37h-655q-21 0 -31 12t-6 33z" />
<glyph unicode="&#xae;" horiz-adv-x="1646" d="M121 729q27 151 108.5 286.5t197.5 232.5t263.5 153.5t300.5 56.5q148 0 274.5 -60.5t208 -162t116.5 -240.5t9 -290q-36 -202 -163.5 -369.5t-314.5 -264t-392 -96.5q-148 0 -274.5 60.5t-208.5 162t-117 241t-8 290.5zM182 717q-25 -140 6 -266.5t106 -218t191 -145.5 t254 -54q187 0 359 91.5t289 248.5t151 344q32 186 -30.5 343.5t-202.5 249t-324 91.5q-187 0 -359.5 -91.5t-289.5 -248.5t-150 -344zM575 382l119 677q6 37 44 37h89h107q130 0 196 -75.5t48 -176.5q-29 -164 -185 -215l147 -242q13 -21 5 -35t-33 -14h-48q-32 0 -49 27 l-149 244q-3 0 -9 -0.5t-9 -0.5h-106l-41 -233q-6 -37 -44 -37h-45q-21 0 -31 11.5t-6 32.5zM763 731h116q72 0 117.5 33t54.5 88q11 56 -22.5 88.5t-106.5 32.5h-116z" />
<glyph unicode="&#xaf;" horiz-adv-x="614" d="M166 1223l10 53q7 31 35 31h465q37 0 31 -35l-11 -53q-7 -31 -34 -31h-465q-37 0 -31 35z" />
<glyph unicode="&#xb0;" horiz-adv-x="790" d="M231 1360q23 129 126.5 214t240.5 85q131 0 206 -93.5t52 -222.5q-22 -131 -121 -215t-246 -84q-131 0 -205.5 93.5t-52.5 222.5zM362 1352q-13 -80 26 -132.5t124 -52.5q80 0 140.5 53.5t72.5 131.5q14 78 -28 131t-122 53t-139.5 -53t-73.5 -131z" />
<glyph unicode="&#xb1;" horiz-adv-x="1107" d="M73 229l9 49q6 37 44 37h777q21 0 31.5 -11.5t6.5 -32.5l-9 -49q-6 -38 -44 -38h-778q-21 0 -31 12t-6 33zM180 829l8 49q6 37 44 37h327l53 297q6 37 44 37h49q21 0 31 -11.5t6 -32.5l-51 -290h319q21 0 31 -11.5t6 -32.5l-8 -49q-6 -38 -45 -38h-327l-52 -296 q-6 -37 -44 -37h-49q-21 0 -31 11.5t-6 32.5l51 289h-319q-21 0 -31 12t-6 33z" />
<glyph unicode="&#xb4;" horiz-adv-x="407" d="M180.5 1180q6.5 -13 26.5 -13h59q25 0 41 19l185 207q14 15 9 28t-26 13h-90q-21 0 -39 -21l-160 -205q-12 -15 -5.5 -28z" />
<glyph unicode="&#xb5;" horiz-adv-x="1159" d="M-11 -365l238 1352q6 37 44 37h53q21 0 31 -11.5t6 -32.5l-110 -626h1q-21 -118 32.5 -183t159.5 -65q55 0 108 18t103 56t87.5 106.5t52.5 159.5l1 -1l95 542q6 37 44 37h52q21 0 31 -11.5t6 -32.5l-135 -775q-8 -44 15.5 -59t80.5 -15q21 0 31.5 -11.5t6.5 -32.5 l-9 -50q-6 -37 -44 -37h-59q-66 0 -109.5 37.5t-50.5 100.5q-132 -163 -345 -163q-133 0 -205 95l-78 -443q-6 -37 -44 -37h-52q-21 0 -31.5 12t-6.5 33z" />
<glyph unicode="&#xb6;" horiz-adv-x="1187" d="M174 1032q31 170 169.5 286t309.5 116h131h361h78q21 0 31 -12t6 -33l-8 -45q-6 -37 -44 -37h-85l-295 -1679q-6 -38 -44 -38h-49q-21 0 -31 12t-6 33l293 1672h-229l-295 -1680q-6 -37 -44 -37h-48q-21 0 -31 12t-6 33l172 979q-84 0 -154 34.5t-114.5 91t-63 133 t-4.5 159.5z" />
<glyph unicode="&#xb7;" horiz-adv-x="471" d="M172 669l18 103q6 37 44 37h102q21 0 31 -11.5t6 -32.5l-18 -103q-6 -37 -44 -37h-102q-21 0 -31 11.5t-6 32.5z" />
<glyph unicode="&#xb8;" horiz-adv-x="501" d="M-120 -404l7 38q6 34 43 32q127 -7 197 13t78 63q7 37 -29.5 58t-105.5 25q-40 2 -34 40l23 135h121l-16 -92q82 -15 126.5 -64t33.5 -112q-7 -41 -28 -71.5t-64.5 -58t-124 -40t-192.5 -7.5q-43 2 -35 41z" />
<glyph unicode="&#xba;" horiz-adv-x="663" d="M182 1198q20 114 109.5 187t210.5 73q112 0 175.5 -81t43.5 -195q-20 -115 -107 -187.5t-208 -72.5q-113 0 -178.5 81t-45.5 195zM285 1190q-12 -77 26 -123.5t113 -46.5t128.5 47t65.5 123q14 77 -23 123.5t-112 46.5t-130 -47t-68 -123z" />
<glyph unicode="&#xbb;" horiz-adv-x="1019" d="M131 279q-7 15 9 35l257 329l-136 311q-10 22 -1 34.5t32 12.5h82q34 0 47 -31l135 -307q13 -30 -7 -56l-251 -319q-18 -24 -50 -24h-84q-26 0 -33 15zM458.5 279q-7.5 15 8.5 35l258 329l-137 311q-9 22 -0.5 34.5t32.5 12.5h81q35 0 48 -31l135 -307q13 -30 -7 -56 l-252 -319q-18 -24 -50 -24h-83q-26 0 -33.5 15z" />
<glyph unicode="&#xbc;" horiz-adv-x="1681" d="M168 1239l9 47q6 31 33 45l184 91q23 12 50 12h56q21 0 31 -12t6 -33l-129 -737q-6 -38 -44 -38h-45q-21 0 -31 12t-6 33l111 635l-180 -89q-23 -11 -36 -1t-9 35zM194 12q-6 12 6 28l1016 1374q14 20 40 20h58q20 0 26 -12t-6 -28l-1016 -1374q-14 -20 -40 -20h-58 q-20 0 -26 12zM931 198l9 48q4 27 20 48l367 500q18 25 50 25h52q26 0 33.5 -14.5t-7.5 -35.5l-363 -497h275l27 160q6 37 45 37h44q21 0 31 -11.5t6 -32.5l-27 -153h60q21 0 31 -11.5t6 -32.5l-7 -37q-6 -37 -44 -37h-66l-21 -117q-6 -37 -44 -37h-44q-21 0 -31 11.5 t-6 32.5l19 110h-377q-21 0 -31.5 11.5t-6.5 32.5z" />
<glyph unicode="&#xbd;" horiz-adv-x="1652" d="M168 1239l9 47q6 31 33 45l184 91q23 12 51 12h55q21 0 31 -12t6 -33l-129 -737q-6 -38 -44 -38h-45q-21 0 -31 12t-6 33l111 635l-180 -89q-23 -11 -36 -1t-9 35zM194 12q-6 12 6 28l1016 1374q14 20 40 20h58q20 0 26 -12t-6 -28l-1016 -1374q-14 -20 -40 -20h-58 q-20 0 -26 12zM936 44l5 32q6 29 28 47l377 307q105 84 116 160q9 58 -24 94.5t-101 36.5q-63 0 -107 -26.5t-63 -75.5q-14 -35 -46 -35h-44q-22 0 -32.5 12t-3.5 33q32 100 116 157.5t201 57.5q113 0 181.5 -78t49.5 -182q-12 -70 -51.5 -126t-120.5 -120l-268 -215h328 q21 0 31 -11.5t6 -32.5l-7 -42q-6 -37 -44 -37h-490q-21 0 -31 11.5t-6 32.5z" />
<glyph unicode="&#xbe;" horiz-adv-x="1898" d="M107 815q1 39 43 39h46q20 0 29 -10t11 -31q5 -47 43 -73.5t106 -26.5q83 0 134.5 38.5t62.5 102.5q12 63 -27.5 102t-118.5 39h-27q-21 0 -31 12t-6 33l4 24q4 28 24 48l195 199h-323q-21 0 -31 11.5t-6 32.5l7 41q6 38 44 38h445q21 0 31.5 -12t6.5 -33l-9 -51 q-4 -27 -24 -47l-197 -201q93 -23 139.5 -90t30.5 -158q-20 -117 -113.5 -184.5t-230.5 -67.5q-114 0 -187 62t-71 163zM411 12q-6 12 6 28l1016 1374q14 20 40 20h58q20 0 26 -12t-6 -28l-1016 -1374q-14 -20 -40 -20h-58q-20 0 -26 12zM1148 198l9 48q4 27 20 48l367 500 q18 25 50 25h52q26 0 33.5 -14.5t-7.5 -35.5l-363 -497h275l27 160q6 37 45 37h44q21 0 31 -11.5t6 -32.5l-26 -153h59q21 0 31 -11.5t6 -32.5l-7 -37q-6 -37 -44 -37h-66l-21 -117q-6 -37 -44 -37h-44q-21 0 -31 11.5t-6 32.5l19 110h-377q-21 0 -31.5 11.5t-6.5 32.5z" />
<glyph unicode="&#xbf;" horiz-adv-x="1095" d="M25 -43q15 84 65 156t114 125.5t128.5 104.5t119.5 117t76 139q10 36 45 36h61q22 0 32 -12.5t4 -33.5q-18 -65 -53 -123t-77.5 -101t-90 -83.5t-93 -77.5t-84.5 -75t-67 -85t-37 -99q-21 -119 48.5 -179.5t195.5 -60.5q129 0 226 59t130 175q10 36 45 36h60q22 0 32 -12 t4 -33q-48 -175 -192.5 -269.5t-329.5 -94.5q-64 0 -123.5 16.5t-109 48.5t-83 79.5t-46.5 109t0 137.5zM561 884l18 103q6 37 44 37h102q21 0 31 -11.5t6 -32.5l-18 -103q-6 -37 -44 -37h-102q-21 0 -31 11.5t-6 32.5z" />
<glyph unicode="&#xc0;" horiz-adv-x="1290" d="M-46 14q-8 14 4 35l759 1356q16 29 49 29h77q37 0 45 -37l282 -1352q5 -21 -4.5 -33t-31.5 -12h-65q-36 0 -44 37l-62 315h-681l-180 -323q-16 -29 -49 -29h-67q-24 0 -32 14zM357 487h579l-152 768zM656.5 1829q7.5 14 32.5 14h74q34 0 47 -31l84 -187q10 -22 1 -35 t-32 -13h-46q-34 0 -49 28l-107 189q-12 21 -4.5 35z" />
<glyph unicode="&#xc1;" horiz-adv-x="1290" d="M-46 14q-8 14 4 35l759 1356q16 29 49 29h78q36 0 44 -37l282 -1352q5 -21 -4.5 -33t-31.5 -12h-65q-36 0 -44 37l-62 315h-681l-180 -323q-16 -29 -49 -29h-67q-24 0 -32 14zM357 487h579l-152 768zM756 1590q-6 13 6 28l160 205q17 20 39 20h90q21 0 25.5 -13t-9.5 -28 l-184 -207q-15 -18 -41 -18h-60q-20 0 -26 13z" />
<glyph unicode="&#xc2;" horiz-adv-x="1290" d="M-46 14q-8 14 4 35l759 1356q16 29 49 29h78q36 0 44 -37l282 -1352q5 -21 -4.5 -33t-31.5 -12h-65q-36 0 -44 37l-62 315h-681l-180 -323q-16 -29 -49 -29h-67q-24 0 -32 14zM357 487h579l-152 768zM566 1590q-6 13 9 28l207 209q16 16 41 16h76h35q27 0 39 -20 l133 -207q10 -17 3.5 -28t-26.5 -11h-75q-26 0 -39 22l-100 156l-156 -162q-13 -16 -41 -16h-78q-22 0 -28 13z" />
<glyph unicode="&#xc3;" horiz-adv-x="1290" d="M-46 14q-8 14 4 35l759 1356q16 29 49 29h77q37 0 45 -37l282 -1352q5 -21 -4.5 -33t-31.5 -12h-65q-36 0 -44 37l-62 315h-681l-180 -323q-16 -29 -49 -29h-67q-24 0 -32 14zM357 487h579l-152 768zM557 1639q24 104 77.5 153t114.5 42t121 -58q30 -26 48.5 -40 t39 -23.5t33.5 -4t25 24.5t21 55q9 35 41 35h44q20 0 28.5 -11.5t4.5 -30.5q-24 -104 -77 -153t-113.5 -41.5t-120.5 58.5q-25 21 -41 34t-34.5 23.5t-31 10.5t-24.5 -6.5t-21.5 -25.5t-16.5 -49q-9 -35 -41 -35h-44q-20 0 -28.5 11.5t-4.5 30.5z" />
<glyph unicode="&#xc4;" horiz-adv-x="1290" d="M-46 14q-8 14 4 35l759 1356q16 29 49 29h77q37 0 45 -37l282 -1352q5 -21 -4.5 -33t-31.5 -12h-65q-36 0 -44 37l-62 315h-681l-180 -323q-16 -29 -49 -29h-67q-24 0 -32 14zM357 487h579l-152 768zM557 1642l14 82q6 37 44 37h81q21 0 31.5 -11.5t6.5 -32.5l-15 -82 q-6 -38 -44 -38h-81q-21 0 -31 12t-6 33zM966 1642l15 82q6 37 44 37h81q21 0 31 -11.5t6 -32.5l-14 -82q-6 -38 -44 -38h-82q-21 0 -31 12t-6 33z" />
<glyph unicode="&#xc5;" horiz-adv-x="1290" d="M-46 14q-8 14 4 35l759 1356q16 29 49 29h78q36 0 44 -37l282 -1352q5 -21 -4.5 -33t-31.5 -12h-65q-36 0 -44 37l-62 315h-681l-180 -323q-16 -29 -49 -29h-67q-24 0 -32 14zM357 487h579l-152 768zM645 1747q15 89 83.5 144t168.5 55q91 0 144 -61.5t38 -149.5 q-15 -89 -84 -144t-170 -55q-89 0 -142 61.5t-38 149.5zM758 1741q-8 -44 14.5 -72.5t71.5 -28.5q51 0 84 28.5t41 72.5t-15.5 72t-74.5 28q-49 0 -81 -28t-40 -72z" />
<glyph unicode="&#xc6;" horiz-adv-x="1802" d="M-59.5 14.5q-6.5 14.5 8.5 34.5l343 435l1 3h2l727 922q19 25 49 25h74h82h600q20 0 30 -12.5t7 -32.5l-9 -54q-5 -37 -45 -37h-607l-89 -507h569q43 0 37 -46l-10 -53q-6 -37 -43 -37h-577l-91 -520h611q43 0 37 -45l-11 -53q-6 -37 -43 -37h-700h-16q-20 0 -30 12.5 t-7 32.5l54 307h-538l-258 -327q-19 -25 -49 -25h-76q-26 0 -32.5 14.5zM462 487h455l131 745z" />
<glyph unicode="&#xc7;" horiz-adv-x="1564" d="M121 737q36 203 157 367.5t305.5 259t395.5 94.5q218 0 385.5 -120.5t210.5 -310.5q4 -21 -6 -32.5t-31 -11.5h-70q-35 0 -45 35q-41 137 -160 219t-292 82q-180 0 -334 -81t-251 -217.5t-126 -303.5q-29 -166 22.5 -303t177 -218t302.5 -81q167 0 319 84.5t240 223.5 q18 28 49 28h68q24 0 33 -13.5t-2 -32.5q-102 -182 -281.5 -297t-394.5 -130l-13 -70q82 -15 126.5 -64t33.5 -112q-7 -41 -28 -71.5t-64.5 -58t-124 -40t-192.5 -7.5q-42 2 -34 41l7 38q6 34 42 32q127 -7 197 13t78 63q7 37 -29 58t-105 25q-41 2 -35 40l20 113 q-144 12 -261 77.5t-188.5 167.5t-99.5 235.5t-2 278.5z" />
<glyph unicode="&#xc8;" d="M82 45l237 1352q6 37 43 37h107h621q20 0 29.5 -12t6.5 -33l-8 -54q-5 -37 -45 -37h-628l-89 -507h570q43 0 37 -46l-11 -53q-6 -37 -43 -37h-577l-91 -520h631q43 0 37 -45l-10 -53q-6 -37 -43 -37h-721h-16q-20 0 -30 12.5t-7 32.5zM580.5 1829q7.5 14 32.5 14h74 q35 0 48 -31l83 -187q10 -22 1 -35t-32 -13h-46q-34 0 -49 28l-107 189q-12 21 -4.5 35z" />
<glyph unicode="&#xc9;" d="M82 45l237 1352q6 37 43 37h107h621q20 0 29.5 -12t6.5 -33l-8 -54q-5 -37 -45 -37h-628l-89 -507h570q43 0 37 -46l-11 -53q-6 -37 -43 -37h-577l-91 -520h631q43 0 37 -45l-10 -53q-6 -37 -43 -37h-721h-16q-20 0 -30 12.5t-7 32.5zM680.5 1590q-6.5 13 5.5 28l160 205 q17 20 39 20h90q21 0 25.5 -13t-9.5 -28l-184 -207q-15 -18 -41 -18h-59q-20 0 -26.5 13z" />
<glyph unicode="&#xca;" d="M82 45l237 1352q6 37 43 37h107h621q20 0 29.5 -12t6.5 -33l-8 -54q-5 -37 -45 -37h-628l-89 -507h570q43 0 37 -46l-11 -53q-6 -37 -43 -37h-577l-91 -520h631q43 0 37 -45l-10 -53q-6 -37 -43 -37h-721h-16q-20 0 -30 12.5t-7 32.5zM490.5 1590q-5.5 13 9.5 28l207 209 q16 16 41 16h75h35q26 0 39 -20l133 -207q11 -17 4.5 -28t-26.5 -11h-76q-26 0 -39 22l-100 156l-156 -162q-13 -16 -41 -16h-78q-22 0 -27.5 13z" />
<glyph unicode="&#xcb;" d="M82 45l237 1352q6 37 43 37h107h621q20 0 29.5 -12t6.5 -33l-8 -54q-5 -37 -45 -37h-628l-89 -507h570q43 0 37 -46l-11 -53q-6 -37 -43 -37h-577l-91 -520h631q43 0 37 -45l-10 -53q-6 -37 -43 -37h-721h-16q-20 0 -30 12.5t-7 32.5zM481 1642l14 82q6 37 44 37h82 q21 0 31 -11.5t6 -32.5l-15 -82q-6 -38 -44 -38h-81q-21 0 -31 12t-6 33zM890 1642l15 82q6 37 44 37h81q21 0 31 -11.5t6 -32.5l-14 -82q-6 -38 -44 -38h-81q-21 0 -31.5 12t-6.5 33z" />
<glyph unicode="&#xcc;" horiz-adv-x="471" d="M82 44l237 1353q6 37 44 37h61q21 0 31 -12t6 -33l-237 -1352q-6 -37 -45 -37h-60q-21 0 -31 11.5t-6 32.5zM247 1829q-8 -14 4 -35l108 -189q15 -28 48 -28h46q23 0 32 13t-1 35l-83 187q-13 31 -48 31h-73q-25 0 -33 -14z" />
<glyph unicode="&#xcd;" horiz-adv-x="471" d="M82 44l237 1353q6 37 44 37h61q21 0 31 -12t6 -33l-237 -1352q-6 -37 -45 -37h-60q-21 0 -31 11.5t-6 32.5zM346.5 1590q6.5 -13 26.5 -13h59q26 0 41 18l184 207q14 15 9.5 28t-25.5 13h-90q-22 0 -39 -20l-160 -205q-12 -15 -5.5 -28z" />
<glyph unicode="&#xce;" horiz-adv-x="471" d="M82 44l237 1353q6 37 44 37h61q21 0 31 -12t6 -33l-237 -1352q-6 -37 -45 -37h-60q-21 0 -31 11.5t-6 32.5zM156.5 1590q-5.5 13 9.5 28l207 209q16 16 41 16h75h35q26 0 39 -20l133 -207q11 -17 4.5 -28t-26.5 -11h-76q-26 0 -39 22l-100 156l-156 -162q-13 -16 -41 -16 h-78q-22 0 -27.5 13z" />
<glyph unicode="&#xcf;" horiz-adv-x="471" d="M82 44l237 1353q6 37 44 37h61q21 0 31 -12t6 -33l-237 -1352q-6 -37 -45 -37h-60q-21 0 -31 11.5t-6 32.5zM147 1642l14 82q6 37 45 37h81q21 0 31 -11.5t6 -32.5l-14 -82q-6 -38 -45 -38h-81q-21 0 -31 12t-6 33zM557 1642l14 82q6 37 44 37h81q21 0 31.5 -11.5 t6.5 -32.5l-15 -82q-6 -38 -44 -38h-81q-21 0 -31 12t-6 33z" />
<glyph unicode="&#xd0;" horiz-adv-x="1560" d="M94 696l8 49q6 37 44 37h106l108 615q6 37 44 37h106h451q188 0 327.5 -102t198.5 -271t24 -365q-26 -147 -98 -275t-176.5 -221t-241.5 -146.5t-286 -53.5h-533h-16q-21 0 -31.5 11.5t-6.5 32.5l107 607h-98q-21 0 -31 12t-6 33zM282 135h451q156 0 293 78.5t227.5 211 t118.5 292.5q27 161 -16 293t-152.5 210t-265.5 78h-452l-90 -516h405q21 0 31 -11.5t6 -32.5l-8 -50q-6 -37 -44 -37h-414z" />
<glyph unicode="&#xd1;" horiz-adv-x="1290" d="M81 44l238 1353q6 37 44 37h39q35 0 48 -31l494 -1120l194 1114q6 37 45 37h60q21 0 31 -12t6 -33l-237 -1352q-6 -37 -44 -37h-39q-35 0 -48 31l-492 1120l-196 -1114q-6 -37 -45 -37h-60q-21 0 -31.5 11.5t-6.5 32.5zM557 1639q24 104 77.5 153t114.5 42t121 -58 q30 -26 48.5 -40t39 -23.5t33.5 -4t25 24.5t21 55q9 35 41 35h44q20 0 28.5 -11.5t4.5 -30.5q-24 -104 -77 -153t-113.5 -41.5t-120.5 58.5q-25 21 -41 34t-34.5 23.5t-31 10.5t-24.5 -6.5t-21.5 -25.5t-16.5 -49q-9 -35 -41 -35h-44q-20 0 -28.5 11.5t-4.5 30.5z" />
<glyph unicode="&#xd2;" horiz-adv-x="1654" d="M121 737q36 203 158.5 367.5t308 259t395.5 94.5q153 0 282.5 -63.5t212 -168.5t118 -247t8.5 -293q-37 -203 -160 -365t-308.5 -254t-398.5 -92q-152 0 -280.5 62t-211 165t-117 243.5t-7.5 291.5zM264 717q-22 -124 4.5 -235t92 -191.5t170 -128t231.5 -47.5 q130 0 249.5 45.5t210.5 125t153.5 188.5t84.5 233q21 124 -5.5 236.5t-92 195t-171 131.5t-233.5 49q-129 0 -248 -47.5t-209.5 -128.5t-153 -191.5t-83.5 -234.5zM836.5 1829q-7.5 -14 4.5 -35l107 -189q15 -28 49 -28h46q23 0 32 13t-1 35l-83 187q-13 31 -48 31h-74 q-25 0 -32.5 -14z" />
<glyph unicode="&#xd3;" horiz-adv-x="1654" d="M121 737q36 203 158.5 367.5t308 259t395.5 94.5q153 0 282.5 -63.5t212 -168.5t118 -247t8.5 -293q-37 -203 -160 -365t-308.5 -254t-398.5 -92q-152 0 -280.5 62t-211 165t-117 243.5t-7.5 291.5zM264 717q-22 -124 4.5 -235t92 -191.5t170 -128t231.5 -47.5 q130 0 249.5 45.5t210.5 125t153.5 188.5t84.5 233q21 124 -5.5 236.5t-92 195t-171 131.5t-233.5 49q-129 0 -248 -47.5t-209.5 -128.5t-153 -191.5t-83.5 -234.5zM936.5 1590q6.5 -13 26.5 -13h59q26 0 41 18l184 207q14 15 9.5 28t-25.5 13h-90q-22 0 -39 -20l-160 -205 q-12 -15 -5.5 -28z" />
<glyph unicode="&#xd4;" horiz-adv-x="1654" d="M121 737q36 203 158.5 367.5t308 259t395.5 94.5q153 0 282.5 -63.5t212 -168.5t118 -247t8.5 -293q-37 -203 -160 -365t-308.5 -254t-398.5 -92q-152 0 -280.5 62t-211 165t-117 243.5t-7.5 291.5zM264 717q-22 -124 4.5 -235t92 -191.5t170 -128t231.5 -47.5 q130 0 249.5 45.5t210.5 125t153.5 188.5t84.5 233q21 124 -5.5 236.5t-92 195t-171 131.5t-233.5 49q-129 0 -248 -47.5t-209.5 -128.5t-153 -191.5t-83.5 -234.5zM746.5 1590q-5.5 13 9.5 28l207 209q16 16 41 16h75h35q26 0 39 -20l133 -207q11 -17 4.5 -28t-26.5 -11 h-76q-26 0 -39 22l-100 156l-156 -162q-13 -16 -41 -16h-78q-22 0 -27.5 13z" />
<glyph unicode="&#xd5;" horiz-adv-x="1654" d="M121 737q36 203 158.5 367.5t308 259t395.5 94.5q153 0 282.5 -63.5t212 -168.5t118 -247t8.5 -293q-37 -203 -160 -365t-308.5 -254t-398.5 -92q-152 0 -280.5 62t-211 165t-117 243.5t-7.5 291.5zM264 717q-22 -124 4.5 -235t92 -191.5t170 -128t231.5 -47.5 q130 0 249.5 45.5t210.5 125t153.5 188.5t84.5 233q21 124 -5.5 236.5t-92 195t-171 131.5t-233.5 49q-129 0 -248 -47.5t-209.5 -128.5t-153 -191.5t-83.5 -234.5zM737 1639q24 104 77.5 153t115 42t121.5 -58q30 -26 48.5 -40t39 -23.5t33.5 -4t25 24.5t21 55q9 35 40 35 h44q20 0 28.5 -11.5t4.5 -30.5q-24 -104 -77 -153t-113.5 -41.5t-120.5 58.5q-25 21 -41 34t-34.5 23.5t-31 10.5t-24.5 -6.5t-21.5 -25.5t-16.5 -49q-9 -35 -41 -35h-44q-20 0 -28.5 11.5t-4.5 30.5z" />
<glyph unicode="&#xd6;" horiz-adv-x="1654" d="M121 737q36 203 158.5 367.5t308 259t395.5 94.5q153 0 282.5 -63.5t212 -168.5t118 -247t8.5 -293q-37 -203 -160 -365t-308.5 -254t-398.5 -92q-152 0 -280.5 62t-211 165t-117 243.5t-7.5 291.5zM264 717q-22 -124 4.5 -235t92 -191.5t170 -128t231.5 -47.5 q130 0 249.5 45.5t210.5 125t153.5 188.5t84.5 233q21 124 -5.5 236.5t-92 195t-171 131.5t-233.5 49q-129 0 -248 -47.5t-209.5 -128.5t-153 -191.5t-83.5 -234.5zM737 1642l14 82q6 37 44 37h82q21 0 31 -11.5t6 -32.5l-15 -82q-6 -38 -44 -38h-81q-21 0 -31 12t-6 33z M1146 1642l15 82q6 37 44 37h81q21 0 31 -11.5t6 -32.5l-14 -82q-6 -38 -44 -38h-81q-21 0 -31.5 12t-6.5 33z" />
<glyph unicode="&#xd7;" horiz-adv-x="964" d="M118 396q-30 30 2 58l310 267l-214 256q-26 31 5 57l37 32q31 28 57 -4l214 -256l303 262q30 26 58 -2l30 -28q31 -30 -2 -58l-310 -267l214 -256q27 -31 -5 -58l-38 -32q-32 -27 -58 5l-213 255l-304 -261q-30 -26 -58 2z" />
<glyph unicode="&#xd8;" horiz-adv-x="1675" d="M111.5 15q-6.5 15 13.5 35l148 146q-89 107 -124 247.5t-8 293.5q36 203 159 367.5t308 259t396 94.5q237 0 407 -143l100 98q21 21 50 21h53q28 0 34 -16t-14 -35l-147 -145q91 -109 127.5 -252.5t9.5 -299.5q-37 -203 -159.5 -365t-308 -254t-398.5 -92 q-239 0 -410 144l-100 -98q-21 -21 -50 -21h-52q-28 0 -34.5 15zM285 717q-22 -122 2 -230t89 -190l931 916q-134 106 -328 106q-129 0 -248 -47.5t-209.5 -128.5t-153 -191.5t-83.5 -234.5zM452 221q134 -106 330 -106q130 0 250 45.5t211 125t153.5 188.5t84.5 233 q21 123 -4.5 234.5t-92.5 195.5z" />
<glyph unicode="&#xd9;" horiz-adv-x="1269" d="M128 270.5q-14 70.5 1 155.5l170 970q6 38 44 38h61q21 0 31 -12t6 -33l-169 -963q-28 -156 51.5 -233.5t241.5 -77.5q160 0 268.5 80t135.5 231l169 970q6 38 45 38h60q21 0 31 -12t6 -33l-168 -963q-41 -231 -193.5 -341t-377.5 -110q-76 0 -144.5 19.5t-124 57.5 t-93 93t-51.5 125.5zM646 1829q-8 -14 4 -35l108 -189q15 -28 49 -28h46q23 0 32 13t-1 35l-84 187q-13 31 -47 31h-74q-25 0 -33 -14z" />
<glyph unicode="&#xda;" horiz-adv-x="1269" d="M128 270.5q-14 70.5 1 155.5l170 970q6 38 44 38h61q21 0 31 -12t6 -33l-169 -963q-28 -156 51.5 -233.5t241.5 -77.5q160 0 268.5 80t135.5 231l169 970q6 38 44 38h61q21 0 31 -12t6 -33l-168 -963q-41 -231 -193.5 -341t-377.5 -110q-76 0 -144.5 19.5t-124 57.5 t-93 93t-51.5 125.5zM746 1590q6 -13 26 -13h59q26 0 41 18l185 207q14 15 9 28t-26 13h-90q-22 0 -39 -20l-159 -205q-12 -15 -6 -28z" />
<glyph unicode="&#xdb;" horiz-adv-x="1269" d="M128 270.5q-14 70.5 1 155.5l170 970q6 38 44 38h61q21 0 31 -12t6 -33l-169 -963q-28 -156 51.5 -233.5t241.5 -77.5q160 0 268.5 80t135.5 231l169 970q6 38 44 38h61q21 0 31 -12t6 -33l-168 -963q-41 -231 -193.5 -341t-377.5 -110q-76 0 -144.5 19.5t-124 57.5 t-93 93t-51.5 125.5zM556 1590q-6 13 9 28l207 209q16 16 41 16h76h35q27 0 39 -20l133 -207q10 -17 3.5 -28t-26.5 -11h-76q-26 0 -39 22l-99 156l-157 -162q-13 -16 -40 -16h-78q-22 0 -28 13z" />
<glyph unicode="&#xdc;" horiz-adv-x="1269" d="M128 270.5q-14 70.5 1 155.5l170 970q6 38 44 38h60q21 0 31.5 -12t6.5 -33l-169 -963q-28 -156 51.5 -233.5t241.5 -77.5q160 0 268.5 80t135.5 231l169 970q6 38 44 38h61q21 0 31 -12t6 -33l-168 -963q-41 -231 -193.5 -341t-377.5 -110q-76 0 -144.5 19.5t-124 57.5 t-93 93t-51.5 125.5zM546 1642l15 82q6 37 44 37h81q21 0 31 -11.5t6 -32.5l-14 -82q-6 -38 -44 -38h-81q-21 0 -31.5 12t-6.5 33zM956 1642l14 82q6 37 45 37h81q21 0 31 -11.5t6 -32.5l-14 -82q-6 -38 -45 -38h-81q-21 0 -31 12t-6 33z" />
<glyph unicode="&#xdd;" horiz-adv-x="1177" d="M203.5 1420.5q8.5 13.5 32.5 13.5h60q33 0 48 -31l286 -601l501 608q20 24 51 24h72q26 0 33 -15.5t-10 -35.5l-590 -715l-111 -631q-6 -37 -44 -37h-61q-21 0 -31 11.5t-6 32.5l110 626l-339 715q-10 22 -1.5 35.5zM692.5 1590q-6.5 13 5.5 28l160 205q17 20 39 20h90 q21 0 26 -13t-9 -28l-185 -207q-15 -18 -41 -18h-59q-20 0 -26.5 13z" />
<glyph unicode="&#xde;" horiz-adv-x="1187" d="M82 44l237 1352q6 38 44 38h61q21 0 31 -12t6 -33l-42 -242h365q111 0 201 -62.5t132.5 -167.5t21.5 -221q-31 -177 -175 -293t-331 -116h-366l-43 -250q-6 -37 -45 -37h-60q-21 0 -31 11.5t-6 32.5zM291 422h366q121 0 220.5 86.5t121.5 208.5q23 122 -47.5 208.5 t-189.5 86.5h-367z" />
<glyph unicode="&#xdf;" horiz-adv-x="1015" d="M61 44l185 1041q34 190 150 281.5t286 91.5q149 0 233.5 -89.5t59.5 -221.5q-12 -62 -51 -119.5t-79 -92.5t-74.5 -72.5t-39.5 -65.5q-7 -37 16 -80.5t58.5 -87.5t70.5 -93.5t53.5 -117t6.5 -139.5q-24 -137 -129 -213t-283 -74q-45 0 -37 45l8 42q7 36 45 36 q105 0 175 43t86 131q10 55 -11 112t-56 106t-70 97t-56 101t-12 102q5 34 29.5 67.5t57 63t64.5 60.5t58.5 72.5t34.5 86.5q14 87 -35.5 128.5t-138.5 41.5q-45 0 -86.5 -11t-84 -37.5t-73.5 -78.5t-43 -125l-184 -1038q-6 -37 -44 -37h-53q-21 0 -31 11.5t-6 32.5z" />
<glyph unicode="&#xe0;" horiz-adv-x="1021" d="M47 319q14 80 56.5 142t102.5 99t128 56t139 19q94 0 172.5 -38t118.5 -107l31 176q12 68 -0.5 118t-45 78.5t-74 41.5t-93.5 13q-97 0 -173.5 -42.5t-104.5 -126.5q-12 -35 -46 -35h-52q-22 0 -31.5 12t-3.5 33q40 131 157 211t276 80q167 0 261.5 -107.5t64.5 -275.5 l-110 -629q-6 -37 -45 -37h-52q-21 0 -31 11.5t-6 32.5l11 62q-119 -131 -326 -131q-70 0 -134 23t-112 65.5t-70 109t-8 146.5zM182 309q-15 -91 45.5 -149t184.5 -58q123 0 213.5 57.5t105.5 145.5q17 91 -56.5 147t-191.5 56q-130 0 -207.5 -54t-93.5 -145zM458 1420 q8 14 33 14h73q35 0 48 -31l83 -188q10 -22 1 -35t-32 -13h-46q-32 0 -48 29l-108 189q-12 21 -4 35z" />
<glyph unicode="&#xe1;" horiz-adv-x="1021" d="M47 319q14 80 56.5 142t102.5 99t128 56t139 19q94 0 172.5 -38t118.5 -107l31 176q12 68 -0.5 118t-45 78.5t-74 41.5t-93.5 13q-97 0 -173.5 -42.5t-104.5 -126.5q-12 -35 -46 -35h-52q-22 0 -31.5 12t-3.5 33q40 131 157 211t276 80q167 0 261.5 -107.5t64.5 -275.5 l-110 -629q-6 -37 -45 -37h-52q-21 0 -31 11.5t-6 32.5l11 62q-119 -131 -326 -131q-70 0 -134 23t-112 65.5t-70 109t-8 146.5zM182 309q-15 -91 45.5 -149t184.5 -58q123 0 213.5 57.5t105.5 145.5q17 91 -56.5 147t-191.5 56q-130 0 -207.5 -54t-93.5 -145zM557.5 1180 q-6.5 13 5.5 28l160 205q17 21 39 21h90q21 0 25.5 -13t-9.5 -28l-184 -207q-16 -19 -41 -19h-59q-20 0 -26.5 13z" />
<glyph unicode="&#xe2;" horiz-adv-x="1021" d="M47 319q14 80 56.5 142t102.5 99t128 56t139 19q94 0 172.5 -38t118.5 -107l31 176q12 68 -0.5 118t-45 78.5t-74 41.5t-93.5 13q-97 0 -173.5 -42.5t-104.5 -126.5q-12 -35 -46 -35h-52q-22 0 -31.5 12t-3.5 33q40 131 157 211t276 80q167 0 261.5 -107.5t64.5 -275.5 l-110 -629q-6 -37 -45 -37h-52q-21 0 -31 11.5t-6 32.5l11 62q-119 -131 -326 -131q-70 0 -134 23t-112 65.5t-70 109t-8 146.5zM182 309q-15 -91 45.5 -149t184.5 -58q123 0 213.5 57.5t105.5 145.5q17 91 -56.5 147t-191.5 56q-130 0 -207.5 -54t-93.5 -145zM367.5 1180 q-5.5 13 9.5 28l207 209q17 17 41 17h75h35q26 0 39 -21l133 -207q11 -17 4.5 -28t-26.5 -11h-76q-26 0 -39 23l-100 156l-156 -162q-14 -17 -41 -17h-78q-22 0 -27.5 13z" />
<glyph unicode="&#xe3;" horiz-adv-x="1021" d="M47 320q14 80 56.5 142t102.5 99t128 55.5t139 18.5q94 0 172.5 -38t118.5 -107l31 176q23 131 -40 191.5t-173 60.5q-97 0 -173.5 -43t-104.5 -127q-12 -35 -46 -35h-52q-22 0 -31.5 12t-3.5 33q40 131 157 211t276 80q167 0 261.5 -107.5t64.5 -275.5l-110 -629 q-6 -37 -45 -37h-52q-21 0 -31 11.5t-6 32.5l11 62q-119 -131 -326 -131q-70 0 -134 23.5t-112 66t-70 109t-8 146.5zM182 309q-15 -91 45.5 -149t184.5 -58q123 0 213.5 57.5t105.5 145.5q17 91 -56.5 147t-191.5 56q-130 0 -207.5 -54t-93.5 -145zM358 1230 q24 104 77.5 153t115 41.5t121.5 -58.5q30 -26 48.5 -40t39 -23t33.5 -3.5t25 24.5t21 55q9 34 40 34h45q19 0 28 -11t4 -31q-24 -104 -77 -153t-113.5 -41.5t-120.5 58.5q-25 21 -41 34t-34.5 23.5t-31 10.5t-24.5 -6.5t-21.5 -25.5t-16.5 -49q-9 -34 -40 -34h-45 q-20 0 -28.5 11.5t-4.5 30.5z" />
<glyph unicode="&#xe4;" horiz-adv-x="1021" d="M47 319q14 80 56.5 142t102.5 99t128 56t139 19q94 0 172.5 -38t118.5 -107l31 176q12 68 -0.5 118t-45 78.5t-74 41.5t-93.5 13q-97 0 -173.5 -42.5t-104.5 -126.5q-12 -35 -46 -35h-52q-22 0 -31.5 12t-3.5 33q40 131 157 211t276 80q167 0 261.5 -107.5t64.5 -275.5 l-110 -629q-6 -37 -45 -37h-52q-21 0 -31 11.5t-6 32.5l11 62q-119 -131 -326 -131q-70 0 -134 23t-112 65.5t-70 109t-8 146.5zM182 309q-15 -91 45.5 -149t184.5 -58q123 0 213.5 57.5t105.5 145.5q17 91 -56.5 147t-191.5 56q-130 0 -207.5 -54t-93.5 -145zM358 1232 l14 83q6 37 45 37h81q21 0 31 -12t6 -33l-14 -82q-6 -37 -45 -37h-81q-21 0 -31 11.5t-6 32.5zM768 1232l14 83q6 37 44 37h81q21 0 31.5 -12t6.5 -33l-15 -82q-6 -37 -44 -37h-81q-21 0 -31 11.5t-6 32.5z" />
<glyph unicode="&#xe5;" horiz-adv-x="1021" d="M47 319q14 80 56.5 142t102.5 99t128 56t139 19q94 0 172.5 -38t118.5 -107l31 176q12 68 -0.5 118t-45 78.5t-74 41.5t-93.5 13q-97 0 -173.5 -42.5t-104.5 -126.5q-12 -35 -46 -35h-52q-22 0 -31.5 12t-3.5 33q40 131 157 211t276 80q167 0 261.5 -107.5t64.5 -275.5 l-110 -629q-6 -37 -45 -37h-52q-21 0 -31 11.5t-6 32.5l11 62q-119 -131 -326 -131q-70 0 -134 23t-112 65.5t-70 109t-8 146.5zM182 309q-15 -91 45.5 -149t184.5 -58q123 0 213.5 57.5t105.5 145.5q17 91 -56.5 147t-191.5 56q-130 0 -207.5 -54t-93.5 -145zM446 1337 q15 89 83.5 144t168.5 55q91 0 144.5 -61.5t38.5 -149.5q-15 -89 -84 -144t-170 -55q-89 0 -142.5 61.5t-38.5 149.5zM559 1331q-8 -44 14.5 -72t71.5 -28q51 0 84 28t41 72t-15.5 72.5t-74.5 28.5q-49 0 -81 -28t-40 -73z" />
<glyph unicode="&#xe6;" horiz-adv-x="1722" d="M47 315q14 80 56 143t101.5 100.5t128 57t140.5 19.5q92 0 171 -31t125 -83l26 145q23 131 -39 191t-172 60q-97 0 -173.5 -42.5t-104.5 -126.5q-12 -35 -46 -35h-52q-22 0 -31.5 12t-3.5 33q40 131 157 211t276 80q117 0 199.5 -56t110.5 -153q73 99 175.5 154t229.5 55 q138 0 225 -77.5t113.5 -198t1.5 -265.5q-5 -22 -7 -29q-8 -31 -40 -34v-1h-105h-615q-13 -160 54 -249t209 -89q89 0 157.5 39.5t104.5 104.5q16 31 48 31h64q23 0 32.5 -12.5t0.5 -31.5q-58 -119 -173 -190.5t-258 -71.5q-120 0 -203.5 54.5t-124.5 152.5 q-62 -98 -173.5 -152.5t-244.5 -54.5q-104 0 -187 38t-127.5 117t-25.5 185zM182 309q-15 -91 47 -149t189 -58q128 0 213 56.5t100 146.5v2q16 92 -54 146.5t-194 54.5q-132 0 -208.5 -54t-92.5 -145zM917 575h619q19 165 -46 253.5t-188 88.5q-149 0 -246.5 -92.5 t-138.5 -249.5z" />
<glyph unicode="&#xe7;" horiz-adv-x="1175" d="M86 535q40 226 215.5 370t405.5 144q164 0 281 -85t148 -224q4 -21 -6.5 -32.5t-31.5 -11.5h-59q-34 0 -46 35q-31 87 -108.5 136.5t-190.5 49.5q-173 0 -307.5 -113t-165.5 -284q-30 -173 63 -293.5t267 -120.5q114 0 212 52.5t158 141.5q19 28 49 28h57q24 0 33 -14 t-2 -35q-71 -131 -196.5 -210t-279.5 -91l-13 -70q82 -15 126.5 -64t33.5 -112q-7 -41 -28 -71.5t-64.5 -58t-124 -40t-192.5 -7.5q-42 2 -34 41l7 38q6 34 42 32q127 -7 197 13t78 63q7 37 -29 58t-105 25q-41 2 -35 40l20 115q-129 17 -223.5 95.5t-135 200t-16.5 259.5z " />
<glyph unicode="&#xe8;" horiz-adv-x="1169" d="M86 532q40 228 206 372.5t398 144.5q144 0 249.5 -76.5t149 -200.5t19.5 -264q-5 -22 -7 -29q-8 -31 -40 -34v-1h-105h-743q-5 -154 84 -246t244 -92q102 0 185 40.5t133 107.5q19 27 49 27h66q25 0 34.5 -12t-1.5 -30q-74 -121 -202 -192.5t-289 -71.5q-144 0 -252.5 74 t-156.5 202.5t-21 280.5zM233 575h746q10 163 -76 253t-225 90q-167 0 -284.5 -93.5t-160.5 -249.5zM548 1420q8 14 33 14h73q35 0 48 -31l84 -188q10 -22 0.5 -35t-32.5 -13h-46q-32 0 -48 29l-108 189q-12 21 -4 35z" />
<glyph unicode="&#xe9;" horiz-adv-x="1169" d="M86 532q40 228 206 372.5t398 144.5q144 0 249.5 -76.5t149 -200.5t19.5 -264q-5 -22 -7 -29q-8 -31 -40 -34v-1h-105h-743q-5 -154 84 -246t244 -92q102 0 185 40.5t133 107.5q19 27 49 27h66q25 0 34.5 -12t-1.5 -30q-74 -121 -202 -192.5t-289 -71.5q-144 0 -252.5 74 t-156.5 202.5t-21 280.5zM233 575h746q10 163 -76 253t-225 90q-167 0 -284.5 -93.5t-160.5 -249.5zM647.5 1180q-6.5 13 5.5 28l160 205q17 21 39 21h90q21 0 25.5 -13t-9.5 -28l-184 -207q-16 -19 -41 -19h-59q-20 0 -26.5 13z" />
<glyph unicode="&#xea;" horiz-adv-x="1169" d="M86 532q40 228 206 372.5t398 144.5q144 0 249.5 -76.5t149 -200.5t19.5 -264q-5 -22 -7 -29q-8 -31 -40 -34v-1h-105h-743q-5 -154 84 -246t244 -92q102 0 185 40.5t133 107.5q19 27 49 27h66q25 0 34.5 -12t-1.5 -30q-74 -121 -202 -192.5t-289 -71.5q-144 0 -252.5 74 t-156.5 202.5t-21 280.5zM233 575h746q10 163 -76 253t-225 90q-167 0 -284.5 -93.5t-160.5 -249.5zM457.5 1180q-5.5 13 9.5 28l207 209q17 17 41 17h76h34q26 0 39 -21l133 -207q11 -17 4.5 -28t-26.5 -11h-76q-26 0 -39 23l-99 156l-157 -162q-14 -17 -41 -17h-78 q-22 0 -27.5 13z" />
<glyph unicode="&#xeb;" horiz-adv-x="1169" d="M86 532q40 228 206 372.5t398 144.5q144 0 249.5 -76.5t149 -200.5t19.5 -264q-5 -22 -7 -29q-8 -31 -40 -34v-1h-105h-743q-5 -154 84 -246t244 -92q102 0 185 40.5t133 107.5q19 27 49 27h66q25 0 34.5 -12t-1.5 -30q-74 -121 -202 -192.5t-289 -71.5q-144 0 -252.5 74 t-156.5 202.5t-21 280.5zM233 575h746q10 163 -76 253t-225 90q-167 0 -284.5 -93.5t-160.5 -249.5zM448 1232l14 83q6 37 45 37h81q21 0 31 -12t6 -33l-14 -82q-6 -37 -45 -37h-81q-21 0 -31 11.5t-6 32.5zM858 1232l14 83q6 37 44 37h81q21 0 31.5 -12t6.5 -33l-15 -82 q-6 -37 -44 -37h-81q-21 0 -31 11.5t-6 32.5z" />
<glyph unicode="&#xec;" horiz-adv-x="421" d="M61 44l166 943q6 37 44 37h53q21 0 31 -11.5t6 -32.5l-166 -943q-6 -37 -44 -37h-53q-21 0 -31 11.5t-6 32.5zM186 1387l63 -186q12 -34 46 -34h50q22 0 31.5 12t5.5 33l-40 185q-8 37 -45 37h-78q-22 0 -31.5 -13t-1.5 -34z" />
<glyph unicode="&#xed;" horiz-adv-x="421" d="M61 44l166 943q6 37 44 37h53q21 0 31 -11.5t6 -32.5l-166 -943q-6 -37 -44 -37h-53q-21 0 -31 11.5t-6 32.5zM289.5 1181q8.5 -14 32.5 -14h44q31 0 49 27l129 190q14 21 6.5 35.5t-32.5 14.5h-72q-32 0 -48 -29l-105 -189q-12 -21 -3.5 -35z" />
<glyph unicode="&#xee;" horiz-adv-x="421" d="M61 44l166 943q6 37 44 37h53q21 0 31 -11.5t6 -32.5l-166 -943q-6 -37 -44 -37h-53q-21 0 -31 11.5t-6 32.5zM103.5 1182.5q-7.5 15.5 9.5 35.5l160 192q20 24 50 24h56h40q34 0 48 -30l93 -188q11 -21 2.5 -35t-32.5 -14h-66q-34 0 -49 31l-61 126l-109 -133 q-20 -24 -50 -24h-58q-26 0 -33.5 15.5z" />
<glyph unicode="&#xef;" horiz-adv-x="421" d="M61 44l166 943q6 37 44 37h53q21 0 31 -11.5t6 -32.5l-166 -943q-6 -37 -44 -37h-53q-21 0 -31 11.5t-6 32.5zM112 1232l15 83q6 37 44 37h81q21 0 31 -12t6 -33l-14 -82q-6 -37 -44 -37h-82q-21 0 -31 11.5t-6 32.5zM399 1232l14 83q6 37 45 37h81q21 0 31 -12t6 -33 l-14 -82q-6 -37 -45 -37h-81q-21 0 -31 11.5t-6 32.5z" />
<glyph unicode="&#xf0;" horiz-adv-x="1202" d="M80 502q36 207 190 325.5t355 118.5q113 0 196 -44l-155 275l-218 -122q-23 -13 -37 -4t-9 34l6 32q6 31 32 45l179 99l-69 124q-12 21 -4 35t32 14h51q33 0 49 -29l49 -84l191 106q23 13 37 4t9 -34l-6 -32q-6 -31 -32 -45l-151 -83l276 -475q36 -62 53 -151.5t4 -170.5 q-27 -147 -112 -254t-206 -159t-264 -52q-97 0 -187 40.5t-154.5 109t-94.5 168t-10 209.5zM215 492q-20 -110 21 -199.5t124 -138t189 -48.5q159 0 276.5 90.5t147.5 254.5q23 140 -29 231q-36 60 -110 102.5t-195 42.5q-168 0 -282.5 -87.5t-141.5 -247.5z" />
<glyph unicode="&#xf1;" horiz-adv-x="1060" d="M61 44l166 943q6 37 44 37h53q21 0 31 -11.5t6 -32.5l-14 -80q132 149 331 149q71 0 131.5 -26.5t101.5 -74t58 -120t2 -158.5l-112 -633q-6 -37 -45 -37h-52q-21 0 -31 11.5t-6 32.5l111 626q21 123 -33 185.5t-162 62.5q-54 0 -104.5 -17t-99.5 -53t-87 -100.5 t-57 -150.5l-98 -560q-6 -37 -44 -37h-53q-21 0 -31 11.5t-6 32.5zM383 1230q24 104 77.5 153t114.5 41.5t121 -58.5q30 -26 48.5 -40t39 -23t33.5 -3.5t25 24.5t21 55q9 34 41 34h44q20 0 28.5 -11.5t4.5 -30.5q-24 -104 -77 -153t-113.5 -41.5t-120.5 58.5q-25 21 -41 34 t-34.5 23.5t-31 10.5t-24.5 -6.5t-21.5 -25.5t-16.5 -49q-9 -34 -41 -34h-44q-20 0 -28.5 11.5t-4.5 30.5z" />
<glyph unicode="&#xf2;" horiz-adv-x="1243" d="M84 522q18 102 64 189.5t109.5 148.5t140.5 104.5t158.5 64t162.5 20.5q100 0 188.5 -38t152.5 -105.5t92 -172.5t7 -229q-22 -129 -84.5 -232.5t-149 -167t-185.5 -96.5t-201 -33t-193 37t-158 104.5t-96.5 173.5t-7.5 232zM219 512q-16 -98 4.5 -177t69 -128.5 t115 -75.5t143.5 -25q105 0 202.5 44.5t174 140.5t98.5 227q17 95 -3.5 172.5t-69.5 126.5t-115.5 75t-143.5 26q-104 -1 -201 -45t-174 -138.5t-100 -222.5zM562 1420q-8 -14 4 -35l108 -189q16 -29 49 -29h46q23 0 32 13t-1 35l-84 188q-13 31 -47 31h-74q-25 0 -33 -14z " />
<glyph unicode="&#xf3;" horiz-adv-x="1243" d="M84 522q18 102 64 189.5t109.5 148.5t140.5 104.5t158.5 64t162.5 20.5q100 0 188.5 -38t152.5 -105.5t92 -172.5t7 -229q-22 -129 -84.5 -232.5t-149 -167t-185.5 -96.5t-201 -33t-193 37t-158 104.5t-96.5 173.5t-7.5 232zM219 512q-16 -98 4.5 -177t69 -128.5 t115 -75.5t143.5 -25q105 0 202.5 44.5t174 140.5t98.5 227q17 95 -3.5 172.5t-69.5 126.5t-115.5 75t-143.5 26q-104 -1 -201 -45t-174 -138.5t-100 -222.5zM662 1180q6 -13 26 -13h60q24 0 40 19l185 207q14 15 9 28t-26 13h-90q-22 0 -39 -21l-159 -205q-12 -15 -6 -28z " />
<glyph unicode="&#xf4;" horiz-adv-x="1243" d="M84 522q18 102 64 189.5t109.5 148.5t140.5 104.5t158.5 64t162.5 20.5q100 0 188.5 -38t152.5 -105.5t92 -172.5t7 -229q-22 -129 -84.5 -232.5t-149 -167t-185.5 -96.5t-201 -33t-193 37t-158 104.5t-96.5 173.5t-7.5 232zM219 512q-16 -98 4.5 -177t69 -128.5 t115 -75.5t143.5 -25q105 0 202.5 44.5t174 140.5t98.5 227q17 95 -3.5 172.5t-69.5 126.5t-115.5 75t-143.5 26q-104 -1 -201 -45t-174 -138.5t-100 -222.5zM472 1180q-6 13 9 28l207 209q17 17 41 17h76h35q26 0 39 -21l133 -207q10 -17 3.5 -28t-26.5 -11h-76 q-26 0 -39 23l-99 156l-157 -162q-14 -17 -40 -17h-78q-22 0 -28 13z" />
<glyph unicode="&#xf5;" horiz-adv-x="1243" d="M84 522q18 102 64 189.5t109.5 148.5t140.5 104.5t158.5 64t162.5 20.5q100 0 188.5 -38t152.5 -105.5t92 -172.5t7 -229q-22 -129 -84.5 -232.5t-149 -167t-185.5 -96.5t-201 -33t-193 37t-158 104.5t-96.5 173.5t-7.5 232zM219 512q-16 -98 4.5 -177t69 -128t115 -75 t143.5 -25q78 0 154 26.5t142 76t114 129.5t65 179q17 95 -3.5 172.5t-69.5 126.5t-115.5 75t-143.5 26q-104 -1 -201 -45t-174 -138.5t-100 -222.5zM463 1230q24 104 77.5 153t114.5 41.5t121 -58.5q30 -26 48.5 -40t39 -23t33.5 -3.5t25 24.5t21 55q9 34 41 34h44 q20 0 28.5 -11.5t4.5 -30.5q-24 -104 -77 -153t-113.5 -41.5t-120.5 58.5q-25 21 -41 34t-34.5 23.5t-31 10.5t-24.5 -6.5t-21.5 -25.5t-16.5 -49q-9 -34 -41 -34h-44q-20 0 -28.5 11.5t-4.5 30.5z" />
<glyph unicode="&#xf6;" horiz-adv-x="1243" d="M84 522q18 102 64 189.5t109.5 148.5t140.5 104.5t158.5 64t162.5 20.5q100 0 188.5 -38t152.5 -105.5t92 -172.5t7 -229q-22 -129 -84.5 -232.5t-149 -167t-185.5 -96.5t-201 -33t-193 37t-158 104.5t-96.5 173.5t-7.5 232zM219 512q-16 -98 4.5 -177t69 -128.5 t115 -75.5t143.5 -25q105 0 202.5 44.5t174 140.5t98.5 227q17 95 -3.5 172.5t-69.5 126.5t-115.5 75t-143.5 26q-104 -1 -201 -45t-174 -138.5t-100 -222.5zM462 1232l15 83q6 37 44 37h81q21 0 31 -12t6 -33l-14 -82q-6 -37 -44 -37h-81q-21 0 -31.5 11.5t-6.5 32.5z M872 1232l14 83q6 37 45 37h81q21 0 31 -12t6 -33l-14 -82q-6 -37 -45 -37h-81q-21 0 -31 11.5t-6 32.5z" />
<glyph unicode="&#xf7;" horiz-adv-x="1187" d="M155 696l9 49q6 37 44 37h859q21 0 31 -11.5t6 -32.5l-8 -50q-6 -37 -44 -37h-860q-21 0 -31 12t-6 33zM451 338q7 47 44 77.5t87 30.5q46 0 73.5 -34.5t20.5 -81.5q-9 -48 -46 -78.5t-87 -30.5q-46 0 -73.5 35t-18.5 82zM586 1104q7 47 44 77.5t87 30.5q46 0 73.5 -34.5 t20.5 -81.5q-9 -48 -46 -78.5t-87 -30.5q-46 0 -73.5 35t-18.5 82z" />
<glyph unicode="&#xf8;" horiz-adv-x="1243" d="M71.5 11q-4.5 11 9.5 24l95 95q-133 155 -92 392q18 102 64 189.5t109.5 148.5t140.5 104.5t158.5 64t162.5 20.5q165 0 288 -95l56 55q15 15 35 15h68q19 0 24 -11t-9 -24l-104 -104q122 -153 82 -381q-22 -129 -84.5 -232.5t-149 -167t-185.5 -96.5t-201 -33 q-164 0 -290 89l-50 -49q-15 -15 -35 -15h-69q-19 0 -23.5 11zM219 512q-29 -175 56 -284l632 627q-89 62 -213 62q-77 -1 -152.5 -27t-141.5 -75t-114.5 -127.5t-66.5 -175.5zM347 162q90 -58 204 -56q105 0 202.5 44.5t174 140.5t98.5 227q28 160 -49 269z" />
<glyph unicode="&#xf9;" horiz-adv-x="1060" d="M92 354l110 633q6 37 45 37h52q21 0 31 -11.5t6 -32.5l-109 -626q-21 -118 33 -183t160 -65q54 0 106 18t100 55t85.5 101t55.5 147l99 560q6 37 44 37h53q21 0 31 -11.5t6 -32.5l-166 -943q-6 -37 -44 -37h-53q-21 0 -31 11.5t-6 32.5l14 80q-121 -149 -321 -149 q-72 0 -133.5 26.5t-104.5 74t-61 120t-2 158.5zM451.5 1420q7.5 14 32.5 14h74q35 0 48 -31l83 -188q10 -22 1 -35t-32 -13h-46q-33 0 -49 29l-107 189q-12 21 -4.5 35z" />
<glyph unicode="&#xfa;" horiz-adv-x="1060" d="M92 354l110 633q6 37 45 37h52q21 0 31 -11.5t6 -32.5l-109 -626q-21 -118 33 -183t160 -65q54 0 106 18t100 55t85.5 101t55.5 147l99 560q6 37 44 37h53q21 0 31 -11.5t6 -32.5l-166 -943q-6 -37 -44 -37h-53q-21 0 -31 11.5t-6 32.5l14 80q-121 -149 -321 -149 q-72 0 -133.5 26.5t-104.5 74t-61 120t-2 158.5zM551.5 1180q-6.5 13 5.5 28l160 205q17 21 39 21h90q21 0 25.5 -13t-9.5 -28l-184 -207q-16 -19 -41 -19h-59q-20 0 -26.5 13z" />
<glyph unicode="&#xfb;" horiz-adv-x="1060" d="M92 354l110 633q6 37 45 37h52q21 0 31 -11.5t6 -32.5l-109 -626q-21 -118 33 -183t160 -65q54 0 106 18t100 55t85.5 101t55.5 147l99 560q6 37 44 37h53q21 0 31 -11.5t6 -32.5l-166 -943q-6 -37 -44 -37h-53q-21 0 -31 11.5t-6 32.5l14 80q-121 -149 -321 -149 q-72 0 -133.5 26.5t-104.5 74t-61 120t-2 158.5zM361.5 1180q-5.5 13 9.5 28l207 209q17 17 40 17h76h35q26 0 39 -21l133 -207q11 -17 4.5 -28t-26.5 -11h-76q-26 0 -39 23l-100 156l-156 -162q-14 -17 -41 -17h-78q-22 0 -27.5 13z" />
<glyph unicode="&#xfc;" horiz-adv-x="1060" d="M92 354l110 633q6 37 45 37h52q21 0 31 -11.5t6 -32.5l-109 -626q-21 -118 33 -183t160 -65q54 0 106 18t100 55t85.5 101t55.5 147l99 560q6 37 44 37h53q21 0 31 -11.5t6 -32.5l-166 -943q-6 -37 -44 -37h-53q-21 0 -31 11.5t-6 32.5l14 80q-121 -149 -321 -149 q-72 0 -133.5 26.5t-104.5 74t-61 120t-2 158.5zM352 1232l14 83q6 37 44 37h82q21 0 31 -12t6 -33l-15 -82q-6 -37 -44 -37h-81q-21 0 -31 11.5t-6 32.5zM761 1232l15 83q6 37 44 37h81q21 0 31 -12t6 -33l-14 -82q-6 -37 -44 -37h-81q-21 0 -31.5 11.5t-6.5 32.5z" />
<glyph unicode="&#xfd;" horiz-adv-x="962" d="M121 979q-5 21 4.5 33t31.5 12h52q36 0 45 -36l186 -798l429 805q16 29 49 29h59q24 0 32 -14t-3 -35l-720 -1355q-16 -30 -49 -30h-59q-24 0 -32 14t3 35l197 373zM520.5 1180q6.5 -13 26.5 -13h59q25 0 41 19l184 207q14 15 9.5 28t-25.5 13h-90q-21 0 -39 -21 l-160 -205q-12 -15 -5.5 -28z" />
<glyph unicode="&#xfe;" horiz-adv-x="1302" d="M-11 -365l310 1762q6 37 44 37h52q21 0 31.5 -12t6.5 -33l-97 -552q82 100 197.5 156t252.5 56q103 0 192.5 -42.5t149.5 -114t86 -172.5t7 -212q-40 -230 -214 -381.5t-409 -151.5q-127 0 -225 64.5t-147 174.5l-103 -586q-6 -38 -44 -38h-52q-21 0 -31.5 12t-6.5 33z M278 512q-29 -171 66.5 -288t265.5 -117q176 0 310.5 121t164.5 294q31 170 -64.5 283t-266.5 113q-170 0 -307.5 -117.5t-168.5 -288.5z" />
<glyph unicode="&#xff;" horiz-adv-x="962" d="M121 979q-5 21 4.5 33t31.5 12h52q36 0 45 -36l186 -798l429 805q16 29 49 29h59q24 0 32 -14t-3 -35l-720 -1355q-16 -30 -49 -30h-59q-24 0 -32 14t3 35l197 373zM321 1232l15 83q6 37 44 37h81q21 0 31 -12t6 -33l-14 -82q-6 -37 -44 -37h-82q-21 0 -31 11.5t-6 32.5z M731 1232l14 83q6 37 44 37h82q21 0 31 -12t6 -33l-15 -82q-6 -37 -44 -37h-81q-21 0 -31 11.5t-6 32.5z" />
<glyph unicode="&#x152;" horiz-adv-x="1875" d="M121 727q36 204 156 370.5t303 263.5t393 97q101 0 184 -24h143h601q21 0 31 -12t6 -33l-9 -53q-6 -38 -44 -38h-608l-90 -507h570q21 0 31 -12t6 -33l-10 -54q-6 -37 -44 -37h-576l-92 -520h611q21 0 31 -11.5t6 -32.5l-9 -54q-6 -37 -45 -37h-699h-62q-95 -25 -194 -25 q-150 0 -274 60t-202 161.5t-109.5 240.5t-4.5 290zM264 717q-22 -124 1.5 -234.5t84 -191.5t160.5 -128.5t225 -47.5q101 0 196 30l201 1144q-83 30 -184 30q-125 0 -242 -47.5t-206.5 -128t-152 -191.5t-83.5 -235z" />
<glyph unicode="&#x153;" horiz-adv-x="2109" d="M84 522q40 229 217.5 378t415.5 149q148 0 258 -80t154 -213q77 137 206.5 215t296.5 78q113 0 202 -45t141 -120t71.5 -173t1.5 -203q-5 -22 -7 -29q-8 -31 -40 -34v-1h-105h-742q-7 -156 81.5 -246.5t245.5 -90.5q100 0 185.5 41t136.5 107q19 26 49 26h62 q25 0 34 -12.5t-2 -30.5q-74 -119 -205 -191t-289 -72q-152 0 -256 78.5t-142 211.5q-84 -134 -222 -212t-304 -78q-149 0 -260.5 73t-160.5 199t-23 275zM219 512q-30 -173 62.5 -289t269.5 -116q170 0 308 117.5t167 287.5q31 170 -65.5 288t-266.5 118 q-177 0 -310.5 -116.5t-164.5 -289.5zM1176 576h744q11 163 -74 252.5t-224 89.5q-159 0 -279.5 -94.5t-166.5 -247.5z" />
<glyph unicode="&#x178;" horiz-adv-x="1177" d="M203.5 1420.5q8.5 13.5 32.5 13.5h60q33 0 48 -31l286 -601l501 608q20 24 51 24h72q26 0 33 -15.5t-10 -35.5l-590 -715l-111 -631q-6 -37 -44 -37h-61q-21 0 -31 11.5t-6 32.5l110 626l-339 715q-10 22 -1.5 35.5zM493 1642l15 82q6 37 44 37h81q21 0 31 -11.5t6 -32.5 l-14 -82q-6 -38 -44 -38h-82q-21 0 -31 12t-6 33zM903 1642l14 82q6 37 44 37h82q21 0 31 -11.5t6 -32.5l-15 -82q-6 -38 -44 -38h-81q-21 0 -31 12t-6 33z" />
<glyph unicode="&#x2c6;" horiz-adv-x="675" d="M185.5 1180q-5.5 13 9.5 28l206 209q17 17 41 17h76h35q26 0 39 -21l133 -207q10 -17 3.5 -28t-26.5 -11h-75q-26 0 -39 23l-100 156l-156 -162q-14 -17 -41 -17h-78q-22 0 -27.5 13z" />
<glyph unicode="&#x2dc;" horiz-adv-x="655" d="M168 1230q24 104 77.5 153t114.5 41.5t121 -58.5q30 -26 48.5 -40t39 -23t33.5 -3.5t25 24.5t21 55q9 34 41 34h44q20 0 28.5 -11.5t4.5 -30.5q-24 -104 -77 -153t-113.5 -41.5t-120.5 58.5q-25 21 -41 34t-34.5 23.5t-31 10.5t-24.5 -6.5t-21.5 -25.5t-16.5 -49 q-9 -34 -41 -34h-44q-20 0 -28.5 11.5t-4.5 30.5z" />
<glyph unicode="&#x2000;" horiz-adv-x="973" />
<glyph unicode="&#x2001;" horiz-adv-x="1946" />
<glyph unicode="&#x2002;" horiz-adv-x="973" />
<glyph unicode="&#x2003;" horiz-adv-x="1946" />
<glyph unicode="&#x2004;" horiz-adv-x="648" />
<glyph unicode="&#x2005;" horiz-adv-x="486" />
<glyph unicode="&#x2006;" horiz-adv-x="324" />
<glyph unicode="&#x2007;" horiz-adv-x="324" />
<glyph unicode="&#x2008;" horiz-adv-x="243" />
<glyph unicode="&#x2009;" horiz-adv-x="389" />
<glyph unicode="&#x200a;" horiz-adv-x="108" />
<glyph unicode="&#x2010;" d="M182 612l8 49q6 37 44 37h655q21 0 31 -11.5t6 -32.5l-8 -50q-6 -37 -44 -37h-655q-21 0 -31 12t-6 33z" />
<glyph unicode="&#x2011;" d="M182 612l8 49q6 37 44 37h655q21 0 31 -11.5t6 -32.5l-8 -50q-6 -37 -44 -37h-655q-21 0 -31 12t-6 33z" />
<glyph unicode="&#x2012;" d="M182 612l8 49q6 37 44 37h655q21 0 31 -11.5t6 -32.5l-8 -50q-6 -37 -44 -37h-655q-21 0 -31 12t-6 33z" />
<glyph unicode="&#x2013;" horiz-adv-x="1329" d="M182 612l8 49q6 37 44 37h919q21 0 31 -11.5t6 -32.5l-8 -50q-6 -37 -44 -37h-919q-21 0 -31 12t-6 33z" />
<glyph unicode="&#x2014;" horiz-adv-x="1533" d="M182 612l8 49q6 37 44 37h1124q21 0 31 -11.5t6 -32.5l-8 -50q-6 -37 -44 -37h-1124q-21 0 -31 12t-6 33z" />
<glyph unicode="&#x2018;" horiz-adv-x="471" d="M235 1038l25 140q35 201 180 253q22 8 34.5 -0.5t9.5 -27.5l-1 -9q-5 -28 -36 -43q-72 -35 -95 -173h47q21 0 31.5 -12t6.5 -33l-19 -103q-6 -37 -44 -37h-102q-21 0 -31 12t-6 33z" />
<glyph unicode="&#x2019;" horiz-adv-x="473" d="M234 1024l2 9q5 27 36 43q72 35 95 173h-48q-21 0 -31 12t-6 33l19 103q6 37 44 37h101q21 0 31.5 -12t6.5 -33l-25 -140q-35 -201 -180 -253q-22 -8 -35 0.5t-10 27.5z" />
<glyph unicode="&#x201a;" horiz-adv-x="471" d="M13 -225l2 8q5 29 36 44q71 35 94 173h-47q-21 0 -31 11.5t-6 32.5l18 103q6 37 45 37h101q21 0 31 -11.5t6 -32.5l-24 -140q-35 -201 -181 -253q-22 -8 -34.5 0.5t-9.5 27.5z" />
<glyph unicode="&#x201c;" horiz-adv-x="757" d="M235 1038l25 140q35 201 180 253q22 8 34.5 -0.5t9.5 -27.5l-1 -9q-5 -28 -36 -43q-72 -35 -95 -173h47q21 0 31.5 -12t6.5 -33l-19 -103q-6 -37 -44 -37h-102q-21 0 -31 12t-6 33zM522 1038l25 140q35 201 180 253q22 8 34.5 -0.5t9.5 -27.5l-1 -9q-5 -27 -37 -43 q-71 -35 -94 -173h47q21 0 31 -12t6 -33l-18 -103q-6 -37 -44 -37h-102q-21 0 -31 12t-6 33z" />
<glyph unicode="&#x201d;" horiz-adv-x="759" d="M234 1024l2 9q5 27 36 43q72 35 95 173h-48q-21 0 -31 12t-6 33l19 103q6 37 44 37h101q21 0 31.5 -12t6.5 -33l-25 -140q-35 -201 -180 -253q-22 -8 -35 0.5t-10 27.5zM521 1024l2 9q5 27 36 43q71 35 94 173h-47q-21 0 -31 12t-6 33l18 103q6 37 45 37h101q21 0 31 -12 t6 -33l-25 -140q-35 -201 -180 -253q-22 -8 -34.5 0.5t-9.5 27.5z" />
<glyph unicode="&#x201e;" horiz-adv-x="757" d="M13 -225l2 8q5 29 36 44q71 35 94 173h-47q-21 0 -31 11.5t-6 32.5l18 103q6 37 45 37h101q21 0 31 -11.5t6 -32.5l-24 -140q-35 -201 -181 -253q-22 -8 -34.5 0.5t-9.5 27.5zM300 -225l2 8q5 29 36 44q71 35 94 173h-47q-21 0 -31 11.5t-6 32.5l18 103q6 37 44 37h102 q21 0 31 -11.5t6 -32.5l-25 -140q-35 -201 -180 -253q-22 -8 -34.5 0.5t-9.5 27.5z" />
<glyph unicode="&#x2022;" horiz-adv-x="614" d="M141 727q15 85 83 140t157 55q84 0 132.5 -63t33.5 -148q-15 -86 -82.5 -142.5t-155.5 -56.5q-85 0 -134 64t-34 151z" />
<glyph unicode="&#x2026;" horiz-adv-x="1249" d="M61 44l18 103q6 37 45 37h101q21 0 31 -11.5t6 -32.5l-18 -103q-6 -37 -44 -37h-102q-21 0 -31 11.5t-6 32.5zM450 44l19 103q6 37 44 37h101q21 0 31.5 -11.5t6.5 -32.5l-19 -103q-6 -37 -44 -37h-102q-21 0 -31 11.5t-6 32.5zM839 44l19 103q6 37 44 37h102 q21 0 31 -11.5t6 -32.5l-19 -103q-6 -37 -44 -37h-101q-21 0 -31.5 11.5t-6.5 32.5z" />
<glyph unicode="&#x202f;" horiz-adv-x="389" />
<glyph unicode="&#x2039;" horiz-adv-x="690" d="M177 603q-13 30 7 56l252 318q18 24 50 24h83q26 0 33.5 -15t-8.5 -35l-258 -328l136 -311q10 -22 1 -35t-32 -13h-81q-35 0 -48 31z" />
<glyph unicode="&#x203a;" horiz-adv-x="692" d="M131 279q-7 15 9 35l257 329l-136 311q-10 22 -1 34.5t32 12.5h82q34 0 47 -31l135 -307q13 -30 -7 -56l-251 -319q-18 -24 -50 -24h-84q-26 0 -33 15z" />
<glyph unicode="&#x205f;" horiz-adv-x="486" />
<glyph unicode="&#x20ac;" horiz-adv-x="1269" d="M34 589l7 37q6 38 44 38h106q5 40 10 65q3 19 11 57h-97q-21 0 -31.5 12t-6.5 33l7 37q6 37 44 37h115q81 260 244.5 406.5t386.5 146.5q190 0 299 -119.5t113 -326.5q0 -41 -41 -41h-63q-39 0 -41 41q-6 148 -81.5 227.5t-209.5 79.5q-155 0 -273.5 -107t-185.5 -307 h473q21 0 31.5 -11.5t6.5 -32.5l-7 -37q-6 -38 -44 -38h-493q-11 -49 -14 -69q-6 -36 -8 -53h485q21 0 31.5 -12t6.5 -33l-7 -37q-6 -37 -44 -37h-483q-8 -207 73 -318.5t239 -111.5q139 0 245.5 85.5t163.5 244.5q12 34 46 34h61q23 0 32 -12.5t2 -34.5 q-75 -216 -222 -336.5t-353 -120.5q-213 0 -326 154.5t-105 415.5h-109q-21 0 -31.5 11.5t-6.5 32.5z" />
<glyph unicode="&#x2122;" horiz-adv-x="950" d="M235 1380l6 35q3 19 22 19h181h95q22 0 19 -22l-6 -35q-3 -19 -22 -19h-99l-55 -315q-3 -19 -22 -19h-41q-21 0 -18 22l54 312h-95q-22 0 -19 22zM543 1046l64 369q3 19 22 19h41h15q17 0 23 -17l68 -219l147 222q9 14 25 14h42h18q21 0 18 -23l-64 -368q-3 -19 -22 -19 h-41q-22 0 -19 22l43 242l-107 -161q-9 -13 -25 -13h-48q-18 0 -24 17l-52 160l-43 -248q-3 -19 -22 -19h-41q-21 0 -18 22z" />
<glyph unicode="&#x25fc;" horiz-adv-x="1024" d="M0 0v1024h1024v-1024h-1024z" />
<glyph unicode="&#xfb03;" horiz-adv-x="1599" d="M116 937l9 50q6 37 44 37h137l7 41q34 195 151.5 296t304.5 99q44 0 36 -45l-9 -50q-7 -36 -46 -36q-129 2 -203 -62.5t-98 -201.5l-8 -41h294h123l10 61q67 394 500 394q74 0 153 -16q39 -8 33 -48l-7 -44q-6 -39 -47 -33q-77 10 -154 10q-154 0 -235 -59.5t-107 -203.5 l-11 -61h480h28q21 0 31 -11.5t6 -32.5l-165 -943q-6 -37 -45 -37h-52q-21 0 -31 11.5t-6 32.5l149 849h-418l-150 -856q-6 -37 -45 -37h-52q-21 0 -31 11.5t-6 32.5l149 849h-173h-244l-151 -856q-6 -37 -45 -37h-52q-21 0 -31 11.5t-6 32.5l150 849h-130q-21 0 -31 11.5 t-6 32.5z" />
<glyph unicode="&#xfb04;" horiz-adv-x="1599" d="M116 937l9 50q6 37 44 37h137l7 41q34 195 151 296t304 99q21 0 31 -12t6 -33l-9 -50q-7 -36 -46 -36q-129 2 -203 -62.5t-98 -201.5l-8 -41h294h123l10 61q67 394 500 394q104 0 214 -18q41 -6 33 -47l-242 -1377q-6 -37 -45 -37h-52q-21 0 -31 11.5t-6 32.5l229 1306 q-61 6 -120 6q-152 0 -235 -63t-109 -208l-11 -61h189q21 0 31 -11.5t6 -32.5l-8 -50q-6 -37 -44 -37h-197l-150 -856q-6 -37 -45 -37h-52q-21 0 -31 11.5t-6 32.5l149 849h-173h-244l-151 -856q-6 -37 -45 -37h-52q-21 0 -31 11.5t-6 32.5l150 849h-130q-21 0 -31 11.5 t-6 32.5z" />
</font>
</defs>
</svg>
