<?xml version="1.0" encoding="utf-8"?>
<!-- Generator: Adobe Illustrator 18.0.0, SVG Export Plug-In . SVG Version: 6.00 Build 0)  -->
<!DOCTYPE svg PUBLIC "-//W3C//DTD SVG 1.1//EN" "http://www.w3.org/Graphics/SVG/1.1/DTD/svg11.dtd">
<svg version="1.1" id="Layer_1" xmlns="http://www.w3.org/2000/svg" xmlns:xlink="http://www.w3.org/1999/xlink" x="0px" y="0px"
	 viewBox="0 0 175.8 104" enable-background="new 0 0 175.8 104" xml:space="preserve">
<g>
	<path fill="#231F20" d="M107,63.1H69.6c-5.7,0-11-1.5-15.4-4.5c-6.9-4.5-10.4-11.1-10.4-19.3c0-8.2,3.4-14.5,10.1-18.6
		c4.1-2.5,9.1-3.9,14.3-3.9h10.9c3,0,6.4-2.4,6.4-5.6V8.6H68.3c-6.8,0-13.2,1.8-18.6,5.1c-6.4,3.9-14.1,11.6-14.1,25.6
		c0,11.1,4.9,20.1,14.1,26.2c5.8,3.8,12.7,5.8,19.9,5.8H107V63.1z M122.2,0.5l-21.3,0c-2.8-0.1-5.8,2.7-5.8,5.1l0,3l21.4,0l0,62.8
		l5.7,0L122.2,0.5z M128.3,71.4h2.6V0.5h-2.6V71.4z"/>
	<g>
		<path d="M14.5,99.5c-1,2.7-3.7,4.5-6.8,4.5c-4.4,0-7.6-3.3-7.6-7.6c0-4.3,3.3-7.6,7.6-7.6c3.2,0,5.8,1.8,6.8,4.5
			c0.2,0.4-0.1,0.7-0.5,0.7h-1.4c-0.3,0-0.6-0.2-0.7-0.4c-0.8-1.4-2.3-2.3-4.2-2.3c-2.9,0-5.1,2.2-5.1,5.1c0,2.9,2.2,5.1,5.1,5.1
			c1.8,0,3.4-0.9,4.2-2.3c0.2-0.3,0.4-0.5,0.7-0.5H14C14.4,98.8,14.6,99.1,14.5,99.5z"/>
		<path d="M23.1,89.8L23.1,89.8c0,1-0.8,1.8-1.8,1.8h-1V103c0,0.3-0.3,0.6-0.6,0.6h-1.3c-0.3,0-0.6-0.3-0.6-0.6V91.6h-2.2
			c-0.3,0-0.6-0.3-0.6-0.6l0,0c0-1,0.8-1.8,1.8-1.8h1v-4c0-0.3,0.3-0.6,0.6-0.6h1.3c0.3,0,0.6,0.3,0.6,0.6v4h2.2
			C22.8,89.2,23.1,89.4,23.1,89.8z"/>
		<path d="M49.3,93.9v9.2c0,0.4-0.2,0.6-0.6,0.6h-1.3c-0.4,0-0.6-0.2-0.6-0.6V94c0-2-1.2-2.8-2.5-2.8c-1.3,0-3.1,0.8-3.1,3.6v8.2
			c0,0.4-0.2,0.6-0.6,0.6h-1.3c-0.4,0-0.6-0.2-0.6-0.6V94c0-2-1.2-2.8-2.5-2.8c-1.3,0-3.1,0.8-3.1,3.6v8.2c0,0.4-0.2,0.6-0.6,0.6
			h-1.3c-0.4,0-0.6-0.2-0.6-0.6V89.8c0-0.4,0.2-0.6,0.6-0.6h1.3c0.4,0,0.6,0.2,0.6,0.6v1c1-1.4,2.4-2,3.7-2c1.6,0,3,0.8,3.8,2.3
			c1.1-1.7,2.6-2.3,4.2-2.3C47.2,88.8,49.3,90.6,49.3,93.9z"/>
		<path d="M62.3,89.2c0.4,0,0.6,0.2,0.6,0.6V103c0,0.4-0.2,0.6-0.6,0.6H61c-0.4,0-0.6-0.2-0.6-0.6v-1.2c-1,1.6-2.5,2.1-4.3,2.1
			c-2.7,0-4.9-2-4.9-5.5v-8.8c0-0.4,0.2-0.6,0.6-0.6h1.3c0.4,0,0.6,0.2,0.6,0.6v8.7c0,2.1,1.3,3.2,3,3.2c1.8,0,3.6-1.1,3.6-4.2v-7.6
			c0-0.4,0.2-0.6,0.6-0.6H62.3L62.3,89.2z"/>
		<path d="M76,99.7c0,2.6-2.3,4.3-5.5,4.3c-3,0-5.2-1.5-5.5-4.1c0-0.4,0.2-0.6,0.6-0.6h1.3c0.4,0,0.5,0.2,0.7,0.6
			c0.3,1.3,1.5,1.8,3,1.8c1.7,0,3-0.6,3-2c0-3.3-8.3-1.2-8.3-6.6c0-2.6,2.3-4.3,5.3-4.3c2.7,0,4.9,1.5,5.2,4.1
			c0,0.4-0.2,0.6-0.6,0.6h-1.3c-0.4,0-0.5-0.2-0.7-0.6c-0.2-1.3-1.5-1.8-2.7-1.8c-1.4,0-2.8,0.6-2.8,2C67.7,96.4,76,94.2,76,99.7z"
			/>
		<path d="M78,85.9v-2c0-0.4,0.2-0.6,0.6-0.6h1.3c0.4,0,0.6,0.2,0.6,0.6v2c0,0.4-0.2,0.6-0.6,0.6h-1.3C78.2,86.6,78,86.3,78,85.9z
			 M78,103V89.8c0-0.4,0.2-0.6,0.6-0.6h1.3c0.4,0,0.6,0.2,0.6,0.6V103c0,0.4-0.2,0.6-0.6,0.6h-1.3C78.2,103.7,78,103.4,78,103z"/>
		<path d="M96.8,99.5c-1,2.7-3.7,4.5-6.8,4.5c-4.4,0-7.6-3.3-7.6-7.6c0-4.3,3.3-7.6,7.6-7.6c3.2,0,5.8,1.8,6.8,4.5
			c0.2,0.4-0.1,0.7-0.5,0.7h-1.4c-0.3,0-0.6-0.2-0.7-0.4c-0.8-1.4-2.3-2.3-4.2-2.3c-2.9,0-5.1,2.2-5.1,5.1c0,2.9,2.2,5.1,5.1,5.1
			c1.8,0,3.4-0.9,4.2-2.3c0.2-0.3,0.4-0.5,0.7-0.5h1.4C96.8,98.8,97,99.1,96.8,99.5z"/>
		<path d="M115.1,99.7c0,2.6-2.3,4.3-5.5,4.3c-3,0-5.2-1.5-5.5-4.1c0-0.4,0.2-0.6,0.6-0.6h1.3c0.4,0,0.5,0.2,0.7,0.6
			c0.3,1.3,1.5,1.8,3,1.8c1.7,0,3-0.6,3-2c0-3.3-8.3-1.2-8.3-6.6c0-2.6,2.3-4.3,5.3-4.3c2.7,0,4.9,1.5,5.2,4.1
			c0,0.4-0.2,0.6-0.6,0.6h-1.3c-0.4,0-0.5-0.2-0.7-0.6c-0.2-1.3-1.5-1.8-2.7-1.8c-1.4,0-2.8,0.6-2.8,2
			C106.8,96.4,115.1,94.2,115.1,99.7z"/>
		<path d="M123.6,89.8L123.6,89.8c0,1-0.8,1.8-1.8,1.8h-1V103c0,0.3-0.3,0.6-0.6,0.6h-1.3c-0.3,0-0.6-0.3-0.6-0.6V91.6H116
			c-0.3,0-0.6-0.3-0.6-0.6l0,0c0-1,0.8-1.8,1.8-1.8h1v-4c0-0.3,0.3-0.6,0.6-0.6h1.3c0.3,0,0.6,0.3,0.6,0.6v4h2.2
			C123.3,89.2,123.6,89.4,123.6,89.8z"/>
		<path d="M136.2,89.8V103c0,0.4-0.2,0.6-0.6,0.6h-1.3c-0.4,0-0.6-0.2-0.6-0.6v-1.2c-1,1.6-2.5,2.1-4.3,2.1c-2.7,0-4.9-2-4.9-5.5
			v-8.8c0-0.4,0.2-0.6,0.6-0.6h1.3c0.4,0,0.6,0.2,0.6,0.6v8.7c0,2.1,1.3,3.2,3,3.2c1.8,0,3.6-1.1,3.6-4.2v-7.6
			c0-0.4,0.2-0.6,0.6-0.6h1.3C136,89.2,136.2,89.4,136.2,89.8z"/>
		<path d="M153.4,84V103c0,0.4-0.2,0.6-0.6,0.6h-1.3c-0.4,0-0.6-0.2-0.6-0.6v-1.8c-1.2,1.7-3,2.8-5.5,2.8c-4,0-7.3-3.3-7.3-7.6
			c0-4.3,3.3-7.6,7.3-7.6c2.4,0,4.3,1.1,5.5,2.8V84c0-0.4,0.2-0.6,0.6-0.6h1.3C153.2,83.4,153.4,83.6,153.4,84z M150.9,96.4
			c0-3-2.2-5.2-5.1-5.2c-2.9,0-5.1,2.2-5.1,5.2c0,3,2.2,5.2,5.1,5.2C148.7,101.6,150.9,99.4,150.9,96.4z"/>
		<path d="M156.1,85.9v-2c0-0.4,0.2-0.6,0.6-0.6h1.3c0.4,0,0.6,0.2,0.6,0.6v2c0,0.4-0.2,0.6-0.6,0.6h-1.3
			C156.3,86.6,156.1,86.3,156.1,85.9z M156.1,103V89.8c0-0.4,0.2-0.6,0.6-0.6h1.3c0.4,0,0.6,0.2,0.6,0.6V103c0,0.4-0.2,0.6-0.6,0.6
			h-1.3C156.3,103.7,156.1,103.4,156.1,103z"/>
		<path d="M160.5,96.4c0-4.3,3.4-7.6,7.6-7.6s7.6,3.3,7.6,7.6c0,4.3-3.4,7.6-7.6,7.6S160.5,100.7,160.5,96.4z M173.3,96.4
			c0-2.9-2.2-5.2-5.1-5.2c-2.9,0-5.1,2.2-5.1,5.2s2.2,5.2,5.1,5.2C171,101.6,173.3,99.3,173.3,96.4z"/>
	</g>
</g>
</svg>
