<svg xmlns="http://www.w3.org/2000/svg" viewBox="0 0 175.8 107.55"><defs><style>.cls-1{fill:#151011;}</style></defs><title>Asset 1</title><g id="Layer_2" data-name="Layer 2"><g id="Layer_1-2" data-name="Layer 1"><path class="cls-1" d="M107.67,66.62H70.36A27.72,27.72,0,0,1,55,62.17,22,22,0,0,1,44.62,42.82c0-8.23,3.41-14.49,10.13-18.61a27.28,27.28,0,0,1,14.3-3.87H79.93c3,0,6.36-2.42,6.36-5.65V12.09H69.05a35.53,35.53,0,0,0-18.62,5.09C44,21.11,36.37,28.76,36.37,42.82A30.18,30.18,0,0,0,50.43,69.05a36,36,0,0,0,19.93,5.83h37.31ZM125.44,0H101.61c-2.81-.09-5.85,2.67-5.83,5.08l0,3h21.4V74.88h8.27Z"/><path d="M14.47,103a7.14,7.14,0,0,1-6.83,4.52,7.61,7.61,0,1,1,0-15.23,7.16,7.16,0,0,1,6.83,4.52c.17.43-.07.7-.5.7H12.55a.8.8,0,0,1-.74-.45,4.64,4.64,0,0,0-4.16-2.31,5.15,5.15,0,0,0,0,10.3,4.64,4.64,0,0,0,4.16-2.3.78.78,0,0,1,.74-.46H14C14.4,102.33,14.65,102.61,14.47,103Z"/><path d="M23.09,93.3h0a1.82,1.82,0,0,1-1.82,1.82h-1v11.45a.62.62,0,0,1-.62.62H18.34a.62.62,0,0,1-.62-.62V95.12H15.47a.62.62,0,0,1-.62-.62h0a1.82,1.82,0,0,1,1.82-1.82h1v-4a.62.62,0,0,1,.62-.62h1.29a.62.62,0,0,1,.62.62v4h2.23A.62.62,0,0,1,23.09,93.3Z"/><path d="M49.26,97.42v9.16a.55.55,0,0,1-.62.62H47.35a.55.55,0,0,1-.62-.62V97.51c0-2-1.17-2.79-2.53-2.79s-3.07.8-3.07,3.64v8.22a.56.56,0,0,1-.62.62H39.22a.56.56,0,0,1-.62-.62V97.51c0-2-1.17-2.79-2.53-2.79S33,95.52,33,98.36v8.22a.55.55,0,0,1-.62.62H31.09a.55.55,0,0,1-.62-.62V93.3a.55.55,0,0,1,.62-.62h1.29a.55.55,0,0,1,.62.62v1a4.32,4.32,0,0,1,3.75-2,4.12,4.12,0,0,1,3.76,2.27,4.65,4.65,0,0,1,4.19-2.27C47.24,92.32,49.26,94.08,49.26,97.42Z"/><path d="M62.3,92.69a.55.55,0,0,1,.62.62v13.27a.55.55,0,0,1-.62.62H61a.55.55,0,0,1-.62-.62v-1.17a4.76,4.76,0,0,1-4.29,2.15c-2.7,0-4.86-2-4.86-5.45V93.3a.55.55,0,0,1,.62-.62h1.29a.55.55,0,0,1,.62.62V102a2.86,2.86,0,0,0,3,3.15c1.81,0,3.62-1.09,3.62-4.22V93.3a.55.55,0,0,1,.62-.62H62.3Z"/><path d="M76,103.25c0,2.62-2.32,4.3-5.53,4.3-3,0-5.19-1.46-5.5-4.06a.54.54,0,0,1,.61-.65h1.28c.37,0,.54.21.65.57.25,1.32,1.5,1.81,3,1.81,1.68,0,3-.6,3-2,0-3.29-8.29-1.15-8.29-6.63,0-2.6,2.32-4.3,5.28-4.3,2.72,0,4.9,1.46,5.21,4.06A.54.54,0,0,1,75,97H73.77c-.37,0-.54-.21-.65-.57a2.43,2.43,0,0,0-2.67-1.8c-1.42,0-2.76.6-2.76,2C67.69,99.93,76,97.77,76,103.25Z"/><path d="M78,89.46v-2a.55.55,0,0,1,.62-.62H79.9a.55.55,0,0,1,.62.62v2a.55.55,0,0,1-.62.62H78.6A.55.55,0,0,1,78,89.46Zm0,17.11V93.3a.55.55,0,0,1,.62-.62H79.9a.55.55,0,0,1,.62.62v13.27a.55.55,0,0,1-.62.62H78.6A.55.55,0,0,1,78,106.57Z"/><path d="M96.85,103A7.14,7.14,0,0,1,90,107.55a7.61,7.61,0,1,1,0-15.23,7.16,7.16,0,0,1,6.83,4.52c.17.43-.07.7-.5.7H94.92a.8.8,0,0,1-.74-.45A4.64,4.64,0,0,0,90,94.79a5.15,5.15,0,0,0,0,10.3,4.64,4.64,0,0,0,4.16-2.3.78.78,0,0,1,.74-.46h1.43C96.78,102.33,97,102.61,96.85,103Z"/><path d="M115.08,103.25c0,2.62-2.32,4.3-5.53,4.3-3,0-5.19-1.46-5.5-4.06a.54.54,0,0,1,.61-.65h1.28c.37,0,.54.21.65.57.25,1.32,1.5,1.81,3,1.81,1.67,0,3-.6,3-2,0-3.29-8.29-1.15-8.29-6.63,0-2.6,2.32-4.3,5.28-4.3,2.72,0,4.9,1.46,5.21,4.06a.54.54,0,0,1-.61.65h-1.28c-.37,0-.54-.21-.65-.57a2.43,2.43,0,0,0-2.67-1.8c-1.42,0-2.76.6-2.76,2C106.79,99.93,115.08,97.77,115.08,103.25Z"/><path d="M123.62,93.3h0a1.82,1.82,0,0,1-1.82,1.82h-1v11.45a.62.62,0,0,1-.62.62h-1.29a.62.62,0,0,1-.62-.62V95.12H116a.62.62,0,0,1-.62-.62h0a1.82,1.82,0,0,1,1.82-1.82h1v-4a.62.62,0,0,1,.62-.62h1.29a.62.62,0,0,1,.62.62v4H123A.62.62,0,0,1,123.62,93.3Z"/><path d="M136.24,93.3v13.27a.55.55,0,0,1-.62.62h-1.29a.55.55,0,0,1-.62-.62v-1.17a4.76,4.76,0,0,1-4.29,2.15c-2.7,0-4.86-2-4.86-5.45V93.3a.55.55,0,0,1,.62-.62h1.29a.55.55,0,0,1,.62.62V102a2.86,2.86,0,0,0,3,3.15c1.81,0,3.62-1.09,3.62-4.22V93.3a.55.55,0,0,1,.62-.62h1.29A.55.55,0,0,1,136.24,93.3Z"/><path d="M153.44,87.5v19.07a.55.55,0,0,1-.62.62h-1.29a.55.55,0,0,1-.62-.62v-1.84a6.32,6.32,0,0,1-5.48,2.82,7.62,7.62,0,0,1,0-15.23,6.32,6.32,0,0,1,5.48,2.82V87.5a.55.55,0,0,1,.62-.62h1.29A.55.55,0,0,1,153.44,87.5Zm-2.52,12.44a5.15,5.15,0,1,0-5.15,5.19A5.07,5.07,0,0,0,150.92,99.94Z"/><path d="M156.13,89.46v-2a.55.55,0,0,1,.62-.62H158a.55.55,0,0,1,.62.62v2a.55.55,0,0,1-.62.62h-1.29A.55.55,0,0,1,156.13,89.46Zm0,17.11V93.3a.55.55,0,0,1,.62-.62H158a.55.55,0,0,1,.62.62v13.27a.55.55,0,0,1-.62.62h-1.29A.55.55,0,0,1,156.13,106.57Z"/><path d="M160.52,99.94a7.64,7.64,0,1,1,7.64,7.62A7.56,7.56,0,0,1,160.52,99.94Zm12.76,0a5.12,5.12,0,1,0-5.12,5.16A5.06,5.06,0,0,0,173.28,99.94Z"/></g></g></svg>