<svg xmlns="http://www.w3.org/2000/svg" viewBox="0 0 132.4 78.47"><title>Asset 1</title><g id="Layer_2" data-name="Layer 2"><g id="Layer_1-2" data-name="Layer 1"><path d="M10.9,75.07a5.38,5.38,0,0,1-5.14,3.4A5.73,5.73,0,1,1,5.76,67a5.39,5.39,0,0,1,5.14,3.4c.13.32-.05.53-.38.53H9.45a.6.6,0,0,1-.56-.34,3.49,3.49,0,0,0-3.13-1.74,3.88,3.88,0,0,0,0,7.76,3.49,3.49,0,0,0,3.13-1.73.59.59,0,0,1,.56-.34h1.08C10.85,74.54,11,74.74,10.9,75.07Z"/><path d="M17.39,67.74h0A1.37,1.37,0,0,1,16,69.11h-.77v8.62a.46.46,0,0,1-.46.46h-1a.46.46,0,0,1-.46-.46V69.11H11.65a.46.46,0,0,1-.46-.46h0a1.37,1.37,0,0,1,1.37-1.37h.79v-3a.46.46,0,0,1,.46-.46h1a.46.46,0,0,1,.46.46v3h1.68A.46.46,0,0,1,17.39,67.74Z"/><path d="M37.1,70.83v6.9a.42.42,0,0,1-.46.46h-1a.42.42,0,0,1-.46-.46V70.9a1.83,1.83,0,0,0-1.91-2.1c-1,0-2.32.61-2.32,2.74v6.19a.42.42,0,0,1-.46.46h-1a.42.42,0,0,1-.46-.46V70.9a1.83,1.83,0,0,0-1.91-2.1c-1,0-2.32.61-2.32,2.74v6.19a.42.42,0,0,1-.46.46h-1a.42.42,0,0,1-.46-.46v-10a.42.42,0,0,1,.46-.46h1a.42.42,0,0,1,.46.46v.74A3.26,3.26,0,0,1,27.68,67a3.1,3.1,0,0,1,2.83,1.71A3.5,3.5,0,0,1,33.66,67C35.57,67,37.1,68.32,37.1,70.83Z"/><path d="M46.92,67.27a.42.42,0,0,1,.46.46v10a.42.42,0,0,1-.46.46h-1a.42.42,0,0,1-.46-.46v-.88a3.59,3.59,0,0,1-3.23,1.62c-2,0-3.66-1.54-3.66-4.11V67.74a.42.42,0,0,1,.46-.46h1a.42.42,0,0,1,.46.46v6.55a2.15,2.15,0,0,0,2.27,2.38c1.36,0,2.73-.82,2.73-3.18V67.74a.42.42,0,0,1,.46-.46h1Z"/><path d="M57.22,75.23c0,2-1.75,3.24-4.17,3.24-2.24,0-3.91-1.1-4.14-3.06a.41.41,0,0,1,.46-.49h1c.28,0,.4.16.49.43.19,1,1.13,1.36,2.23,1.36,1.26,0,2.27-.45,2.27-1.48,0-2.47-6.24-.87-6.24-5,0-2,1.75-3.24,4-3.24,2,0,3.69,1.1,3.92,3.06a.41.41,0,0,1-.46.49h-1c-.28,0-.4-.16-.49-.43a1.83,1.83,0,0,0-2-1.35c-1.07,0-2.08.45-2.08,1.48C51,72.72,57.22,71.1,57.22,75.23Z"/><path d="M58.73,64.84V63.37a.42.42,0,0,1,.46-.46h1a.42.42,0,0,1,.46.46v1.47a.42.42,0,0,1-.46.46h-1A.42.42,0,0,1,58.73,64.84Zm0,12.89v-10a.42.42,0,0,1,.46-.46h1a.42.42,0,0,1,.46.46v10a.42.42,0,0,1-.46.46h-1A.42.42,0,0,1,58.73,77.73Z"/><path d="M72.94,75.07a5.38,5.38,0,0,1-5.14,3.4,5.73,5.73,0,1,1,0-11.47,5.39,5.39,0,0,1,5.14,3.4c.13.32-.05.53-.38.53H71.48a.6.6,0,0,1-.56-.34,3.49,3.49,0,0,0-3.13-1.74,3.88,3.88,0,0,0,0,7.76,3.49,3.49,0,0,0,3.13-1.73.59.59,0,0,1,.56-.34h1.08C72.88,74.54,73.07,74.74,72.94,75.07Z"/><path d="M86.67,75.23c0,2-1.75,3.24-4.17,3.24-2.24,0-3.91-1.1-4.14-3.06a.41.41,0,0,1,.46-.49h1c.28,0,.4.16.49.43.19,1,1.13,1.36,2.23,1.36,1.26,0,2.27-.45,2.27-1.48,0-2.47-6.24-.87-6.24-5,0-2,1.75-3.24,4-3.24,2,0,3.69,1.1,3.92,3.06a.41.41,0,0,1-.46.49H85c-.28,0-.4-.16-.49-.43a1.83,1.83,0,0,0-2-1.35c-1.07,0-2.08.45-2.08,1.48C80.42,72.72,86.67,71.1,86.67,75.23Z"/><path d="M93.1,67.74h0a1.37,1.37,0,0,1-1.37,1.37H91v8.62a.46.46,0,0,1-.46.46h-1a.46.46,0,0,1-.46-.46V69.11H87.37a.46.46,0,0,1-.46-.46h0a1.37,1.37,0,0,1,1.37-1.37h.79v-3a.46.46,0,0,1,.46-.46h1a.46.46,0,0,1,.46.46v3h1.68A.46.46,0,0,1,93.1,67.74Z"/><path d="M102.6,67.74v10a.42.42,0,0,1-.46.46h-1a.42.42,0,0,1-.46-.46v-.88a3.59,3.59,0,0,1-3.23,1.62c-2,0-3.66-1.54-3.66-4.11V67.74a.42.42,0,0,1,.46-.46h1a.42.42,0,0,1,.46.46v6.55A2.15,2.15,0,0,0,98,76.67c1.36,0,2.72-.82,2.72-3.18V67.74a.42.42,0,0,1,.46-.46h1A.42.42,0,0,1,102.6,67.74Z"/><path d="M115.56,63.37V77.73a.42.42,0,0,1-.46.46h-1a.42.42,0,0,1-.46-.46V76.34a4.76,4.76,0,0,1-4.12,2.12,5.74,5.74,0,0,1,0-11.47,4.76,4.76,0,0,1,4.12,2.12V63.37a.42.42,0,0,1,.46-.46h1A.42.42,0,0,1,115.56,63.37Zm-1.9,9.37a3.88,3.88,0,1,0-3.88,3.91A3.82,3.82,0,0,0,113.66,72.73Z"/><path d="M117.58,64.84V63.37a.42.42,0,0,1,.46-.46h1a.42.42,0,0,1,.46.46v1.47a.42.42,0,0,1-.46.46h-1A.42.42,0,0,1,117.58,64.84Zm0,12.89v-10a.42.42,0,0,1,.46-.46h1a.42.42,0,0,1,.46.46v10a.42.42,0,0,1-.46.46h-1A.42.42,0,0,1,117.58,77.73Z"/><path d="M120.88,72.73a5.76,5.76,0,1,1,5.76,5.74A5.69,5.69,0,0,1,120.88,72.73Zm9.61,0a3.86,3.86,0,1,0-3.86,3.89A3.81,3.81,0,0,0,130.5,72.73Z"/><path d="M92.61,52.56H90.08a.36.36,0,0,1-.36-.36V3.56a.31.31,0,0,0-.31-.31H72.63a.33.33,0,0,1-.33-.33h0A2.93,2.93,0,0,1,75.22,0H92.67A.31.31,0,0,1,93,.31V52.2A.36.36,0,0,1,92.61,52.56Z"/><path d="M80.73,52.52H51.58a22.45,22.45,0,1,1-.29-44.9H64.66a.33.33,0,0,1,.33.33h0a2.93,2.93,0,0,1-2.93,2.93H51.54a19.19,19.19,0,1,0-.24,38.38H80.73a.36.36,0,0,1,.36.36v2.53A.36.36,0,0,1,80.73,52.52Z"/></g></g></svg>