<svg xmlns="http://www.w3.org/2000/svg" viewBox="0 0 64.13 64"><defs><style>.cls-1{fill:#fff;}.cls-2{fill:none;}</style></defs><title>Asset 4</title><g id="Layer_2" data-name="Layer 2"><g id="Layer_1-2" data-name="Layer 1"><path class="cls-1" d="M63.77,58.28H61.24a.36.36,0,0,1-.36-.36V9.28A.31.31,0,0,0,60.57,9H43.79a.33.33,0,0,1-.33-.33h0a2.93,2.93,0,0,1,2.93-2.93H63.83a.31.31,0,0,1,.31.31V57.92A.36.36,0,0,1,63.77,58.28Z"/><path class="cls-1" d="M51.88,58.24H22.74a22.45,22.45,0,1,1-.29-44.9H35.82a.33.33,0,0,1,.33.33h0a2.93,2.93,0,0,1-2.93,2.93H22.7A19.19,19.19,0,1,0,22.45,55H51.88a.36.36,0,0,1,.36.36v2.53A.36.36,0,0,1,51.88,58.24Z"/><rect class="cls-2" x="0.07" width="64" height="64"/></g></g></svg>