<?xml version="1.0" standalone="no"?>
<!DOCTYPE svg PUBLIC "-//W3C//DTD SVG 1.1//EN" "http://www.w3.org/Graphics/SVG/1.1/DTD/svg11.dtd" >
<svg xmlns="http://www.w3.org/2000/svg">
<metadata></metadata>
<defs>
<font id="qanelas_softsemibold" horiz-adv-x="522" >
<font-face units-per-em="2048" ascent="1638" descent="-410" />
<missing-glyph horiz-adv-x="512" />
<glyph unicode="&#xfb01;" horiz-adv-x="1087" d="M20 857v121q0 46 47 46h109v20q0 416 464 416q88 0 185 -18q41 -7 41 -50v-112q0 -23 -13 -34.5t-36 -8.5q-89 10 -177 10q-124 0 -183.5 -44.5t-59.5 -158.5v-20h438h77q46 0 46 -46v-932q0 -46 -46 -46h-129q-46 0 -46 46v765h-340v-765q0 -46 -46 -46h-129 q-46 0 -46 46v765h-109q-47 0 -47 46z" />
<glyph unicode="&#xfb02;" horiz-adv-x="1087" d="M20 857v121q0 46 47 46h109v20q0 416 464 416q130 0 278 -28q40 -7 40 -51v-1335q0 -46 -46 -46h-129q-46 0 -46 46v1216q-45 4 -97 4q-121 0 -182 -53t-61 -169v-20h146q46 0 46 -46v-121q0 -46 -46 -46h-146v-765q0 -46 -46 -46h-129q-46 0 -46 46v765h-109 q-47 0 -47 46z" />
<glyph horiz-adv-x="0" />
<glyph horiz-adv-x="682" />
<glyph unicode=" "  horiz-adv-x="512" />
<glyph unicode="&#x09;" horiz-adv-x="512" />
<glyph unicode="&#xa0;" horiz-adv-x="512" />
<glyph unicode="!" d="M128 1024v364q0 46 46 46h174q46 0 46 -46v-364l-42 -536q-3 -37 -43 -37h-96q-40 0 -43 37zM133 46v164q0 46 46 46h164q46 0 46 -46v-164q0 -46 -46 -46h-164q-46 0 -46 46z" />
<glyph unicode="&#x22;" horiz-adv-x="727" d="M95 1389q-3 45 42 45h125q45 0 42 -45l-24 -363q-3 -43 -47 -43h-67q-43 0 -46 43zM423 1389q-3 45 42 45h125q45 0 42 -45l-25 -363q-3 -43 -46 -43h-67q-44 0 -47 43z" />
<glyph unicode="#" horiz-adv-x="1249" d="M59 490l14 82q6 42 50 42h188l35 205h-183q-23 0 -34.5 13.5t-7.5 36.5l13 82q6 42 50 42h191l49 296q6 42 49 42h90q23 0 34.5 -13.5t7.5 -36.5l-48 -288h229l50 296q6 42 49 42h90q23 0 34.5 -13.5t7.5 -36.5l-48 -288h179q23 0 34.5 -13.5t7.5 -36.5l-13 -82 q-6 -42 -51 -42h-186l-34 -205h180q23 0 34.5 -13.5t7.5 -36.5l-12 -82q-6 -42 -50 -42h-189l-50 -296q-6 -42 -49 -42h-90q-23 0 -34.5 14t-7.5 37l48 287h-229l-49 -296q-6 -42 -49 -42h-91q-23 0 -34 14t-7 37l47 287h-181q-23 0 -34.5 13.5t-7.5 36.5zM494 614h229 l34 205h-229z" />
<glyph unicode="$" horiz-adv-x="1120" d="M64 385q-3 48 45 48h144q41 0 47 -45q11 -73 61.5 -119t133.5 -60v419q-49 18 -84.5 32.5t-81 38t-77 46.5t-64.5 56.5t-53 70.5t-32.5 86t-12.5 105q0 171 116.5 274t288.5 120v140q0 41 41 41h51q41 0 41 -41v-141q162 -19 274.5 -120.5t127.5 -271.5q3 -48 -45 -48 h-140q-41 0 -47 44q-11 67 -55.5 108.5t-114.5 55.5v-412q42 -15 68.5 -25.5t67 -28t66.5 -32t60 -36.5t56 -44t45 -51.5t36.5 -61t22 -71.5t8.5 -85q0 -89 -34.5 -163t-94 -123.5t-136.5 -79t-165 -36.5v-139q0 -41 -41 -41h-51q-41 0 -41 41v142q-117 13 -208.5 60.5 t-152 137t-70.5 209.5zM326 1063q0 -68 44 -114.5t125 -83.5v361q-78 -12 -123.5 -54.5t-45.5 -108.5zM628 206q91 11 142.5 56t51.5 115q0 69 -50 116t-144 86v-373z" />
<glyph unicode="%" horiz-adv-x="1601" d="M102 1133q0 137 96 232t239 95t238.5 -94t95.5 -233q0 -137 -95 -232.5t-239 -95.5q-143 0 -239 95.5t-96 232.5zM218 16q-9 16 7 39l946 1349q21 30 56 30h118q28 0 36.5 -16.5t-7.5 -39.5l-948 -1348q-22 -30 -55 -30h-116q-28 0 -37 16zM291 1133q0 -63 40.5 -106 t104.5 -43t105.5 43.5t41.5 105.5q0 63 -41.5 105.5t-105.5 42.5t-104.5 -42.5t-40.5 -105.5zM829 303q0 137 96 232.5t239 95.5q142 0 238 -95.5t96 -232.5t-96 -232.5t-238 -95.5q-143 0 -239 95.5t-96 232.5zM1018 303q0 -63 40.5 -105.5t104.5 -42.5t105.5 43t41.5 105 q0 63 -41.5 106t-105.5 43t-104.5 -43t-40.5 -106z" />
<glyph unicode="&#x26;" horiz-adv-x="1427" d="M92 401q0 117 56.5 218.5t160.5 171.5q-93 120 -93 265q0 179 131 291.5t324 112.5q87 0 165.5 -24.5t143 -71.5t106.5 -124.5t50 -175.5q1 -23 -11 -35.5t-35 -12.5h-144q-39 0 -48 45q-14 83 -76 126.5t-151 43.5q-94 0 -157 -50t-63 -139q0 -56 35.5 -108t98.5 -115 l408 -412q49 97 56 231q2 46 46 46h145q46 0 46 -31q-10 -237 -130 -410l184 -186q22 -22 14.5 -39.5t-38.5 -17.5h-184q-34 0 -57 23l-69 68q-167 -118 -407 -118q-142 0 -256.5 50.5t-182.5 149t-68 228.5zM330 419q0 -102 76 -164t208 -62q136 0 233 56l-394 389 q-123 -81 -123 -219z" />
<glyph unicode="'" horiz-adv-x="399" d="M95 1389q-3 45 42 45h125q45 0 42 -45l-24 -363q-3 -43 -47 -43h-67q-43 0 -46 43z" />
<glyph unicode="(" horiz-adv-x="600" d="M113 717q0 454 209 888q15 33 53 33h124q26 0 36 -15t-1 -39q-200 -427 -200 -867q0 -441 200 -868q11 -24 1 -39t-36 -15h-124q-37 0 -53 34q-209 434 -209 888z" />
<glyph unicode=")" horiz-adv-x="600" d="M65.5 -190q-9.5 15 1.5 39q199 425 199 868q0 442 -199 867q-11 24 -1.5 39t35.5 15h124q39 0 54 -33q208 -432 208 -888t-208 -888q-16 -34 -54 -34h-124q-26 0 -35.5 15z" />
<glyph unicode="*" horiz-adv-x="811" d="M113 1145v57q0 44 45 41l140 -8l-81 111q-27 38 10 60l49 31q41 24 61 -18l69 -129l68 129q20 42 61 18l49 -30q37 -22 10 -61l-81 -111l140 8q45 3 45 -41v-57q0 -44 -45 -41l-140 8l81 -111q27 -38 -10 -60l-49 -31q-41 -24 -61 18l-68 129l-69 -129q-20 -42 -61 -18 l-49 30q-37 22 -10 61l81 111l-140 -8q-45 -3 -45 41z" />
<glyph unicode="+" horiz-adv-x="1126" d="M113 658v117q0 46 46 46h300v300q0 46 46 46h117q46 0 46 -46v-300h300q46 0 46 -46v-117q0 -46 -46 -46h-300v-300q0 -46 -46 -46h-117q-46 0 -46 46v300h-300q-46 0 -46 46z" />
<glyph unicode="," d="M133 46v164q0 46 46 46h164q46 0 46 -46v-210q0 -114 -57 -185.5t-162 -88.5q-37 -5 -37 32v38q0 28 31 38q46 13 68.5 51t22.5 115h-76q-46 0 -46 46z" />
<glyph unicode="-" horiz-adv-x="1044" d="M143 562v121q0 46 46 46h666q46 0 46 -46v-121q0 -46 -46 -46h-666q-46 0 -46 46z" />
<glyph unicode="." d="M133 46v164q0 46 46 46h164q46 0 46 -46v-164q0 -46 -46 -46h-164q-46 0 -46 46z" />
<glyph unicode="/" horiz-adv-x="1075" d="M88 -166l793 1780q11 24 37 24h43q19 0 26 -10t0 -29l-792 -1779q-11 -25 -37 -25h-43q-19 0 -26.5 10.5t-0.5 28.5z" />
<glyph unicode="0" horiz-adv-x="1290" d="M82 717q0 222 65 388.5t193 260.5t305 94t305 -94t193 -260.5t65 -388.5q0 -338 -149 -541t-414 -203t-414 203t-149 541zM317 717q0 -248 84.5 -381t243.5 -133t243.5 133t84.5 381t-84.5 381t-243.5 133t-243.5 -133t-84.5 -381z" />
<glyph unicode="1" horiz-adv-x="757" d="M26 1067v142q0 39 31 56l285 154q25 15 57 15h159q46 0 46 -46v-1342q0 -46 -46 -46h-143q-46 0 -46 46v1146l-288 -157q-24 -13 -39.5 -4t-15.5 36z" />
<glyph unicode="2" horiz-adv-x="1087" d="M72 46v105q0 33 23 56l473 477q186 188 186 326q0 105 -60.5 163t-154.5 58q-95 0 -156 -44.5t-73 -135.5q-6 -45 -48 -45h-144q-47 0 -44 48q8 101 50 180.5t106.5 128t142 73t162.5 24.5q87 0 166.5 -28.5t144.5 -82t104 -141.5t39 -198q0 -222 -239 -459l-329 -324 h548q46 0 46 -46v-135q0 -46 -46 -46h-851q-46 0 -46 46z" />
<glyph unicode="3" horiz-adv-x="1105" d="M33 385q-3 48 45 48h145q39 0 47 -44q13 -88 83.5 -137t178.5 -49q122 0 194.5 62t72.5 168q0 107 -72.5 169t-194.5 62h-90q-46 0 -46 46v77q0 30 20 58l273 367h-554q-46 0 -46 46v130q0 46 46 46h789q46 0 46 -46v-123q0 -30 -20 -58l-268 -358q156 -37 254 -145.5 t98 -270.5q0 -109 -41 -198t-111 -145t-160 -86.5t-190 -30.5q-127 0 -234.5 46t-180 141t-84.5 225z" />
<glyph unicode="4" horiz-adv-x="1187" d="M46 304v143q0 31 13 58l464 896q16 33 55 33h156q26 0 35.5 -15.5t-2.5 -40.5l-466 -901h460v327q0 46 46 46h145q46 0 46 -46v-327h118q46 0 46 -46v-127q0 -46 -46 -46h-118v-212q0 -46 -46 -46h-145q-46 0 -46 46v212h-669q-46 0 -46 46z" />
<glyph unicode="5" horiz-adv-x="1136" d="M69 385q-3 48 45 48h145q39 0 47 -44q13 -88 83.5 -137t178.5 -49q122 0 194.5 62t72.5 168q0 107 -72.5 169t-194.5 62h-386q-48 0 -45 48l49 678q3 44 47 44h730q46 0 46 -46v-130q0 -46 -46 -46h-554l-23 -319h193q100 0 188.5 -30t156 -87t107 -145.5t39.5 -197.5 t-41 -198t-111 -145t-160 -86.5t-190 -30.5q-127 0 -234.5 46t-180 141t-84.5 225z" />
<glyph unicode="6" horiz-adv-x="1116" d="M51 463q0 163 87 288l-1 1l433 652q20 30 56 30h167q28 0 36 -16.5t-7 -39.5l-289 -426h25q223 0 365 -136.5t142 -352.5t-142 -353t-365 -137q-224 0 -365.5 136.5t-141.5 353.5zM287 463q0 -121 75.5 -193.5t195.5 -72.5q119 0 195 72.5t76 193.5t-76 193.5t-195 72.5 q-120 0 -195.5 -72.5t-75.5 -193.5z" />
<glyph unicode="7" horiz-adv-x="1003" d="M31 1254v134q0 46 46 46h819q46 0 46 -46v-130q0 -27 -11 -57l-478 -1166q-13 -35 -54 -35h-152q-26 0 -35.5 14t0.5 39l473 1155h-608q-46 0 -46 46z" />
<glyph unicode="8" horiz-adv-x="1148" d="M72 396q0 112 55.5 202.5t155.5 145.5q-163 108 -163 305q0 80 24.5 148t66.5 116t100 81.5t124 49.5t139 16t139.5 -16t124 -49.5t100 -81.5t67 -116t24.5 -148q0 -197 -163 -305q100 -55 155.5 -145.5t55.5 -202.5q0 -197 -138 -310t-365 -113t-364.5 113t-137.5 310z M307 420q0 -107 73.5 -165t193.5 -58t194 58t74 165t-74 165t-194 58t-193.5 -58t-73.5 -165zM355 1038q0 -92 62.5 -145t156.5 -53t157 53t63 145q0 96 -62.5 147.5t-157.5 51.5t-157 -51.5t-62 -147.5z" />
<glyph unicode="9" horiz-adv-x="1116" d="M51 971q0 216 142 352.5t365 136.5q224 0 365.5 -136.5t141.5 -352.5q0 -165 -86 -289l-433 -652q-20 -30 -56 -30h-166q-28 0 -36.5 16t6.5 39l290 427q-4 0 -12.5 -0.5t-13.5 -0.5q-223 0 -365 137t-142 353zM287 971q0 -121 76 -194t195 -73t195 73t76 194 t-75.5 193.5t-195.5 72.5q-119 0 -195 -72.5t-76 -193.5z" />
<glyph unicode=":" d="M133 46v164q0 46 46 46h164q46 0 46 -46v-164q0 -46 -46 -46h-164q-46 0 -46 46zM133 814v164q0 46 46 46h164q46 0 46 -46v-164q0 -46 -46 -46h-164q-46 0 -46 46z" />
<glyph unicode=";" d="M133 46v164q0 46 46 46h164q46 0 46 -46v-210q0 -114 -57 -185.5t-162 -88.5q-37 -5 -37 32v38q0 28 31 38q46 13 68.5 51t22.5 115h-76q-46 0 -46 46zM133 814v164q0 46 46 46h164q46 0 46 -46v-164q0 -46 -46 -46h-164q-46 0 -46 46z" />
<glyph unicode="&#x3c;" horiz-adv-x="1075" d="M102 653v127q0 40 35 55l783 340q24 10 38.5 0t14.5 -36v-135q0 -39 -36 -53l-584 -234l584 -235q36 -14 36 -52v-135q0 -26 -14.5 -36t-38.5 0l-783 340q-35 16 -35 54z" />
<glyph unicode="=" horiz-adv-x="1085" d="M102 449v116q0 46 46 46h789q46 0 46 -46v-116q0 -47 -46 -47h-789q-46 0 -46 47zM102 868v117q0 46 46 46h789q46 0 46 -46v-117q0 -46 -46 -46h-789q-46 0 -46 46z" />
<glyph unicode="&#x3e;" horiz-adv-x="1075" d="M102 295v135q0 38 36 52l584 235l-584 234q-36 14 -36 53v135q0 26 15 36t39 0l782 -340q35 -15 35 -55v-127q0 -38 -35 -54l-782 -340q-24 -10 -39 0t-15 36z" />
<glyph unicode="?" horiz-adv-x="1122" d="M74 1064q8 97 50.5 174t109 124.5t149.5 72.5t176 25q69 0 134.5 -16t122.5 -48.5t100 -78.5t68 -111t25 -140q0 -59 -17 -112t-45.5 -94t-63 -79t-71.5 -72.5t-68.5 -67.5t-56 -71.5t-33.5 -77.5q-11 -41 -48 -41h-146q-23 0 -35 12.5t-8 35.5q8 61 38.5 117t69.5 96 t83 82.5t80.5 78.5t60.5 83t24 96q0 87 -59.5 133t-160.5 46q-98 0 -163.5 -43.5t-78.5 -127.5q-8 -44 -48 -44h-144q-48 0 -45 48zM402 46v164q0 46 47 46h163q46 0 46 -46v-164q0 -46 -46 -46h-163q-47 0 -47 46z" />
<glyph unicode="@" horiz-adv-x="1605" d="M72 512q0 203 96.5 372.5t268 269t380.5 99.5q133 0 249.5 -40t201 -109t145.5 -158.5t91 -190t30 -202.5q0 -215 -90 -328t-225 -113q-97 0 -163.5 43.5t-92.5 123.5q-81 -100 -211 -100q-135 0 -223.5 95.5t-88.5 237.5t88.5 237.5t223.5 95.5q116 0 196 -83v17 q0 46 46 46h97q46 0 46 -46v-417q0 -165 124 -165q89 0 145 88.5t56 267.5q0 177 -85 322.5t-233 229t-327 83.5q-185 0 -339.5 -88t-244.5 -243.5t-90 -344.5q0 -144 54 -269.5t147.5 -215t225.5 -140.5t284 -51q183 0 312 45q29 8 29 -21v-17q0 -23 -15 -27 q-140 -45 -326 -45q-221 0 -399.5 95t-280.5 264.5t-102 381.5zM631 512q0 -71 46 -116t114 -45q67 0 111.5 45t44.5 116q0 72 -44.5 116.5t-111.5 44.5q-69 0 -114.5 -44.5t-45.5 -116.5z" />
<glyph unicode="A" horiz-adv-x="1320" d="M29 52l477 1344q12 38 53 38h203q41 0 53 -38l477 -1344q4 -11 4 -20q0 -10 -6 -18q-10 -14 -36 -14h-158q-41 0 -53 38l-85 251h-595l-85 -251q-12 -38 -53 -38h-158q-26 0 -36 14q-6 8 -6 18q0 9 4 20zM438 510h445l-223 655z" />
<glyph unicode="B" horiz-adv-x="1402" d="M143 46v1341q0 47 46 47h190h352q178 0 292 -107t114 -268q0 -92 -51 -175q117 -58 186 -170.5t69 -252.5q0 -195 -129 -328t-323 -133h-664h-36q-46 0 -46 46zM379 221h479q116 0 182 71t66 179t-65.5 179t-180.5 71h-481v-500zM379 932h476q46 49 46 117q0 71 -46 117 t-124 46h-352v-280z" />
<glyph unicode="C" horiz-adv-x="1548" d="M72 717q0 154 56 291t154 236.5t238 157.5t300 58q233 0 418.5 -129t254.5 -337q3 -9 3 -17q0 -12 -7 -21q-11 -14 -35 -14h-157q-37 0 -53 36q-53 116 -168 184.5t-256 68.5q-151 0 -268.5 -67t-181 -183.5t-63.5 -263.5t63.5 -263.5t181 -183.5t268.5 -67 q141 0 256 68.5t168 184.5q16 36 53 36h157q24 0 36 -14q7 -8 7 -20q0 -7 -3 -15q-68 -209 -253.5 -339.5t-420.5 -130.5q-160 0 -300 58t-238 157.5t-154 237t-56 291.5z" />
<glyph unicode="D" horiz-adv-x="1505" d="M143 46v1342q0 46 46 46h190h369q194 0 351.5 -95.5t246 -259.5t88.5 -362t-88.5 -362t-246 -259.5t-351.5 -95.5h-523h-36q-46 0 -46 46zM379 225h369q203 0 330.5 139t127.5 353t-127.5 352.5t-330.5 138.5h-369v-983z" />
<glyph unicode="E" horiz-adv-x="1054" d="M143 46v1342q0 46 46 46h190h548q46 0 46 -46v-134q0 -46 -46 -46h-548v-373h497q46 0 46 -47v-129q0 -46 -46 -46h-497v-388h558q46 0 46 -46v-133q0 -46 -46 -46h-712h-36q-46 0 -46 46z" />
<glyph unicode="F" horiz-adv-x="1024" d="M143 46v1342q0 46 46 46h190h548q46 0 46 -46v-134q0 -46 -46 -46h-548v-433h527q46 0 46 -46v-133q0 -46 -46 -46h-527v-504q0 -46 -46 -46h-144q-46 0 -46 46z" />
<glyph unicode="G" horiz-adv-x="1615" d="M72 717q0 154 56 291t153.5 236.5t236 157.5t297.5 58q231 0 416 -124.5t255 -320.5q8 -24 -2.5 -38t-35.5 -14h-157q-37 0 -54 33q-55 105 -169.5 170t-252.5 65q-225 0 -366.5 -145.5t-141.5 -368.5q0 -229 142.5 -376.5t365.5 -147.5q115 0 211 36.5t164 117.5t81 196 h-388q-46 0 -46 46v119q0 46 46 46h573q46 0 46 -46v-165v-497q0 -46 -46 -46h-133q-46 0 -46 46v150q-77 -110 -201.5 -166.5t-280.5 -56.5q-204 0 -370 99t-259.5 269t-93.5 376z" />
<glyph unicode="H" horiz-adv-x="1300" d="M143 46v1342q0 46 46 46h144q46 0 46 -46v-538h543v538q0 46 46 46h143q46 0 46 -46v-1342q0 -46 -46 -46h-143q-46 0 -46 46v579h-543v-579q0 -46 -46 -46h-144q-46 0 -46 46z" />
<glyph unicode="I" d="M143 46v1342q0 46 46 46h144q46 0 46 -46v-1342q0 -46 -46 -46h-144q-46 0 -46 46z" />
<glyph unicode="J" horiz-adv-x="1095" d="M33 400v6q0 43 44 43h144q42 0 48 -47q19 -199 233 -199q108 0 171.5 54t63.5 161v970q0 46 46 46h144q46 0 46 -46v-970q0 -110 -39 -197t-105.5 -140t-150 -80.5t-176.5 -27.5q-71 0 -135.5 15.5t-123.5 49t-103 82.5t-72.5 120.5t-34.5 159.5z" />
<glyph unicode="K" horiz-adv-x="1234" d="M143 46v1342q0 46 46 46h144q46 0 46 -46v-597l523 616q22 27 55 27h173q29 0 37.5 -17t-9.5 -40l-534 -641l555 -680q12 -16 12 -29q0 -7 -2 -11q-8 -16 -37 -16h-173q-36 0 -56 27l-544 655v-636q0 -46 -46 -46h-144q-46 0 -46 46z" />
<glyph unicode="L" horiz-adv-x="983" d="M143 46v1342q0 46 46 46h144q46 0 46 -46v-1163h527q46 0 46 -46v-133q0 -46 -46 -46h-640h-77q-46 0 -46 46z" />
<glyph unicode="M" horiz-adv-x="1658" d="M143 46v1342q0 46 46 46h144h47q39 0 53 -35l396 -891l397 891q14 35 53 35h115h75q47 0 47 -46v-1342q0 -46 -47 -46h-143q-46 0 -46 46v997l-343 -773q-14 -34 -53 -34h-109q-39 0 -53 34l-343 773v-997q0 -46 -46 -46h-144q-46 0 -46 46z" />
<glyph unicode="N" horiz-adv-x="1310" d="M143 46v1342q0 46 46 46h102q38 0 56 -30l585 -943v927q0 46 46 46h143q46 0 46 -46v-1342q0 -46 -46 -46h-101q-38 0 -56 30l-585 943v-927q0 -46 -46 -46h-144q-46 0 -46 46z" />
<glyph unicode="O" horiz-adv-x="1630" d="M72 717q0 205 98.5 375.5t269.5 269t375 98.5t375 -98.5t270 -269t99 -375.5t-99 -376t-270 -269.5t-375 -98.5q-153 0 -290.5 58t-237 157.5t-157.5 237.5t-58 291zM307 717q0 -220 146 -367t362 -147t362 147t146 367t-146 367t-362 147t-362 -147t-146 -367z" />
<glyph unicode="P" horiz-adv-x="1198" d="M143 46v1342q0 46 46 46h190h292q128 0 235 -61.5t169 -167.5t62 -232q0 -191 -136 -326t-330 -135h-292v-466q0 -46 -46 -46h-144q-46 0 -46 46zM379 733h292q96 0 163 70t67 170q0 101 -66.5 170t-163.5 69h-292v-479z" />
<glyph unicode="Q" horiz-adv-x="1640" d="M72 717q0 153 58.5 291t158.5 237t237 157t289 58t289.5 -58t237 -157t158.5 -237t59 -291q0 -143 -50.5 -271.5t-141.5 -228.5l137 -156q13 -17 13 -32q0 -17 -18 -32l-100 -83q-17 -13 -32 -13q-18 0 -33 19l-138 157q-175 -104 -381 -104q-203 0 -373.5 98.5t-270 270 t-99.5 375.5zM307 717q0 -145 67.5 -263t184 -184.5t256.5 -66.5q121 0 226 51l-149 169q-13 17 -13 32q0 17 18 32l100 83q17 13 32 13q18 0 33 -19l151 -172q110 139 110 325q0 145 -67.5 263t-184 184.5t-256.5 66.5t-256.5 -66.5t-184 -184.5t-67.5 -263z" />
<glyph unicode="R" horiz-adv-x="1290" d="M143 46v1342q0 46 46 46h190h297q191 0 326 -135t135 -326q0 -136 -78.5 -249.5t-204.5 -165.5l420 -501q13 -16 13 -29q-1 -6 -3 -11q-8 -17 -37 -17h-172q-36 0 -57 27l-416 495h-223v-476q0 -46 -46 -46h-144q-46 0 -46 46zM379 733h297q93 0 159 70t66 170t-66 169.5 t-159 69.5h-297v-479z" />
<glyph unicode="S" horiz-adv-x="1122" d="M63 385v5q0 43 46 43h144q41 0 47 -45q13 -90 86 -137.5t192 -47.5q115 0 180.5 49t65.5 130q0 35 -15.5 65t-37.5 50.5t-62 42t-73 35t-86 32.5q-168 61 -234 96q-172 93 -211 246q-13 51 -13 109q0 76 25 142t68 113t101 80.5t124.5 50t136.5 16.5q120 0 220.5 -42.5 t169.5 -134t80 -219.5v-5q0 -43 -45 -43h-145q-41 0 -47 44q-12 84 -74 127.5t-159 43.5q-98 0 -158.5 -47.5t-60.5 -125.5q0 -45 18.5 -80.5t58 -63t79 -46t103.5 -42.5q167 -62 216 -85q175 -84 229 -211q28 -67 28 -148q0 -127 -67.5 -221.5t-175.5 -141t-239 -46.5 q-208 0 -353 107t-162 305z" />
<glyph unicode="T" horiz-adv-x="1024" d="M31 1254v134q0 46 46 46h553h317q46 0 46 -46v-134q0 -46 -46 -46h-317v-1162q0 -46 -46 -46h-144q-46 0 -46 46v1162h-317q-46 0 -46 46z" />
<glyph unicode="U" horiz-adv-x="1269" d="M123 434v954q0 46 46 46h143q46 0 46 -46v-939q0 -119 71 -182.5t206 -63.5q134 0 205 63.5t71 182.5v939q0 46 46 46h144q46 0 46 -46v-954q0 -145 -69.5 -251.5t-184 -158t-258.5 -51.5t-258.5 51.5t-184 158t-69.5 251.5z" />
<glyph unicode="V" horiz-adv-x="1277" d="M28 1381q-3 10 -3 18q1 13 7 21q10 14 35 14h158q42 0 53 -38l361 -1117l361 1117q11 38 53 38h158q25 0 35 -14q6 -9 7 -21q0 -8 -3 -18l-457 -1343q-12 -38 -53 -38h-202q-41 0 -53 38z" />
<glyph unicode="W" horiz-adv-x="1802" d="M26 1381q-3 10 -3 18q1 12 7 21q10 14 35 14h147q41 0 50 -40l315 -1106l219 752l-101 341q-7 25 3.5 39t35.5 14h127q41 0 50 -40l315 -1106l314 1106q9 40 50 40h148q26 0 36 -14q6 -8 6 -21q0 -8 -3 -18l-395 -1342q-10 -39 -51 -39h-190q-41 0 -51 39l-188 640 l-189 -640q-10 -39 -51 -39h-191q-41 0 -51 39z" />
<glyph unicode="X" horiz-adv-x="1208" d="M58 16q-3 6 -3 13q0 11 8 26l408 683l-382 640q-14 24 -5 40t36 16h165q37 0 55 -31l264 -442l264 442q18 31 56 31h165q27 0 35.5 -16t-5.5 -40l-382 -640l408 -683q8 -15 8 -26q1 -7 -3 -13q-8 -16 -36 -16h-165q-37 0 -55 31l-290 485l-290 -485q-18 -31 -55 -31h-165 q-28 0 -36 16z" />
<glyph unicode="Y" horiz-adv-x="1214" d="M39 1418q9 16 36 16h166q37 0 54 -32l312 -531l312 531q17 32 54 32h166q27 0 35 -16q4 -6 4 -13q0 -12 -9 -27l-445 -732v-600q0 -46 -46 -46h-143q-47 0 -47 46v601l-444 731q-9 15 -9 26q0 8 4 14z" />
<glyph unicode="Z" horiz-adv-x="1085" d="M77 46v118q0 28 16 56l629 988h-584q-46 0 -46 46v134q0 46 46 46h830q46 0 46 -46v-118q0 -28 -17 -57l-628 -988h614q46 0 46 -46v-133q0 -46 -46 -46h-860q-46 0 -46 46z" />
<glyph unicode="[" horiz-adv-x="573" d="M113 -159v1751q0 46 46 46h175h193q46 0 46 -46v-121q0 -46 -46 -46h-193v-1417h193q46 0 46 -46v-121q0 -46 -46 -46h-302h-66q-46 0 -46 46z" />
<glyph unicode="\" horiz-adv-x="1075" d="M88 1599q-7 18 0.5 28.5t26.5 10.5h43q26 0 37 -24l792 -1780q7 -19 0 -29t-26 -10h-43q-26 0 -37 25z" />
<glyph unicode="]" horiz-adv-x="573" d="M0 -38q0 46 46 46h194v1417h-194q-46 0 -46 46v121q0 46 46 46h302h67q46 0 46 -46v-1751q0 -46 -46 -46h-175h-194q-46 0 -46 46v121z" />
<glyph unicode="^" horiz-adv-x="1105" d="M109 794q-9 16 5 40l330 568q17 32 56 32h106q39 0 56 -32l330 -568q14 -24 4.5 -40t-37.5 -16h-141q-38 0 -55 33l-210 371l-210 -371q-17 -33 -55 -33h-142q-28 0 -37 16z" />
<glyph unicode="_" horiz-adv-x="1064" d="M72 -163q0 46 46 46h829q46 0 46 -46v-121q0 -46 -46 -46h-829q-46 0 -46 46v121z" />
<glyph unicode="`" horiz-adv-x="512" d="M69.5 1419.5q-6.5 -14.5 8.5 -34.5l162 -205q17 -23 48 -23h129q23 0 30.5 13.5t-4.5 33.5l-120 203q-14 27 -47 27h-175q-25 0 -31.5 -14.5z" />
<glyph unicode="a" horiz-adv-x="1034" d="M72 298q0 104 50.5 179.5t128.5 110.5t173 35q186 0 291 -105v127q0 102 -52 150.5t-139 48.5q-70 0 -120.5 -30.5t-63.5 -85.5q-7 -22 -17.5 -32t-30.5 -10h-127q-46 0 -46 43v5q18 146 131 231.5t274 85.5q177 0 292.5 -105t115.5 -291v-609q0 -46 -46 -46h-125 q-46 0 -46 46v51q-98 -124 -291 -124q-95 0 -173 35t-128.5 110.5t-50.5 179.5zM293 298q0 -69 51 -111t151 -42q98 0 159 43t61 110q0 70 -60 111.5t-160 41.5t-151 -42t-51 -111z" />
<glyph unicode="b" horiz-adv-x="1290" d="M128 46v1342q0 46 46 46h129q46 0 46 -46v-511q124 174 360 174q103 0 197 -42t162.5 -113.5t109 -171.5t40.5 -212t-40.5 -212t-109 -171.5t-162.5 -113.5t-197 -42q-236 0 -360 174v-101q0 -46 -46 -46h-129q-46 0 -46 46zM349 512q0 -142 92.5 -235t231.5 -93t231 93 t92 235t-92 235t-231 93t-231.5 -93t-92.5 -235z" />
<glyph unicode="c" horiz-adv-x="1163" d="M72 512q0 150 70 273.5t194 194.5t276 71q170 0 304 -92t186 -241q4 -10 4 -19q0 -11 -6 -19q-11 -14 -36 -14h-142q-37 0 -56 32q-37 63 -104 99.5t-150 36.5q-135 0 -227 -92t-92 -230t92 -230t227 -92q83 0 150.5 36.5t103.5 98.5q19 33 56 33h142q25 0 36 -14 q6 -8 6 -19q0 -9 -4 -19q-51 -149 -185.5 -241t-304.5 -92q-152 0 -276 71t-194 194.5t-70 273.5z" />
<glyph unicode="d" horiz-adv-x="1290" d="M72 512q0 112 40.5 212t109 171.5t162.5 113.5t197 42q235 0 359 -174v511q0 46 46 46h129q46 0 46 -46v-1342q0 -46 -46 -46h-129q-46 0 -46 46v101q-124 -174 -359 -174q-103 0 -197 42t-162.5 113.5t-109 171.5t-40.5 212zM293 512q0 -142 92 -235t231 -93t231.5 93 t92.5 235t-92.5 235t-231.5 93t-231 -93t-92 -235z" />
<glyph unicode="e" horiz-adv-x="1175" d="M72 512q0 231 149.5 385t386.5 154q149 0 266 -74t179 -196.5t62 -270.5q0 -18 -2 -50q-4 -43 -49 -43h-173h-590q25 -123 109.5 -188.5t204.5 -65.5q71 0 130 27t93 71q26 28 56 28l131 1q26 0 37.5 -14t1.5 -35q-56 -126 -176 -197t-276 -71q-160 0 -284 70.5t-190 193 t-66 275.5zM300 599h593q-21 124 -100.5 187t-185.5 63q-122 0 -203 -67t-104 -183z" />
<glyph unicode="f" horiz-adv-x="641" d="M20 857v121q0 46 47 46h109v20q0 200 106 310q106 108 308 108h4q22 0 34 -13t12 -35v-121q0 -44 -48 -44h-4q-93 0 -142 -50q-49 -51 -49 -155v-20h197q46 0 46 -46v-121q0 -46 -46 -46h-197v-765q0 -46 -46 -46h-129q-46 0 -46 46v765h-109q-47 0 -47 46z" />
<glyph unicode="g" horiz-adv-x="1290" d="M72 522q0 144 68.5 266t186 192.5t254.5 70.5q237 0 363 -178v105q0 46 46 46h125q46 0 46 -46v-932q0 -119 -44 -213t-118 -151.5t-165.5 -87.5t-192.5 -30q-123 0 -231 41.5t-182 122.5t-89 188v5q0 43 46 43h130q38 0 50 -41q20 -66 93 -112t183 -46q144 0 223.5 74 t79.5 207v126q-126 -178 -363 -178q-103 0 -197 41.5t-162.5 112t-109 168.5t-40.5 206zM293 522q0 -138 92.5 -229.5t232.5 -91.5t233 91.5t93 229.5t-93 230t-233 92q-139 0 -232 -92t-93 -230z" />
<glyph unicode="h" horiz-adv-x="1081" d="M128 46v1342q0 46 46 46h129q46 0 46 -46v-480q94 143 291 143q147 0 242.5 -106t95.5 -286v-613q0 -46 -46 -46h-129q-46 0 -46 46v600q0 96 -52 147t-136 51q-96 0 -158 -62.5t-62 -193.5v-542q0 -46 -46 -46h-129q-46 0 -46 46z" />
<glyph unicode="i" horiz-adv-x="477" d="M128 46v932q0 46 46 46h129q46 0 46 -46v-932q0 -46 -46 -46h-129q-46 0 -46 46zM128 1234v154q0 46 46 46h129q46 0 46 -46v-154q0 -46 -46 -46h-129q-46 0 -46 46z" />
<glyph unicode="j" horiz-adv-x="518" d="M-31 -270q0 44 46 47q78 2 115.5 45.5t37.5 136.5v1019q0 46 46 46h129q46 0 46 -46v-1019q0 -200 -93 -299q-92 -98 -274 -98h-7q-46 0 -46 47v121zM168 1234v154q0 46 46 46h129q46 0 46 -46v-154q0 -46 -46 -46h-129q-46 0 -46 46z" />
<glyph unicode="k" horiz-adv-x="1044" d="M128 46v1342q0 46 46 46h129q46 0 46 -46v-817l368 426q21 27 55 27h157q29 0 36.5 -16.5t-11.5 -39.5l-389 -446l409 -466q13 -15 13 -28q0 -5 -2 -11q-8 -17 -37 -17h-155q-35 0 -56 27l-388 447v-428q0 -46 -46 -46h-129q-46 0 -46 46z" />
<glyph unicode="l" horiz-adv-x="477" d="M128 46v1382q0 47 46 47h129q46 0 46 -47v-1382q0 -46 -46 -46h-129q-46 0 -46 46z" />
<glyph unicode="m" horiz-adv-x="1572" d="M128 46v932q0 46 46 46h129q46 0 46 -46v-60q90 133 255 133q83 0 150 -38t107 -110q102 148 288 148q144 0 232 -94.5t88 -266.5v-644q0 -46 -46 -46h-129q-46 0 -46 46v631q0 86 -43 126.5t-111 40.5q-33 0 -64 -10.5t-59 -34t-45 -67t-17 -103.5v-583q0 -46 -46 -46 h-129q-46 0 -46 46v631q0 86 -43.5 126.5t-111.5 40.5q-33 0 -63.5 -10.5t-58.5 -34t-45 -67t-17 -103.5v-583q0 -46 -46 -46h-129q-46 0 -46 46z" />
<glyph unicode="n" horiz-adv-x="1081" d="M128 46v932q0 46 46 46h129q46 0 46 -46v-70q94 143 291 143q147 0 242.5 -106t95.5 -286v-613q0 -46 -46 -46h-129q-46 0 -46 46v600q0 96 -52 147t-136 51q-96 0 -158 -62.5t-62 -193.5v-542q0 -46 -46 -46h-129q-46 0 -46 46z" />
<glyph unicode="o" horiz-adv-x="1224" d="M72 512q0 149 72 273t196 195t272 71t272 -70.5t196.5 -195t72.5 -273.5t-72.5 -273.5t-196.5 -195t-272 -70.5t-272 71t-196 195t-72 273zM293 512q0 -139 91.5 -231.5t227.5 -92.5t228 92.5t92 231.5t-92 231.5t-228 92.5t-227.5 -92.5t-91.5 -231.5z" />
<glyph unicode="p" horiz-adv-x="1290" d="M128 -364v1342q0 46 46 46h129q46 0 46 -46v-101q124 174 360 174q103 0 197 -42t162.5 -113.5t109 -171.5t40.5 -212t-40.5 -212t-109 -171.5t-162.5 -113.5t-197 -42q-236 0 -360 174v-511q0 -46 -46 -46h-129q-46 0 -46 46zM349 512q0 -142 92.5 -235t231.5 -93 t231 93t92 235t-92 235t-231 93t-231.5 -93t-92.5 -235z" />
<glyph unicode="q" horiz-adv-x="1290" d="M72 512q0 112 40.5 212t109 171.5t162.5 113.5t197 42q235 0 359 -174v101q0 46 46 46h129q46 0 46 -46v-1342q0 -46 -46 -46h-129q-46 0 -46 46v511q-124 -174 -359 -174q-103 0 -197 42t-162.5 113.5t-109 171.5t-40.5 212zM293 512q0 -142 92 -235t231 -93t231.5 93 t92.5 235t-92.5 235t-231.5 93t-231 -93t-92 -235z" />
<glyph unicode="r" horiz-adv-x="675" d="M128 46v932q0 46 46 46h129q46 0 46 -46v-108q75 151 248 169q5 1 9 1q17 0 26 -10q12 -12 12 -35v-145q0 -45 -34 -45q-112 -3 -186.5 -70.5t-74.5 -208.5v-480q0 -46 -46 -46h-129q-46 0 -46 46z" />
<glyph unicode="s" horiz-adv-x="968" d="M85 268v6q0 18 10 30q12 12 35 12h127q20 0 30.5 -10t18.5 -31q24 -103 178 -103q84 0 133 29.5t49 86.5q0 36 -24.5 62t-64.5 39.5t-91 27.5t-104.5 25.5t-104.5 34.5t-91 53t-64.5 83t-24.5 123q0 145 111 230t276 85q150 0 256 -77t123 -218v-7q0 -41 -45 -41h-127 q-20 0 -30.5 10t-18.5 32q-11 52 -55 77t-103 25q-73 0 -119.5 -30t-46.5 -86q0 -37 24.5 -62.5t64.5 -39t91 -27.5t104.5 -25.5t104.5 -34.5t91 -53t64.5 -83t24.5 -123q0 -147 -114 -231t-289 -84q-163 0 -272.5 76.5t-126.5 218.5z" />
<glyph unicode="t" horiz-adv-x="671" d="M36 857v121q0 46 46 46h143v282q0 46 46 46h129q46 0 46 -46v-282h143q46 0 46 -46v-121q0 -46 -46 -46h-143v-765q0 -46 -46 -46h-129q-46 0 -46 46v765h-143q-46 0 -46 46z" />
<glyph unicode="u" horiz-adv-x="1081" d="M102 365v613q0 46 46 46h130q46 0 46 -46v-600q0 -96 51.5 -147t135.5 -51q96 0 158 62.5t62 193.5v542q0 46 46 46h129q46 0 46 -46v-932q0 -46 -46 -46h-129q-46 0 -46 46v70q-94 -143 -291 -143q-147 0 -242.5 106t-95.5 286z" />
<glyph unicode="v" horiz-adv-x="1003" d="M30 971q-3 10 -3 19q-1 12 5 20q10 14 36 14h138q40 0 52 -38l244 -724l243 724q12 38 53 38h139q25 0 35 -14q6 -8 6 -19q0 -9 -4 -20l-341 -934q-13 -37 -52 -37h-112h-46q-38 0 -52 37z" />
<glyph unicode="w" horiz-adv-x="1454" d="M38 972q-3 10 -3 18q0 12 6 20q10 14 35 14h140q40 0 51 -38l218 -723l149 456l-84 253q-7 24 3 38t35 14h109q40 0 52 -38l226 -705l212 705q11 38 51 38h140q25 0 35 -14q6 -8 6 -20q0 -8 -3 -18l-311 -934q-12 -38 -53 -38h-108h-30q-41 0 -53 38l-133 401l-135 -401 q-12 -38 -53 -38h-86h-52q-41 0 -53 38z" />
<glyph unicode="x" horiz-adv-x="956" d="M50 16q-3 6 -3 13q0 12 9 26l302 472l-282 442q-15 23 -6.5 39t36.5 16h135q35 0 55 -31l180 -281l180 281q20 31 56 31h134q28 0 37 -16t-6 -39l-283 -442l302 -472q9 -14 9 -26q0 -7 -3 -13q-9 -16 -37 -16h-134q-35 0 -55 31l-200 312l-200 -312q-20 -31 -55 -31h-134 q-28 0 -37 16z" />
<glyph unicode="y" horiz-adv-x="1003" d="M32 971q-4 11 -4 21t5 18q10 14 35 14h139q39 0 52 -36l261 -670l225 668q12 38 53 38h140q25 0 36 -14q5 -8 5 -19q0 -9 -3 -19l-462 -1345q-11 -37 -53 -37h-140q-25 0 -35.5 14.5t-2.5 38.5l127 369z" />
<glyph unicode="z" horiz-adv-x="927" d="M72 46v70q0 30 18 57l460 642h-412q-46 0 -46 46v117q0 46 46 46h666q46 0 46 -46v-70q0 -29 -19 -57l-459 -642h452q46 0 46 -46v-117q0 -46 -46 -46h-706q-46 0 -46 46z" />
<glyph unicode="{" horiz-adv-x="720" d="M102 659v120q0 44 48 46q67 3 99 36t32 117v316q0 183 91 276t272 91q46 0 46 -47v-120q0 -44 -48 -46q-72 2 -106 -33t-34 -121v-316q0 -196 -134 -258q134 -64 134 -259v-317q0 -86 33.5 -120.5t106.5 -32.5q48 -1 48 -46v-120q0 -47 -46 -47q-181 -2 -272 90.5 t-91 275.5v317q0 84 -31.5 116.5t-99.5 35.5q-48 2 -48 46z" />
<glyph unicode="|" horiz-adv-x="507" d="M143 -364v1792q0 47 46 47h129q47 0 47 -47v-1792q0 -46 -47 -46h-129q-46 0 -46 46z" />
<glyph unicode="}" horiz-adv-x="720" d="M31 -55q0 45 48 46q73 -2 106.5 32.5t33.5 120.5v317q0 195 134 259q-134 62 -134 258v316q0 86 -34 121t-106 33q-48 2 -48 46v120q0 47 46 47q181 2 272 -91t91 -276v-316q0 -84 32 -117t99 -36q47 -2 47 -46v-120q0 -44 -47 -46q-68 -3 -99.5 -35.5t-31.5 -116.5v-317 q0 -183 -91 -275.5t-272 -90.5q-46 0 -46 47v120z" />
<glyph unicode="~" horiz-adv-x="1222" d="M116 673q60 166 193 207.5t306 -51.5q139 -72 204 -68t100 82q18 43 60 23l102 -49q39 -19 26 -60q-60 -167 -192 -208.5t-308 51.5q-137 72 -202.5 69t-100.5 -81q-20 -44 -60 -25l-103 49q-39 19 -25 61z" />
<glyph unicode="&#xa1;" d="M128 0l42 536q3 37 43 37h96q40 0 43 -37l42 -536v-364q0 -46 -46 -46h-174q-46 0 -46 46v364zM133 814v164q0 46 46 46h164q46 0 46 -46v-164q0 -46 -46 -46h-164q-46 0 -46 46z" />
<glyph unicode="&#xa2;" horiz-adv-x="1163" d="M72 717q0 150 70 273.5t194 194t276 70.5q53 0 88 -6l52 158q9 27 36 27h46q36 0 26 -37l-56 -175q106 -39 184 -117t114 -182q9 -24 -2 -38.5t-36 -14.5h-142q-36 0 -56 33q-44 75 -129 111l-198 -611q37 -8 73 -8q83 0 150.5 36t103.5 98q19 34 56 34h142 q25 0 36 -14.5t2 -37.5q-51 -149 -185.5 -241t-304.5 -92q-72 0 -140 17l-54 -168q-9 -27 -37 -27h-45q-17 0 -24.5 10t-2.5 27l63 194q-138 65 -219 194.5t-81 291.5zM293 717q0 -88 39 -159.5t108 -114.5l192 595h-20q-136 0 -227.5 -92t-91.5 -229z" />
<glyph unicode="&#xa3;" horiz-adv-x="1198" d="M72 46v135q0 46 46 46h118v314h-88q-46 0 -46 46v114q0 47 46 47h88v268q0 110 38 197t101.5 139.5t140.5 80t160 27.5q81 0 157.5 -27.5t140.5 -80t103 -140t39 -196.5v-28q0 -46 -46 -46h-143q-46 0 -46 46v28q0 104 -60 159.5t-145 55.5q-88 0 -146.5 -55t-58.5 -160 v-268h369q46 0 46 -47v-114q0 -46 -46 -46h-369v-314h650q46 0 46 -46v-135q0 -46 -46 -46h-1003q-46 0 -46 46z" />
<glyph unicode="&#xa4;" horiz-adv-x="1118" d="M97 278q-25 26 0 51l118 117q-94 116 -94 271t94 271l-118 117q-25 25 0 51l23 23q26 25 51 0l119 -119q118 89 269 89q152 0 270 -89l118 119q25 25 51 0l23 -23q25 -26 0 -51l-117 -118q93 -115 93 -270q0 -156 -93 -271l117 -117q25 -25 0 -51l-23 -23q-26 -26 -51 0 l-118 119q-118 -89 -270 -89q-153 0 -269 88l-119 -118q-25 -25 -51 0zM340 717q0 -95 62 -158t157 -63t157 63t62 158t-62 158t-157 63t-157 -63t-62 -158z" />
<glyph unicode="&#xa5;" horiz-adv-x="1214" d="M39 1418q9 16 36 16h166q37 0 54 -32l312 -531l312 531q17 32 54 32h166q27 0 35.5 -16t-5.5 -40l-393 -647h249q43 0 43 -43v-63q0 -43 -43 -43h-301v-103h301q43 0 43 -43v-63q0 -43 -43 -43h-301v-284q0 -46 -46 -46h-143q-47 0 -47 46v284h-299q-43 0 -43 43v63 q0 43 43 43h299v103h-299q-43 0 -43 43v63q0 43 43 43h249l-394 647q-14 24 -5 40z" />
<glyph unicode="&#xa6;" horiz-adv-x="507" d="M143 302q0 46 46 46h129q47 0 47 -46v-666q0 -46 -47 -46h-129q-46 0 -46 46v666zM143 763v665q0 47 46 47h129q47 0 47 -47v-665q0 -46 -47 -46h-129q-46 0 -46 46z" />
<glyph unicode="&#xa7;" horiz-adv-x="1093" d="M92 675q0 160 136 258q-71 84 -71 207q0 148 109.5 234t273.5 86q152 0 260 -81.5t124 -234.5q3 -47 -46 -47h-126q-39 0 -48 43q-11 63 -56.5 92.5t-107.5 29.5q-72 0 -117 -31.5t-45 -90.5q0 -17 4.5 -32.5t16 -30t22.5 -26t32 -25t36 -22.5t43.5 -22t45 -20.5t50 -22 t49.5 -21.5q56 -25 95.5 -46t86 -53.5t74.5 -66.5t47.5 -82.5t19.5 -103.5q0 -161 -130 -263q76 -84 76 -208q0 -151 -111 -237.5t-286 -86.5q-167 0 -278.5 80.5t-127.5 234.5q-1 23 11 35.5t35 12.5h126q39 0 48 -43q23 -122 186 -122q82 0 129 32.5t47 93.5 q0 22 -8.5 41.5t-27.5 37t-38 31.5t-52 30.5t-57 27.5t-66.5 29t-66.5 29q-54 24 -94 45.5t-85 54.5t-73 67.5t-46.5 83t-18.5 103.5zM313 685q0 -62 49.5 -103.5t141.5 -81.5q22 -9 65.5 -26t80.5 -32t68 -31q61 57 61 135q0 65 -51.5 107t-151.5 84q-169 70 -199 85 q-64 -57 -64 -137z" />
<glyph unicode="&#xa8;" horiz-adv-x="686" d="M41 1201v137q0 39 39 39h137q39 0 39 -39v-137q0 -39 -39 -39h-137q-39 0 -39 39zM430 1201v137q0 39 39 39h137q39 0 39 -39v-137q0 -39 -39 -39h-137q-39 0 -39 39z" />
<glyph unicode="&#xa9;" horiz-adv-x="1626" d="M72 717q0 151 58.5 288.5t157.5 236.5t236.5 157.5t288.5 58.5t288.5 -58.5t236.5 -157.5t157.5 -236.5t58.5 -288.5q0 -202 -99 -372.5t-269.5 -270t-372.5 -99.5t-372.5 99.5t-269.5 270t-99 372.5zM143 717q0 -138 53 -263t143 -215.5t214 -144t260 -53.5t260 53.5 t214 144t143 215.5t53 263t-53 263t-143 215.5t-214 144t-260 53.5t-260 -53.5t-214 -144t-143 -215.5t-53 -263zM417 717q0 165 117.5 281.5t284.5 116.5q127 0 229 -70.5t143 -188.5q7 -23 -4 -37t-36 -14h-116q-33 0 -56 32q-22 40 -66 62.5t-97 22.5q-91 0 -147.5 -61 t-56.5 -144t56.5 -144t147.5 -61q53 0 97 22t66 62q24 33 56 33h116q25 0 36 -14.5t3 -38.5q-41 -117 -143 -187.5t-228 -70.5q-167 0 -284.5 117t-117.5 282z" />
<glyph unicode="&#xaa;" horiz-adv-x="563" d="M51 1084q0 75 50 118.5t121 43.5q93 0 145 -49v61q0 40 -21.5 61t-62.5 21q-64 0 -78 -36q-13 -25 -32 -25h-70q-30 0 -27 30q10 71 66.5 111t140.5 40q93 0 151 -52t58 -144v-300q0 -13 -8 -21t-21 -8h-68q-13 0 -20.5 8t-7.5 21v16q-49 -58 -145 -58q-71 0 -121 43.5 t-50 118.5zM178 1084q0 -29 22.5 -47t62.5 -18t72 17t32 48q0 32 -31.5 48.5t-72.5 16.5q-40 0 -62.5 -18t-22.5 -47z" />
<glyph unicode="&#xab;" horiz-adv-x="1079" d="M152 601q-19 32 0 64l188 316q18 31 55 31h118q28 0 37 -15.5t-5 -40.5l-193 -323l193 -324q13 -25 4.5 -40t-36.5 -15h-118q-37 0 -55 31zM520 601q-19 32 0 64l189 316q18 31 55 31h118q28 0 36.5 -15.5t-5.5 -40.5l-192 -323l192 -324q14 -25 5.5 -40t-36.5 -15h-118 q-37 0 -55 31z" />
<glyph unicode="&#xac;" horiz-adv-x="1105" d="M102 658v117q0 46 46 46h809q47 0 47 -46v-163v-195q0 -46 -47 -46h-129q-46 0 -46 46v195h-634q-46 0 -46 46z" />
<glyph unicode="&#xad;" horiz-adv-x="1044" d="M143 562v121q0 46 46 46h666q46 0 46 -46v-121q0 -46 -46 -46h-666q-46 0 -46 46z" />
<glyph unicode="&#xae;" horiz-adv-x="1626" d="M72 717q0 151 58.5 288.5t157.5 236.5t236.5 157.5t288.5 58.5t288.5 -58.5t236.5 -157.5t157.5 -236.5t58.5 -288.5q0 -202 -99 -372.5t-269.5 -270t-372.5 -99.5t-372.5 99.5t-269.5 270t-99 372.5zM143 717q0 -138 53 -263t143 -215.5t214 -144t260 -53.5t260 53.5 t214 144t143 215.5t53 263t-53 263t-143 215.5t-214 144t-260 53.5t-260 -53.5t-214 -144t-143 -215.5t-53 -263zM552 384v666q0 46 46 46h142h107q126 0 206.5 -73t80.5 -181q0 -78 -32.5 -138t-91.5 -95l155 -215q17 -23 8.5 -39.5t-36.5 -16.5h-104q-35 0 -55 28 l-146 201h-92v-183q0 -46 -46 -46h-96q-46 0 -46 46zM740 731h84q57 0 89 25t32 70q0 46 -32 71t-89 25h-84v-191z" />
<glyph unicode="&#xaf;" horiz-adv-x="655" d="M41 1205v105q0 39 39 39h495q39 0 39 -39v-105q0 -39 -39 -39h-495q-39 0 -39 39z" />
<glyph unicode="&#xb0;" horiz-adv-x="811" d="M72 1331q0 137 95.5 232.5t238.5 95.5t238 -95.5t95 -232.5t-94 -232t-239 -95q-143 0 -238.5 95t-95.5 232zM264 1331q0 -61 40 -102t102 -41q63 0 102 40.5t39 102.5t-39.5 103t-101.5 41t-102 -41.5t-40 -102.5z" />
<glyph unicode="&#xb1;" horiz-adv-x="1126" d="M113 179v117q0 46 46 46h809q46 0 46 -46v-117q0 -46 -46 -46h-809q-46 0 -46 46zM113 827v117q0 46 46 46h300v264q0 46 46 46h117q46 0 46 -46v-264h300q46 0 46 -46v-117q0 -46 -46 -46h-300v-264q0 -46 -46 -46h-117q-46 0 -46 46v264h-300q-46 0 -46 46z" />
<glyph unicode="&#xb4;" horiz-adv-x="512" d="M67.5 1172q8.5 -15 33.5 -15h119q34 0 54 26l155 196q17 22 9 38.5t-36 16.5h-162q-37 0 -53 -30l-115 -194q-13 -23 -4.5 -38z" />
<glyph unicode="&#xb5;" horiz-adv-x="1173" d="M128 -364v1342q0 46 46 46h129q46 0 46 -46v-600q0 -96 52 -147t136 -51q96 0 158 62.5t62 193.5v542q0 46 46 46h129q46 0 46 -46v-702q0 -40 23.5 -53.5t74.5 -13.5q46 0 46 -46v-117q0 -46 -46 -46h-68q-152 0 -217 114q-96 -141 -285 -141q-88 0 -157 36v-373 q0 -46 -46 -46h-129q-46 0 -46 46z" />
<glyph unicode="&#xb6;" horiz-adv-x="1308" d="M61 1004q0 179 126 304.5t305 125.5h208h394h78q47 0 47 -46v-105q0 -46 -47 -46h-78v-1601q0 -46 -46 -46h-117q-46 0 -46 46v1601h-185v-1601q0 -46 -46 -46h-116q-46 0 -46 46v937q-179 0 -305 126.5t-126 304.5z" />
<glyph unicode="&#xb7;" d="M133 630v164q0 46 46 46h164q46 0 46 -46v-164q0 -46 -46 -46h-164q-46 0 -46 46z" />
<glyph unicode="&#xb8;" d="M41 -322q0 39 43 39q205 -10 205 54q0 46 -112 59q-38 5 -38 41v129h183v-93q69 -14 114 -55.5t45 -106.5q0 -203 -399 -189q-41 3 -41 41v81z" />
<glyph unicode="&#xba;" horiz-adv-x="643" d="M51 1191q0 114 78.5 191.5t193.5 77.5q114 0 191.5 -77t77.5 -192q0 -114 -77.5 -191.5t-191.5 -77.5q-115 0 -193.5 77.5t-78.5 191.5zM179 1191q0 -65 40.5 -105t103.5 -40t102 40t39 105q0 66 -39 105.5t-102 39.5q-64 0 -104 -40t-40 -105z" />
<glyph unicode="&#xbb;" horiz-adv-x="1079" d="M161 996.5q9 15.5 37 15.5h117q38 0 56 -31l188 -316q19 -32 0 -64l-188 -316q-18 -31 -56 -31h-117q-28 0 -36.5 15t4.5 40l192 324l-192 323q-14 25 -5 40.5zM529.5 269q-8.5 15 5.5 40l192 324l-192 323q-14 25 -5.5 40.5t36.5 15.5h118q37 0 55 -31l189 -316 q19 -32 0 -64l-189 -316q-18 -31 -55 -31h-118q-28 0 -36.5 15z" />
<glyph unicode="&#xbc;" horiz-adv-x="1673" d="M31 1187v99q0 34 30 52l152 82q24 14 52 14h118q43 0 43 -43v-734q0 -43 -43 -43h-102q-43 0 -43 43v582l-156 -83q-22 -12 -36.5 -3t-14.5 34zM274.5 15.5q-8.5 15.5 4.5 39.5l769 1347q17 32 55 32h63q27 0 36 -16t-4 -40l-769 -1346q-17 -32 -55 -32h-64 q-27 0 -35.5 15.5zM969 182v102q0 28 13 53l248 451q16 31 51 31h110q25 0 33 -14.5t-3 -36.5l-244 -457h187v118q0 43 43 43h96q43 0 43 -43v-118h47q43 0 43 -43v-86q0 -43 -43 -43h-47v-96q0 -43 -43 -43h-96q-43 0 -43 43v96h-352q-43 0 -43 43z" />
<glyph unicode="&#xbd;" horiz-adv-x="1660" d="M31 1187v99q0 34 30 52l152 82q24 14 52 14h118q43 0 43 -43v-734q0 -43 -43 -43h-102q-43 0 -43 43v582l-156 -83q-22 -12 -36.5 -3t-14.5 34zM274.5 15.5q-8.5 15.5 4.5 39.5l769 1347q17 32 55 32h63q27 0 36 -16t-4 -40l-769 -1346q-17 -32 -55 -32h-64 q-27 0 -35.5 15.5zM1002 611q14 112 96 173.5t201 61.5q129 0 210 -70.5t81 -190.5q0 -127 -135 -255l-169 -156h276q43 0 43 -43v-88q0 -43 -43 -43h-514q-43 0 -43 43v57q0 31 22 53l298 286q76 71 76 143q0 41 -27.5 65.5t-74.5 24.5q-85 0 -104 -67q-8 -21 -17.5 -30 t-27.5 -9h-107q-47 0 -41 45z" />
<glyph unicode="&#xbe;" horiz-adv-x="1853" d="M39 814q-3 22 8.5 33.5t33.5 11.5h106q17 0 26.5 -8.5t19.5 -28.5q19 -65 114 -65q59 0 90.5 27.5t31.5 74.5t-32.5 74.5t-89.5 27.5h-62q-43 0 -43 43v43q0 31 19 53l133 160h-281q-43 0 -43 43v88q0 43 43 43h466q43 0 43 -43v-76q0 -28 -20 -53l-137 -167 q92 -24 142.5 -86t50.5 -150q0 -127 -83.5 -199t-227.5 -72q-130 0 -212 59.5t-96 166.5zM456 15.5q-9 15.5 4 39.5l769 1347q17 32 55 32h64q27 0 36 -16t-5 -40l-769 -1346q-17 -32 -55 -32h-63q-27 0 -36 15.5zM1150 182v102q0 28 13 53l248 451q15 31 51 31h110 q25 0 33.5 -14.5t-2.5 -36.5l-245 -457h187v118q0 43 43 43h96q44 0 44 -43v-118h47q43 0 43 -43v-86q0 -43 -43 -43h-47v-96q0 -43 -44 -43h-96q-43 0 -43 43v96h-352q-43 0 -43 43z" />
<glyph unicode="&#xbf;" horiz-adv-x="1112" d="M102 -42q0 59 17 112t45.5 94t63 79t71.5 72.5t68.5 67.5t56 71.5t33.5 77.5q11 41 48 41h146q23 0 35 -12.5t8 -35.5q-8 -61 -38.5 -117t-69.5 -96t-83 -82.5t-80.5 -78.5t-60.5 -83t-24 -96q0 -87 59.5 -133t160.5 -46q98 0 163.5 43.5t78.5 127.5q8 44 48 44h144 q48 0 45 -48q-8 -97 -50.5 -174t-109 -124.5t-149.5 -72.5t-176 -25q-69 0 -134.5 16t-122.5 48.5t-100 78.5t-68 111t-25 140zM453 814v164q0 46 46 46h164q46 0 46 -46v-164q0 -46 -46 -46h-164q-46 0 -46 46z" />
<glyph unicode="&#xc0;" horiz-adv-x="1320" d="M29 52l477 1344q12 38 53 38h203q41 0 53 -38l477 -1344q8 -25 -2 -38.5t-36 -13.5h-158q-41 0 -53 38l-85 251h-595l-85 -251q-12 -38 -53 -38h-158q-26 0 -36 13.5t-2 38.5zM392 1829q7 14 32 14h175q32 0 46 -26l121 -203q11 -20 3.5 -33.5t-30.5 -13.5h-129 q-32 0 -48 22l-162 206q-15 20 -8 34zM438 510h445l-223 655z" />
<glyph unicode="&#xc1;" horiz-adv-x="1320" d="M29 52l477 1344q12 38 53 38h203q41 0 53 -38l477 -1344q8 -25 -2 -38.5t-36 -13.5h-158q-41 0 -53 38l-85 251h-595l-85 -251q-12 -38 -53 -38h-158q-26 0 -36 13.5t-2 38.5zM438 510h445l-223 655zM543.5 1582q-8.5 15 4.5 38l116 194q16 29 52 29h163q28 0 35.5 -16 t-9.5 -38l-154 -197q-19 -25 -55 -25h-118q-26 0 -34.5 15z" />
<glyph unicode="&#xc2;" horiz-adv-x="1320" d="M29 52l477 1344q12 38 53 38h203q41 0 53 -38l477 -1344q8 -25 -2 -38.5t-36 -13.5h-158q-41 0 -53 38l-85 251h-595l-85 -251q-12 -38 -53 -38h-158q-26 0 -36 13.5t-2 38.5zM351 1570q-7 14 7 34l163 216q17 23 47 23h126h48q31 0 48 -23l162 -216q14 -20 7.5 -34 t-30.5 -14h-135q-31 0 -48 25l-91 127l-91 -127q-17 -25 -47 -25h-135q-24 0 -31 14zM438 510h445l-223 655z" />
<glyph unicode="&#xc3;" horiz-adv-x="1320" d="M29 52l477 1344q12 38 53 38h203q41 0 53 -38l477 -1344q8 -25 -2 -38.5t-36 -13.5h-158q-41 0 -53 38l-85 251h-595l-85 -251q-12 -38 -53 -38h-158q-26 0 -36 13.5t-2 38.5zM335 1611q5 95 37.5 154t81.5 76.5t106.5 5.5t117.5 -52q32 -23 51.5 -33.5t36.5 -12.5 t25.5 11t11.5 43q4 40 40 40h105q40 0 37 -41q-5 -95 -37.5 -154t-81 -76.5t-106 -5.5t-117.5 52q-32 23 -51.5 33.5t-36.5 12.5t-26 -11t-12 -43q-4 -40 -40 -40h-105q-40 0 -37 41zM438 510h445l-223 655z" />
<glyph unicode="&#xc4;" horiz-adv-x="1320" d="M29 52l477 1344q12 38 53 38h203q41 0 53 -38l477 -1344q8 -25 -2 -38.5t-36 -13.5h-158q-41 0 -53 38l-85 251h-595l-85 -251q-12 -38 -53 -38h-158q-26 0 -36 13.5t-2 38.5zM358 1611v137q0 39 39 39h138q38 0 38 -39v-137q0 -39 -38 -39h-138q-39 0 -39 39zM438 510 h445l-223 655zM748 1611v137q0 39 38 39h138q39 0 39 -39v-137q0 -39 -39 -39h-138q-38 0 -38 39z" />
<glyph unicode="&#xc5;" horiz-adv-x="1320" d="M29 52l477 1344q12 38 53 38h203q41 0 53 -38l477 -1344q8 -25 -2 -38.5t-36 -13.5h-158q-41 0 -53 38l-85 251h-595l-85 -251q-12 -38 -53 -38h-158q-26 0 -36 13.5t-2 38.5zM416 1751q0 99 68.5 164.5t175.5 65.5q109 0 177 -65.5t68 -164.5t-68 -164.5t-177 -65.5 q-107 0 -175.5 65.5t-68.5 164.5zM438 510h445l-223 655zM572 1751q0 -37 23.5 -61t64.5 -24q43 0 67 24t24 61t-24 61t-67 24q-41 0 -64.5 -24t-23.5 -61z" />
<glyph unicode="&#xc6;" horiz-adv-x="1802" d="M28.5 15q-8.5 15 5.5 40l806 1348q18 31 55 31h109h148h522q46 0 46 -46v-134q0 -46 -46 -46h-522v-373h481q46 0 46 -47v-129q0 -46 -46 -46h-481v-388h532q47 0 47 -46v-133q0 -46 -47 -46h-670h-46q-46 0 -46 46v243h-484l-153 -258q-17 -31 -56 -31h-164 q-28 0 -36.5 15zM570 510h352v590z" />
<glyph unicode="&#xc7;" horiz-adv-x="1548" d="M72 717q0 154 56 291t154 236.5t238 157.5t300 58q233 0 418.5 -129t254.5 -337q7 -24 -4 -38t-35 -14h-157q-37 0 -53 36q-53 116 -168 184.5t-256 68.5q-151 0 -268.5 -67t-181 -183.5t-63.5 -263.5t63.5 -263.5t181 -183.5t268.5 -67q141 0 256 68.5t168 184.5 q16 36 53 36h157q24 0 35.5 -13.5t4.5 -35.5q-61 -187 -217.5 -312.5t-360.5 -151.5v-72q69 -14 114.5 -55.5t45.5 -106.5q0 -203 -399 -189q-41 3 -41 41v81q0 39 43 39q205 -10 205 54q0 46 -112 59q-38 5 -38 41v107q-193 20 -344 122t-234.5 263.5t-83.5 353.5z" />
<glyph unicode="&#xc8;" horiz-adv-x="1054" d="M143 46v1342q0 46 46 46h190h548q46 0 46 -46v-134q0 -46 -46 -46h-548v-373h497q46 0 46 -47v-129q0 -46 -46 -46h-497v-388h558q46 0 46 -46v-133q0 -46 -46 -46h-712h-36q-46 0 -46 46zM291 1829q7 14 32 14h175q32 0 46 -26l121 -203q11 -20 3.5 -33.5t-30.5 -13.5 h-129q-32 0 -48 22l-162 206q-15 20 -8 34z" />
<glyph unicode="&#xc9;" horiz-adv-x="1054" d="M143 46v1342q0 46 46 46h190h548q46 0 46 -46v-134q0 -46 -46 -46h-548v-373h497q46 0 46 -47v-129q0 -46 -46 -46h-497v-388h558q46 0 46 -46v-133q0 -46 -46 -46h-712h-36q-46 0 -46 46zM441.5 1582q-8.5 15 4.5 38l116 194q16 29 52 29h163q28 0 36 -16t-9 -38 l-155 -197q-19 -25 -54 -25h-119q-26 0 -34.5 15z" />
<glyph unicode="&#xca;" horiz-adv-x="1054" d="M143 46v1342q0 46 46 46h190h548q46 0 46 -46v-134q0 -46 -46 -46h-548v-373h497q46 0 46 -47v-129q0 -46 -46 -46h-497v-388h558q46 0 46 -46v-133q0 -46 -46 -46h-712h-36q-46 0 -46 46zM250 1570q-7 14 7 34l163 216q17 23 47 23h126h48q30 0 47 -23l163 -216 q14 -20 7 -34t-31 -14h-135q-30 0 -47 25l-91 127l-91 -127q-17 -25 -47 -25h-135q-24 0 -31 14z" />
<glyph unicode="&#xcb;" horiz-adv-x="1054" d="M143 46v1342q0 46 46 46h190h548q46 0 46 -46v-134q0 -46 -46 -46h-548v-373h497q46 0 46 -47v-129q0 -46 -46 -46h-497v-388h558q46 0 46 -46v-133q0 -46 -46 -46h-712h-36q-46 0 -46 46zM257 1611v137q0 39 39 39h137q39 0 39 -39v-137q0 -39 -39 -39h-137 q-39 0 -39 39zM646 1611v137q0 39 39 39h137q39 0 39 -39v-137q0 -39 -39 -39h-137q-39 0 -39 39z" />
<glyph unicode="&#xcc;" d="M-7 1829q-7 -14 8 -34l162 -206q16 -22 48 -22h129q23 0 30.5 13.5t-3.5 33.5l-121 203q-14 26 -46 26h-175q-25 0 -32 -14zM143 46v1342q0 46 46 46h144q46 0 46 -46v-1342q0 -46 -46 -46h-144q-46 0 -46 46z" />
<glyph unicode="&#xcd;" d="M143 46v1342q0 46 46 46h144q46 0 46 -46v-1342q0 -46 -46 -46h-144q-46 0 -46 46zM143.5 1582q8.5 -15 34.5 -15h119q35 0 54 25l155 197q17 22 9 38t-36 16h-163q-36 0 -52 -29l-116 -194q-13 -23 -4.5 -38z" />
<glyph unicode="&#xce;" d="M-48 1570q-7 14 7 34l163 216q17 23 47 23h126h48q30 0 47 -23l163 -216q14 -20 7 -34t-31 -14h-135q-30 0 -47 25l-91 127l-91 -127q-17 -25 -47 -25h-135q-24 0 -31 14zM143 46v1342q0 46 46 46h144q46 0 46 -46v-1342q0 -46 -46 -46h-144q-46 0 -46 46z" />
<glyph unicode="&#xcf;" d="M-41 1611v137q0 39 39 39h137q39 0 39 -39v-137q0 -39 -39 -39h-137q-39 0 -39 39zM143 46v1342q0 46 46 46h144q46 0 46 -46v-1342q0 -46 -46 -46h-144q-46 0 -46 46zM348 1611v137q0 39 39 39h137q39 0 39 -39v-137q0 -39 -39 -39h-137q-39 0 -39 39z" />
<glyph unicode="&#xd0;" horiz-adv-x="1566" d="M51 646v121q0 46 46 46h108v575q0 46 46 46h189h369q194 0 351.5 -95.5t246 -259.5t88.5 -362t-88.5 -362t-246 -259.5t-351.5 -95.5h-522h-36q-46 0 -46 46v554h-108q-46 0 -46 46zM440 225h369q203 0 331 139t128 353t-128 352.5t-331 138.5h-369v-395h323q46 0 46 -46 v-121q0 -46 -46 -46h-323v-375z" />
<glyph unicode="&#xd1;" horiz-adv-x="1310" d="M143 46v1342q0 46 46 46h102q38 0 56 -30l585 -943v927q0 46 46 46h143q46 0 46 -46v-1342q0 -46 -46 -46h-101q-38 0 -56 30l-585 943v-927q0 -46 -46 -46h-144q-46 0 -46 46zM330 1611q5 95 37.5 154t81.5 76.5t106.5 5.5t117.5 -52q32 -23 51.5 -33.5t36.5 -12.5 t25.5 11t11.5 43q4 40 40 40h105q40 0 37 -41q-5 -95 -37.5 -154t-81 -76.5t-106 -5.5t-117.5 52q-32 23 -51.5 33.5t-36.5 12.5t-26 -11t-12 -43q-4 -40 -40 -40h-105q-40 0 -37 41z" />
<glyph unicode="&#xd2;" horiz-adv-x="1630" d="M72 717q0 205 98.5 375.5t269.5 269t375 98.5t375 -98.5t270 -269t99 -375.5t-99 -376t-270 -269.5t-375 -98.5q-153 0 -290.5 58t-237 157.5t-157.5 237.5t-58 291zM307 717q0 -220 146 -367t362 -147t362 147t146 367t-146 367t-362 147t-362 -147t-146 -367zM547 1839 q-7 -14 8 -34l162 -206q16 -22 48 -22h129q23 0 30.5 13.5t-3.5 33.5l-121 203q-14 26 -46 26h-175q-25 0 -32 -14z" />
<glyph unicode="&#xd3;" horiz-adv-x="1630" d="M72 717q0 205 98.5 375.5t269.5 269t375 98.5t375 -98.5t270 -269t99 -375.5t-99 -376t-270 -269.5t-375 -98.5q-153 0 -290.5 58t-237 157.5t-157.5 237.5t-58 291zM307 717q0 -220 146 -367t362 -147t362 147t146 367t-146 367t-362 147t-362 -147t-146 -367z M697.5 1592q8.5 -15 34.5 -15h119q34 0 54 26l155 196q17 22 9 38t-36 16h-163q-36 0 -52 -29l-116 -194q-13 -23 -4.5 -38z" />
<glyph unicode="&#xd4;" horiz-adv-x="1630" d="M72 717q0 205 98.5 375.5t269.5 269t375 98.5t375 -98.5t270 -269t99 -375.5t-99 -376t-270 -269.5t-375 -98.5q-153 0 -290.5 58t-237 157.5t-157.5 237.5t-58 291zM307 717q0 -220 146 -367t362 -147t362 147t146 367t-146 367t-362 147t-362 -147t-146 -367z M506 1580.5q-7 13.5 7 33.5l163 216q17 23 47 23h126h48q30 0 47 -23l163 -216q14 -20 7 -33.5t-31 -13.5h-135q-31 0 -47 24l-91 127l-91 -127q-16 -24 -47 -24h-135q-24 0 -31 13.5z" />
<glyph unicode="&#xd5;" horiz-adv-x="1630" d="M72 717q0 205 98.5 375.5t269.5 269t375 98.5t375 -98.5t270 -269t99 -375.5t-99 -376t-270 -269.5t-375 -98.5q-153 0 -290.5 58t-237 157.5t-157.5 237.5t-58 291zM307 717q0 -220 146 -367t362 -147t362 147t146 367t-146 367t-362 147t-362 -147t-146 -367zM489 1621 q5 95 37.5 154t81.5 76.5t107 5.5t118 -52q32 -23 51.5 -33.5t36 -12.5t25 11.5t11.5 43.5q4 39 40 39h106q40 0 37 -41q-5 -95 -37.5 -154t-81 -76.5t-106 -5.5t-117.5 52q-32 23 -51.5 33.5t-36.5 12.5t-26 -11t-12 -43q-4 -40 -40 -40h-106q-40 0 -37 41z" />
<glyph unicode="&#xd6;" horiz-adv-x="1630" d="M72 717q0 205 98.5 375.5t269.5 269t375 98.5t375 -98.5t270 -269t99 -375.5t-99 -376t-270 -269.5t-375 -98.5q-153 0 -290.5 58t-237 157.5t-157.5 237.5t-58 291zM307 717q0 -220 146 -367t362 -147t362 147t146 367t-146 367t-362 147t-362 -147t-146 -367zM513 1621 v137q0 39 39 39h137q39 0 39 -39v-137q0 -39 -39 -39h-137q-39 0 -39 39zM902 1621v137q0 39 39 39h137q39 0 39 -39v-137q0 -39 -39 -39h-137q-39 0 -39 39z" />
<glyph unicode="&#xd7;" horiz-adv-x="1019" d="M135 487l230 230l-230 229q-33 32 1 66l81 79q33 33 66 -1l227 -228l227 228q33 34 66 1l81 -79q34 -34 1 -66l-230 -229l230 -230q32 -32 -1 -65l-81 -79q-33 -33 -66 1l-227 227l-227 -227q-33 -34 -66 -1l-81 79q-33 33 -1 65z" />
<glyph unicode="&#xd8;" horiz-adv-x="1646" d="M87 717q0 205 98.5 375.5t269.5 269t375 98.5q234 0 421 -127l63 75q22 26 57 26h76q29 0 37.5 -18t-10.5 -40l-113 -135q101 -103 157 -237.5t56 -286.5q0 -205 -99 -376t-270 -269.5t-375 -98.5q-232 0 -420 128l-63 -75q-22 -26 -57 -26h-76q-29 0 -37.5 17t10.5 40 l113 135q-101 102 -157 237.5t-56 287.5zM323 717q0 -202 126 -346l654 784q-123 76 -273 76q-142 0 -258 -66.5t-182.5 -184.5t-66.5 -263zM558 278q122 -75 272 -75q216 0 362 147t146 367q0 202 -126 346z" />
<glyph unicode="&#xd9;" horiz-adv-x="1269" d="M123 434v954q0 46 46 46h143q46 0 46 -46v-939q0 -119 71 -182.5t206 -63.5q134 0 205 63.5t71 182.5v939q0 46 46 46h144q46 0 46 -46v-954q0 -145 -69.5 -251.5t-184 -158t-258.5 -51.5t-258.5 51.5t-184 158t-69.5 251.5zM366.5 1829q-6.5 -14 8.5 -34l162 -206 q16 -22 48 -22h129q23 0 30.5 13.5t-4.5 33.5l-120 203q-14 26 -47 26h-175q-25 0 -31.5 -14z" />
<glyph unicode="&#xda;" horiz-adv-x="1269" d="M123 434v954q0 46 46 46h143q46 0 46 -46v-939q0 -119 71 -182.5t206 -63.5q134 0 205 63.5t71 182.5v939q0 46 46 46h144q46 0 46 -46v-954q0 -145 -69.5 -251.5t-184 -158t-258.5 -51.5t-258.5 51.5t-184 158t-69.5 251.5zM517.5 1582q8.5 -15 34.5 -15h119q35 0 54 25 l155 197q17 22 9 38t-36 16h-163q-36 0 -52 -29l-116 -194q-13 -23 -4.5 -38z" />
<glyph unicode="&#xdb;" horiz-adv-x="1269" d="M123 434v954q0 46 46 46h143q46 0 46 -46v-939q0 -119 71 -182.5t206 -63.5q134 0 205 63.5t71 182.5v939q0 46 46 46h144q46 0 46 -46v-954q0 -145 -69.5 -251.5t-184 -158t-258.5 -51.5t-258.5 51.5t-184 158t-69.5 251.5zM325.5 1570q-6.5 14 7.5 34l163 216 q17 23 47 23h126h48q30 0 47 -23l163 -216q14 -20 7 -34t-31 -14h-135q-30 0 -47 25l-91 127l-91 -127q-17 -25 -47 -25h-136q-24 0 -30.5 14z" />
<glyph unicode="&#xdc;" horiz-adv-x="1269" d="M123 434v954q0 46 46 46h143q46 0 46 -46v-939q0 -119 71 -182.5t206 -63.5q134 0 205 63.5t71 182.5v939q0 46 46 46h144q46 0 46 -46v-954q0 -145 -69.5 -251.5t-184 -158t-258.5 -51.5t-258.5 51.5t-184 158t-69.5 251.5zM333 1611v137q0 39 39 39h137q39 0 39 -39 v-137q0 -39 -39 -39h-137q-39 0 -39 39zM722 1611v137q0 39 39 39h137q39 0 39 -39v-137q0 -39 -39 -39h-137q-39 0 -39 39z" />
<glyph unicode="&#xdd;" horiz-adv-x="1214" d="M39 1418q9 16 36 16h166q37 0 54 -32l312 -531l312 531q17 32 54 32h166q27 0 35.5 -16t-5.5 -40l-445 -732v-600q0 -46 -46 -46h-143q-47 0 -47 46v601l-444 731q-14 24 -5 40zM485.5 1582q-8.5 15 4.5 38l116 194q16 29 52 29h163q28 0 36 -16t-9 -38l-155 -197 q-19 -25 -54 -25h-119q-26 0 -34.5 15z" />
<glyph unicode="&#xde;" horiz-adv-x="1198" d="M143 46v1342q0 46 46 46h144q46 0 46 -46v-210h297q191 0 326 -135t135 -326q0 -125 -61.5 -231t-168 -168t-231.5 -62h-297v-210q0 -46 -46 -46h-144q-46 0 -46 46zM379 477h297q93 0 159 70t66 170t-66 169.5t-159 69.5h-297v-479z" />
<glyph unicode="&#xdf;" horiz-adv-x="1040" d="M128 46v1019q0 184 109.5 289.5t294.5 105.5q170 0 268.5 -86t98.5 -221q0 -52 -16 -99.5t-39.5 -82t-46.5 -64.5t-39 -58.5t-16 -51.5q0 -29 20 -64t49.5 -67t64 -74.5t64 -84t49.5 -98t20 -115.5q0 -69 -23 -125.5t-70.5 -99.5t-127 -64.5t-184.5 -17.5q-46 2 -46 48 v104q0 44 49 44q180 2 180 142q0 43 -27 92.5t-65 94.5t-76 89.5t-65 93.5t-27 91q0 38 23.5 82.5t52 79t52 83t23.5 94.5q0 63 -42.5 96.5t-108.5 33.5q-75 0 -126.5 -44t-51.5 -146v-1019q0 -46 -46 -46h-129q-46 0 -46 46z" />
<glyph unicode="&#xe0;" horiz-adv-x="1034" d="M72 298q0 104 50.5 179.5t128.5 110.5t173 35q186 0 291 -105v127q0 102 -52 150.5t-139 48.5q-70 0 -120.5 -30.5t-63.5 -85.5q-7 -22 -17.5 -32t-30.5 -10h-127q-49 0 -46 48q18 146 131 231.5t274 85.5q177 0 292.5 -105t115.5 -291v-609q0 -46 -46 -46h-125 q-46 0 -46 46v51q-98 -124 -291 -124q-95 0 -173 35t-128.5 110.5t-50.5 179.5zM258 1430q7 14 32 14h175q32 0 46 -27l121 -203q11 -20 3.5 -33.5t-30.5 -13.5h-129q-31 0 -48 23l-162 206q-15 20 -8 34zM293 298q0 -69 51 -111t151 -42q98 0 159 43t61 110q0 70 -60 111.5 t-160 41.5t-151 -42t-51 -111z" />
<glyph unicode="&#xe1;" horiz-adv-x="1034" d="M72 298q0 104 50.5 179.5t128.5 110.5t173 35q186 0 291 -105v127q0 102 -52 150.5t-139 48.5q-70 0 -120.5 -30.5t-63.5 -85.5q-7 -22 -17.5 -32t-30.5 -10h-127q-49 0 -46 48q18 146 131 231.5t274 85.5q177 0 292.5 -105t115.5 -291v-609q0 -46 -46 -46h-125 q-46 0 -46 46v51q-98 -124 -291 -124q-95 0 -173 35t-128.5 110.5t-50.5 179.5zM293 298q0 -69 51 -111t151 -42q98 0 159 43t61 110q0 70 -60 111.5t-160 41.5t-151 -42t-51 -111zM409.5 1182.5q-8.5 15.5 4.5 38.5l115 193q16 30 53 30h162q28 0 36 -16t-9 -38l-155 -197 q-20 -26 -54 -26h-119q-25 0 -33.5 15.5z" />
<glyph unicode="&#xe2;" horiz-adv-x="1034" d="M72 298q0 104 50.5 179.5t128.5 110.5t173 35q186 0 291 -105v127q0 102 -52 150.5t-139 48.5q-70 0 -120.5 -30.5t-63.5 -85.5q-7 -22 -17.5 -32t-30.5 -10h-127q-49 0 -46 48q18 146 131 231.5t274 85.5q177 0 292.5 -105t115.5 -291v-609q0 -46 -46 -46h-125 q-46 0 -46 46v51q-98 -124 -291 -124q-95 0 -173 35t-128.5 110.5t-50.5 179.5zM217 1170.5q-7 13.5 7 33.5l163 216q18 24 47 24h126h48q29 0 47 -24l163 -216q14 -20 7.5 -33.5t-30.5 -13.5h-136q-30 0 -47 25l-91 126l-91 -126q-17 -25 -47 -25h-135q-24 0 -31 13.5z M293 298q0 -69 51 -111t151 -42q98 0 159 43t61 110q0 70 -60 111.5t-160 41.5t-151 -42t-51 -111z" />
<glyph unicode="&#xe3;" horiz-adv-x="1034" d="M72 298q0 104 50.5 179.5t128.5 110.5t173 35q186 0 291 -105v127q0 102 -52 150.5t-139 48.5q-70 0 -120.5 -30.5t-63.5 -85.5q-7 -22 -17.5 -32t-30.5 -10h-127q-49 0 -46 48q18 146 131 231.5t274 85.5q177 0 292.5 -105t115.5 -291v-609q0 -46 -46 -46h-125 q-46 0 -46 46v51q-98 -124 -291 -124q-95 0 -173 35t-128.5 110.5t-50.5 179.5zM201 1211q5 95 37.5 154t81.5 77t106.5 6t117.5 -52q32 -23 51.5 -33.5t36.5 -12.5t25.5 11t11.5 43q4 40 40 40h105q40 0 37 -41q-5 -95 -37.5 -154t-81 -76.5t-106 -5.5t-117.5 52 q-31 22 -51 33t-37 13t-26 -11.5t-12 -43.5q-4 -40 -40 -40h-105q-40 0 -37 41zM293 298q0 -69 51 -111t151 -42q98 0 159 43t61 110q0 70 -60 111.5t-160 41.5t-151 -42t-51 -111z" />
<glyph unicode="&#xe4;" horiz-adv-x="1034" d="M72 298q0 104 50.5 179.5t128.5 110.5t173 35q186 0 291 -105v127q0 102 -52 150.5t-139 48.5q-70 0 -120.5 -30.5t-63.5 -85.5q-7 -22 -17.5 -32t-30.5 -10h-127q-49 0 -46 48q18 146 131 231.5t274 85.5q177 0 292.5 -105t115.5 -291v-609q0 -46 -46 -46h-125 q-46 0 -46 46v51q-98 -124 -291 -124q-95 0 -173 35t-128.5 110.5t-50.5 179.5zM224 1211v138q0 39 39 39h137q39 0 39 -39v-138q0 -39 -39 -39h-137q-39 0 -39 39zM293 298q0 -69 51 -111t151 -42q98 0 159 43t61 110q0 70 -60 111.5t-160 41.5t-151 -42t-51 -111z M613 1211v138q0 39 39 39h138q38 0 38 -39v-138q0 -39 -38 -39h-138q-39 0 -39 39z" />
<glyph unicode="&#xe5;" horiz-adv-x="1034" d="M72 298q0 104 50.5 179.5t128.5 110.5t173 35q186 0 291 -105v127q0 102 -52 150.5t-139 48.5q-70 0 -120.5 -30.5t-63.5 -85.5q-7 -22 -17.5 -32t-30.5 -10h-127q-49 0 -46 48q18 146 131 231.5t274 85.5q177 0 292.5 -105t115.5 -291v-609q0 -46 -46 -46h-125 q-46 0 -46 46v51q-98 -124 -291 -124q-95 0 -173 35t-128.5 110.5t-50.5 179.5zM282 1352q0 99 68.5 164.5t175.5 65.5q109 0 177 -65t68 -165t-68 -165.5t-177 -65.5q-107 0 -175.5 66t-68.5 165zM293 298q0 -69 51 -111t151 -42q98 0 159 43t61 110q0 70 -60 111.5 t-160 41.5t-151 -42t-51 -111zM438 1352q0 -37 23.5 -61t64.5 -24q43 0 66.5 24t23.5 61t-23.5 61t-66.5 24q-41 0 -64.5 -24t-23.5 -61z" />
<glyph unicode="&#xe6;" horiz-adv-x="1714" d="M72 298q0 104 50.5 179.5t128.5 110.5t173 35q179 0 291 -96v118l70 4l-70 -4q0 102 -52 150.5t-139 48.5q-70 0 -120.5 -30.5t-63.5 -85.5q-7 -22 -17.5 -32t-30.5 -10h-127q-49 0 -46 48q18 145 129 231t266 86q118 0 208.5 -49.5t138.5 -140.5q56 90 144 140t204 50 q139 0 242 -74.5t153 -195.5t50 -271q0 -18 -2 -50q-4 -43 -49 -43h-173h-487q19 -124 88 -189t175 -65q126 0 175 92q19 35 54 35h133q25 0 36 -14.5t2 -38.5q-42 -122 -147 -192t-240 -70q-242 0 -358 183q-47 -88 -144 -136.5t-238 -48.5q-182 0 -294.5 86.5 t-112.5 238.5zM293 298q0 -68 53.5 -110.5t151.5 -42.5q101 0 159 42.5t58 110.5q0 70 -60 111.5t-160 41.5t-151 -42t-51 -111zM942 599h494q-14 124 -78.5 187t-157.5 63q-111 0 -176 -66t-82 -184z" />
<glyph unicode="&#xe7;" horiz-adv-x="1163" d="M72 512q0 150 70 273.5t194 194.5t276 71q170 0 304 -92t186 -241q9 -23 -2 -37.5t-36 -14.5h-142q-37 0 -56 32q-37 63 -104 99.5t-150 36.5q-135 0 -227 -92t-92 -230t92 -230t227 -92q83 0 150.5 36.5t103.5 98.5q19 33 56 33h142q25 0 36 -14.5t2 -37.5 q-44 -127 -149.5 -214t-244.5 -111v-74q69 -14 114 -55.5t45 -106.5q0 -203 -399 -189q-41 3 -41 41v81q0 39 43 39q205 -10 205 54q0 46 -112 59q-38 5 -38 41v109q-199 29 -326 177.5t-127 354.5z" />
<glyph unicode="&#xe8;" horiz-adv-x="1175" d="M72 512q0 231 149.5 385t386.5 154q149 0 266 -74t179 -196.5t62 -270.5q0 -18 -2 -50q-4 -43 -49 -43h-173h-590q25 -123 109.5 -188.5t204.5 -65.5q71 0 130 27t93 71q26 28 56 28l131 1q26 0 37.5 -14t1.5 -35q-56 -126 -176 -197t-276 -71q-160 0 -284 70.5t-190 193 t-66 275.5zM300 599h593q-21 124 -100.5 187t-185.5 63q-122 0 -203 -67t-104 -183zM341 1425q7 14 32 14h175q32 0 46 -27l121 -203q11 -19 3.5 -33t-30.5 -14h-129q-31 0 -48 23l-162 206q-15 20 -8 34z" />
<glyph unicode="&#xe9;" horiz-adv-x="1175" d="M72 512q0 231 149.5 385t386.5 154q149 0 266 -74t179 -196.5t62 -270.5q0 -18 -2 -50q-4 -43 -49 -43h-173h-590q25 -123 109.5 -188.5t204.5 -65.5q71 0 130 27t93 71q26 28 56 28l131 1q26 0 37.5 -14t1.5 -35q-56 -126 -176 -197t-276 -71q-160 0 -284 70.5t-190 193 t-66 275.5zM300 599h593q-21 124 -100.5 187t-185.5 63q-122 0 -203 -67t-104 -183zM492.5 1177q-8.5 15 4.5 38l115 194q16 30 53 30h162q28 0 36 -16.5t-9 -38.5l-155 -196q-20 -26 -54 -26h-119q-25 0 -33.5 15z" />
<glyph unicode="&#xea;" horiz-adv-x="1175" d="M72 512q0 231 149.5 385t386.5 154q149 0 266 -74t179 -196.5t62 -270.5q0 -18 -2 -50q-4 -43 -49 -43h-173h-590q25 -123 109.5 -188.5t204.5 -65.5q71 0 130 27t93 71q26 28 56 28l131 1q26 0 37.5 -14t1.5 -35q-56 -126 -176 -197t-276 -71q-160 0 -284 70.5t-190 193 t-66 275.5zM300 599h593q-21 124 -100.5 187t-185.5 63q-122 0 -203 -67t-104 -183zM300 1166q-7 14 7 33l163 216q18 24 47 24h126h48q29 0 47 -24l163 -216q14 -19 7.5 -33t-30.5 -14h-136q-30 0 -47 25l-91 126l-91 -126q-17 -25 -47 -25h-135q-24 0 -31 14z" />
<glyph unicode="&#xeb;" horiz-adv-x="1175" d="M72 512q0 231 149.5 385t386.5 154q149 0 266 -74t179 -196.5t62 -270.5q0 -18 -2 -50q-4 -43 -49 -43h-173h-590q25 -123 109.5 -188.5t204.5 -65.5q71 0 130 27t93 71q26 28 56 28l131 1q26 0 37.5 -14t1.5 -35q-56 -126 -176 -197t-276 -71q-160 0 -284 70.5t-190 193 t-66 275.5zM300 599h593q-21 124 -100.5 187t-185.5 63q-122 0 -203 -67t-104 -183zM307 1206v137q0 39 39 39h137q39 0 39 -39v-137q0 -39 -39 -39h-137q-39 0 -39 39zM696 1206v137q0 39 39 39h137q39 0 39 -39v-137q0 -39 -39 -39h-137q-39 0 -39 39z" />
<glyph unicode="&#xec;" horiz-adv-x="477" d="M18 1419q10 15 36 15h156q40 0 52 -38l64 -197q7 -24 -3.5 -38t-35.5 -14h-120q-37 0 -53 34l-95 198q-11 25 -1 40zM128 46v932q0 46 46 46h129q46 0 46 -46v-932q0 -46 -46 -46h-129q-46 0 -46 46z" />
<glyph unicode="&#xed;" horiz-adv-x="477" d="M128 46v932q0 46 46 46h129q46 0 46 -46v-932q0 -46 -46 -46h-129q-46 0 -46 46zM147 1199q-7 -24 3.5 -38t35.5 -14h120q37 0 53 34l95 198q11 25 1 40t-36 15h-156q-40 0 -52 -38z" />
<glyph unicode="&#xee;" horiz-adv-x="477" d="M-34 1163q-9 16 6 39l130 202q19 30 58 30h111h46q38 0 58 -30l130 -202q15 -23 6 -39t-37 -16h-122q-38 0 -56 31l-58 95l-58 -95q-18 -31 -55 -31h-122q-28 0 -37 16zM128 46v932q0 46 46 46h129q46 0 46 -46v-932q0 -46 -46 -46h-129q-46 0 -46 46z" />
<glyph unicode="&#xef;" horiz-adv-x="477" d="M-33 1208v123q0 46 46 46h123q46 0 46 -46v-123q0 -46 -46 -46h-123q-46 0 -46 46zM128 46v932q0 46 46 46h129q46 0 46 -46v-932q0 -46 -46 -46h-129q-46 0 -46 46zM295 1208v123q0 46 46 46h123q46 0 46 -46v-123q0 -46 -46 -46h-123q-46 0 -46 46z" />
<glyph unicode="&#xf0;" horiz-adv-x="1179" d="M72 471q0 144 76 258.5t202.5 169.5t270.5 33h1l-136 187l-197 -104q-24 -13 -39.5 -4t-15.5 36v64q0 37 33 55l133 70l-104 142q-17 24 -8.5 40t36.5 16h151q34 0 55 -28l54 -72l184 97q24 13 39 4t15 -36v-65q0 -38 -32 -55l-118 -62l342 -459q94 -129 94 -287 q0 -112 -42.5 -207t-114 -157.5t-165 -97t-196.5 -34.5t-196.5 34.5t-165 97t-114 157.5t-42.5 207zM293 471q0 -131 85 -209t212 -78t212 78t85 209q0 100 -49 166q-85 112 -246 112q-131 0 -215 -76t-84 -202z" />
<glyph unicode="&#xf1;" horiz-adv-x="1081" d="M128 46v932q0 46 46 46h129q46 0 46 -46v-70q94 143 291 143q147 0 242.5 -106t95.5 -286v-613q0 -46 -46 -46h-129q-46 0 -46 46v600q0 96 -52 147t-136 51q-96 0 -158 -62.5t-62 -193.5v-542q0 -46 -46 -46h-129q-46 0 -46 46zM223 1211q5 95 37.5 154t81.5 77t106.5 6 t117.5 -52q32 -23 51.5 -33.5t36.5 -12.5t25.5 11t11.5 43q4 40 40 40h106q39 0 36 -41q-5 -95 -37.5 -154t-81 -76.5t-106 -5.5t-117.5 52q-32 23 -51.5 33.5t-36.5 12.5t-25.5 -11.5t-11.5 -43.5q-4 -40 -40 -40h-106q-40 0 -37 41z" />
<glyph unicode="&#xf2;" horiz-adv-x="1224" d="M72 512q0 149 72 273t196 195t272 71t272 -70.5t196.5 -195t72.5 -273.5t-72.5 -273.5t-196.5 -195t-272 -70.5t-272 71t-196 195t-72 273zM293 512q0 -139 91.5 -231.5t227.5 -92.5t228 92.5t92 231.5t-92 231.5t-228 92.5t-227.5 -92.5t-91.5 -231.5zM344 1430 q-7 -14 8 -34l162 -206q17 -23 48 -23h129q23 0 30.5 13.5t-3.5 33.5l-121 203q-14 27 -46 27h-175q-25 0 -32 -14z" />
<glyph unicode="&#xf3;" horiz-adv-x="1224" d="M72 512q0 149 72 273t196 195t272 71t272 -70.5t196.5 -195t72.5 -273.5t-72.5 -273.5t-196.5 -195t-272 -70.5t-272 71t-196 195t-72 273zM293 512q0 -139 91.5 -231.5t227.5 -92.5t228 92.5t92 231.5t-92 231.5t-228 92.5t-227.5 -92.5t-91.5 -231.5zM495.5 1182.5 q8.5 -15.5 33.5 -15.5h119q34 0 54 26l155 197q17 22 9 38t-36 16h-162q-37 0 -53 -30l-115 -193q-13 -23 -4.5 -38.5z" />
<glyph unicode="&#xf4;" horiz-adv-x="1224" d="M72 512q0 149 72 273t196 195t272 71t272 -70.5t196.5 -195t72.5 -273.5t-72.5 -273.5t-196.5 -195t-272 -70.5t-272 71t-196 195t-72 273zM293 512q0 -139 91.5 -231.5t227.5 -92.5t228 92.5t92 231.5t-92 231.5t-228 92.5t-227.5 -92.5t-91.5 -231.5zM303 1170.5 q-7 13.5 7 33.5l163 216q18 24 47 24h126h48q29 0 47 -24l163 -216q14 -20 7.5 -33.5t-30.5 -13.5h-136q-30 0 -47 25l-91 126l-91 -126q-17 -25 -47 -25h-135q-24 0 -31 13.5z" />
<glyph unicode="&#xf5;" horiz-adv-x="1224" d="M72 512q0 149 72 273t196 195t272 71t272 -70.5t196.5 -195t72.5 -273.5t-72.5 -273.5t-196.5 -195t-272 -70.5t-272 71t-196 195t-72 273zM287 1211q5 95 37.5 154t81.5 77t106.5 6t117.5 -52q32 -23 51.5 -33.5t36.5 -12.5t25.5 11t11.5 43q4 40 40 40h105q40 0 37 -41 q-5 -95 -37.5 -154t-81 -76.5t-106 -5.5t-117.5 52q-31 22 -51 33t-37 13t-26 -11.5t-12 -43.5q-4 -40 -40 -40h-105q-40 0 -37 41zM293 512q0 -139 91.5 -231.5t227.5 -92.5t228 92.5t92 231.5t-92 231.5t-228 92.5t-227.5 -92.5t-91.5 -231.5z" />
<glyph unicode="&#xf6;" horiz-adv-x="1224" d="M72 512q0 149 72 273t196 195t272 71t272 -70.5t196.5 -195t72.5 -273.5t-72.5 -273.5t-196.5 -195t-272 -70.5t-272 71t-196 195t-72 273zM293 512q0 -139 91.5 -231.5t227.5 -92.5t228 92.5t92 231.5t-92 231.5t-228 92.5t-227.5 -92.5t-91.5 -231.5zM310 1211v138 q0 39 39 39h137q39 0 39 -39v-138q0 -39 -39 -39h-137q-39 0 -39 39zM699 1211v138q0 39 39 39h138q38 0 38 -39v-138q0 -39 -38 -39h-138q-39 0 -39 39z" />
<glyph unicode="&#xf7;" horiz-adv-x="1167" d="M102 658v117q0 46 46 46h871q46 0 46 -46v-117q0 -46 -46 -46h-871q-46 0 -46 46zM435 324q0 63 43 105.5t106 42.5t105.5 -42.5t42.5 -105.5t-42.5 -106t-105.5 -43t-106 43t-43 106zM435 1110q0 63 43 105.5t106 42.5t105.5 -42.5t42.5 -105.5t-42.5 -105.5 t-105.5 -42.5t-106 42.5t-43 105.5z" />
<glyph unicode="&#xf8;" horiz-adv-x="1224" d="M72 512q0 149 72 273t196 195t272 71q160 0 293 -84l27 31q22 26 57 26h45q29 0 37.5 -17t-10.5 -40l-63 -75q73 -73 114 -171t41 -209q0 -149 -72.5 -273.5t-196.5 -195t-272 -70.5q-169 0 -306 93l-34 -40q-22 -26 -57 -26h-47q-29 0 -36.5 17t11.5 40l72 86 q-143 153 -143 369zM293 512q0 -115 64 -199l408 486q-69 37 -153 37q-136 0 -227.5 -92.5t-91.5 -231.5zM446 233q77 -45 166 -45q136 0 228 92.5t92 231.5q0 124 -74 212z" />
<glyph unicode="&#xf9;" horiz-adv-x="1081" d="M102 365v613q0 46 46 46h130q46 0 46 -46v-600q0 -96 51.5 -147t135.5 -51q96 0 158 62.5t62 193.5v542q0 46 46 46h129q46 0 46 -46v-932q0 -46 -46 -46h-129q-46 0 -46 46v70q-94 -143 -291 -143q-147 0 -242.5 106t-95.5 286zM268 1419.5q7 14.5 32 14.5h175 q32 0 46 -27l121 -203q11 -20 3.5 -33.5t-30.5 -13.5h-129q-31 0 -48 23l-162 205q-15 20 -8 34.5z" />
<glyph unicode="&#xfa;" horiz-adv-x="1081" d="M102 365v613q0 46 46 46h130q46 0 46 -46v-600q0 -96 51.5 -147t135.5 -51q96 0 158 62.5t62 193.5v542q0 46 46 46h129q46 0 46 -46v-932q0 -46 -46 -46h-129q-46 0 -46 46v70q-94 -143 -291 -143q-147 0 -242.5 106t-95.5 286zM419.5 1172q-8.5 15 4.5 38l116 194 q16 30 52 30h163q28 0 35.5 -16.5t-9.5 -38.5l-154 -196q-20 -26 -55 -26h-118q-26 0 -34.5 15z" />
<glyph unicode="&#xfb;" horiz-adv-x="1081" d="M102 365v613q0 46 46 46h130q46 0 46 -46v-600q0 -96 51.5 -147t135.5 -51q96 0 158 62.5t62 193.5v542q0 46 46 46h129q46 0 46 -46v-932q0 -46 -46 -46h-129q-46 0 -46 46v70q-94 -143 -291 -143q-147 0 -242.5 106t-95.5 286zM227 1160.5q-7 13.5 7 33.5l163 216 q18 24 47 24h126h48q30 0 48 -24l162 -216q14 -20 7.5 -33.5t-30.5 -13.5h-135q-31 0 -47 24l-92 127l-91 -127q-16 -24 -47 -24h-135q-24 0 -31 13.5z" />
<glyph unicode="&#xfc;" horiz-adv-x="1081" d="M102 365v613q0 46 46 46h130q46 0 46 -46v-600q0 -96 51.5 -147t135.5 -51q96 0 158 62.5t62 193.5v542q0 46 46 46h129q46 0 46 -46v-932q0 -46 -46 -46h-129q-46 0 -46 46v70q-94 -143 -291 -143q-147 0 -242.5 106t-95.5 286zM234 1201v137q0 39 39 39h138 q39 0 39 -39v-137q0 -39 -39 -39h-138q-39 0 -39 39zM624 1201v137q0 39 39 39h137q39 0 39 -39v-137q0 -39 -39 -39h-137q-39 0 -39 39z" />
<glyph unicode="&#xfd;" horiz-adv-x="1003" d="M32 971q-9 24 1 38.5t35 14.5h139q39 0 52 -36l261 -670l225 668q12 38 53 38h140q25 0 35.5 -14t2.5 -38l-462 -1345q-11 -37 -53 -37h-140q-25 0 -35.5 14.5t-2.5 38.5l127 369zM384.5 1172q8.5 -15 34.5 -15h119q34 0 54 26l154 196q17 22 9.5 38.5t-35.5 16.5h-163 q-36 0 -52 -30l-116 -194q-13 -23 -4.5 -38z" />
<glyph unicode="&#xfe;" horiz-adv-x="1290" d="M128 -364v1752q0 46 46 46h129q46 0 46 -46v-511q124 174 360 174q103 0 197 -42t162.5 -113.5t109 -171.5t40.5 -212t-40.5 -212t-109 -171.5t-162.5 -113.5t-197 -42q-236 0 -360 174v-511q0 -46 -46 -46h-129q-46 0 -46 46zM349 512q0 -142 92.5 -235t231.5 -93 t231 93t92 235t-92 235t-231 93t-231.5 -93t-92.5 -235z" />
<glyph unicode="&#xff;" horiz-adv-x="1003" d="M32 971q-9 24 1 38.5t35 14.5h139q39 0 52 -36l261 -670l225 668q12 38 53 38h140q25 0 35.5 -14t2.5 -38l-462 -1345q-11 -37 -53 -37h-140q-25 0 -35.5 14.5t-2.5 38.5l127 369zM200 1201v137q0 39 39 39h137q39 0 39 -39v-137q0 -39 -39 -39h-137q-39 0 -39 39z M589 1201v137q0 39 39 39h137q39 0 39 -39v-137q0 -39 -39 -39h-137q-39 0 -39 39z" />
<glyph unicode="&#x152;" horiz-adv-x="1875" d="M72 717q0 206 93.5 376t259.5 268.5t370 98.5q104 0 199 -26h236h517q46 0 46 -46v-134q0 -46 -46 -46h-517v-373h476q46 0 46 -47v-129q0 -46 -46 -46h-476v-388h527q46 0 46 -46v-133q0 -46 -46 -46h-681h-82q-98 -27 -199 -27q-204 0 -370 99t-259.5 269t-93.5 376z M307 717q0 -223 137 -368.5t351 -145.5q117 0 199 30v967q-85 31 -199 31q-214 0 -351 -145.5t-137 -368.5z" />
<glyph unicode="&#x153;" horiz-adv-x="2035" d="M72 512q0 150 69.5 273.5t192 194.5t273.5 71q142 0 254.5 -66.5t177.5 -181.5q61 116 171.5 182t260.5 66q149 0 265.5 -74t177.5 -196.5t61 -270.5q0 -18 -2 -50q-4 -43 -49 -43h-173h-590q25 -123 110 -188.5t205 -65.5q71 0 129.5 27t92.5 71q26 28 56 28l131 1 q26 0 37 -14t1 -35q-56 -126 -173.5 -197t-273.5 -71q-154 0 -265 65t-172 182q-65 -115 -177.5 -181t-254.5 -66q-151 0 -273.5 71t-192 194.5t-69.5 273.5zM293 512q0 -140 90 -232t229 -92q136 0 228 92.5t92 231.5t-92 231.5t-228 92.5q-139 0 -229 -92t-90 -232z M1160 599h593q-21 124 -100.5 187t-185.5 63q-122 0 -203 -67t-104 -183z" />
<glyph unicode="&#x178;" horiz-adv-x="1214" d="M39 1418q9 16 36 16h166q37 0 54 -32l312 -531l312 531q17 32 54 32h166q27 0 35.5 -16t-5.5 -40l-445 -732v-600q0 -46 -46 -46h-143q-47 0 -47 46v601l-444 731q-14 24 -5 40zM301 1611v137q0 39 39 39h137q39 0 39 -39v-137q0 -39 -39 -39h-137q-39 0 -39 39z M690 1611v137q0 39 39 39h137q39 0 39 -39v-137q0 -39 -39 -39h-137q-39 0 -39 39z" />
<glyph unicode="&#x2c6;" horiz-adv-x="747" d="M69.5 1160.5q-6.5 13.5 7.5 33.5l163 216q18 24 47 24h126h48q29 0 47 -24l163 -216q14 -20 7 -33.5t-31 -13.5h-135q-31 0 -47 24l-91 127l-91 -127q-16 -24 -47 -24h-136q-24 0 -30.5 13.5z" />
<glyph unicode="&#x2dc;" horiz-adv-x="737" d="M43 1201q5 95 37.5 154t81.5 76.5t106.5 5.5t117.5 -52q32 -23 51.5 -33.5t36.5 -12.5t25.5 11.5t11.5 43.5q4 40 40 40h105q40 0 37 -41q-5 -95 -37.5 -154t-81 -77t-106 -6t-117.5 52q-32 23 -51.5 33.5t-36.5 12.5t-26 -11t-12 -43q-4 -40 -40 -40h-105q-40 0 -37 41z " />
<glyph unicode="&#x2000;" horiz-adv-x="990" />
<glyph unicode="&#x2001;" horiz-adv-x="1981" />
<glyph unicode="&#x2002;" horiz-adv-x="990" />
<glyph unicode="&#x2003;" horiz-adv-x="1981" />
<glyph unicode="&#x2004;" horiz-adv-x="660" />
<glyph unicode="&#x2005;" horiz-adv-x="495" />
<glyph unicode="&#x2006;" horiz-adv-x="330" />
<glyph unicode="&#x2007;" horiz-adv-x="330" />
<glyph unicode="&#x2008;" horiz-adv-x="247" />
<glyph unicode="&#x2009;" horiz-adv-x="396" />
<glyph unicode="&#x200a;" horiz-adv-x="110" />
<glyph unicode="&#x2010;" horiz-adv-x="1044" d="M143 562v121q0 46 46 46h666q46 0 46 -46v-121q0 -46 -46 -46h-666q-46 0 -46 46z" />
<glyph unicode="&#x2011;" horiz-adv-x="1044" d="M143 562v121q0 46 46 46h666q46 0 46 -46v-121q0 -46 -46 -46h-666q-46 0 -46 46z" />
<glyph unicode="&#x2012;" horiz-adv-x="1044" d="M143 562v121q0 46 46 46h666q46 0 46 -46v-121q0 -46 -46 -46h-666q-46 0 -46 46z" />
<glyph unicode="&#x2013;" horiz-adv-x="1331" d="M143 562v121q0 46 46 46h953q46 0 46 -46v-121q0 -46 -46 -46h-953q-46 0 -46 46z" />
<glyph unicode="&#x2014;" horiz-adv-x="1536" d="M143 562v121q0 46 46 46h1158q46 0 46 -46v-121q0 -46 -46 -46h-1158q-46 0 -46 46z" />
<glyph unicode="&#x2018;" d="M133 956v210q0 114 57 186t162 89q37 5 37 -33v-38q0 -28 -31 -38q-46 -13 -68.5 -51t-22.5 -115h76q46 0 46 -46v-164q0 -46 -46 -46h-164q-46 0 -46 46z" />
<glyph unicode="&#x2019;" d="M133 936v38q0 28 31 38q46 13 68.5 51t22.5 115h-76q-46 0 -46 46v164q0 46 46 46h164q46 0 46 -46v-210q0 -114 -57 -186t-162 -89q-37 -5 -37 33z" />
<glyph unicode="&#x201a;" d="M133 46v164q0 46 46 46h164q46 0 46 -46v-210q0 -114 -57 -185.5t-162 -88.5q-37 -5 -37 32v38q0 28 31 38q46 13 68.5 51t22.5 115h-76q-46 0 -46 46z" />
<glyph unicode="&#x201c;" horiz-adv-x="870" d="M133 956v210q0 114 57 186t162 89q37 5 37 -33v-38q0 -28 -31 -38q-46 -13 -68.5 -51t-22.5 -115h76q46 0 46 -46v-164q0 -46 -46 -46h-164q-46 0 -46 46zM481 956v210q0 114 57 186t162 89q37 5 37 -33v-38q0 -29 -30 -38q-46 -13 -69 -51t-23 -115h76q46 0 46 -46v-164 q0 -46 -46 -46h-164q-46 0 -46 46z" />
<glyph unicode="&#x201d;" horiz-adv-x="870" d="M133 936v38q0 28 31 38q46 13 68.5 51t22.5 115h-76q-46 0 -46 46v164q0 46 46 46h164q46 0 46 -46v-210q0 -114 -57 -186t-162 -89q-37 -5 -37 33zM481 936v38q0 28 31 38q46 13 68.5 51t22.5 115h-76q-46 0 -46 46v164q0 46 46 46h164q46 0 46 -46v-210 q0 -114 -57 -186t-162 -89q-37 -5 -37 33z" />
<glyph unicode="&#x201e;" horiz-adv-x="870" d="M133 46v164q0 46 46 46h164q46 0 46 -46v-210q0 -114 -57 -185.5t-162 -88.5q-37 -5 -37 32v38q0 28 31 38q46 13 68.5 51t22.5 115h-76q-46 0 -46 46zM481 46v164q0 46 46 46h164q46 0 46 -46v-210q0 -114 -57 -185.5t-162 -88.5q-37 -5 -37 32v38q0 28 31 38 q46 13 68.5 51t22.5 115h-76q-46 0 -46 46z" />
<glyph unicode="&#x2022;" horiz-adv-x="696" d="M92 720q0 105 76 179t183 74q105 0 179 -74t74 -179q0 -107 -74 -183t-179 -76q-107 0 -183 76t-76 183z" />
<glyph unicode="&#x2026;" horiz-adv-x="1402" d="M133 46v164q0 46 46 46h164q46 0 46 -46v-164q0 -46 -46 -46h-164q-46 0 -46 46zM573 46v164q0 46 47 46h163q46 0 46 -46v-164q0 -46 -46 -46h-163q-47 0 -47 46zM1014 46v164q0 46 46 46h164q46 0 46 -46v-164q0 -46 -46 -46h-164q-46 0 -46 46z" />
<glyph unicode="&#x202f;" horiz-adv-x="396" />
<glyph unicode="&#x2039;" horiz-adv-x="710" d="M152 601q-19 32 0 64l188 316q18 31 55 31h118q28 0 37 -15.5t-5 -40.5l-193 -323l193 -324q13 -25 4.5 -40t-36.5 -15h-118q-37 0 -55 31z" />
<glyph unicode="&#x203a;" horiz-adv-x="710" d="M161 996.5q9 15.5 37 15.5h117q38 0 56 -31l188 -316q19 -32 0 -64l-188 -316q-18 -31 -56 -31h-117q-28 0 -36.5 15t4.5 40l192 324l-192 323q-14 25 -5 40.5z" />
<glyph unicode="&#x205f;" horiz-adv-x="495" />
<glyph unicode="&#x20ac;" horiz-adv-x="1304" d="M31 573v64q0 41 41 41h92v39q0 37 1 55h-93q-41 0 -41 41v64q0 40 41 40h107q41 253 183 398t365 145q205 0 339.5 -122.5t173.5 -337.5q4 -24 -7 -37t-35 -13h-146q-41 0 -50 42q-25 116 -96 177.5t-179 61.5q-122 0 -201 -80.5t-109 -233.5h412q41 0 41 -40v-64 q0 -41 -41 -41h-429q-1 -18 -1 -55q0 -7 0.5 -20t0.5 -19h429q41 0 41 -41v-64q0 -41 -41 -41h-415q28 -160 107.5 -244.5t205.5 -84.5q111 0 184 65.5t97 188.5q7 43 49 43h145q24 0 35.5 -13t7.5 -37q-38 -222 -173.5 -349.5t-344.5 -127.5q-227 0 -369.5 149.5 t-180.5 409.5h-105q-41 0 -41 41z" />
<glyph unicode="&#x2122;" horiz-adv-x="952" d="M72 1355v56q0 10 6 16.5t16 6.5h198h87q10 0 16 -6.5t6 -16.5v-56q0 -10 -6 -16.5t-16 -6.5h-87v-285q0 -10 -6.5 -16.5t-16.5 -6.5h-64q-10 0 -16.5 6.5t-6.5 16.5v285h-88q-10 0 -16 6.5t-6 16.5zM445 1047v364q0 10 6.5 16.5t16.5 6.5h61h18q18 0 26 -17l91 -183 l90 183q8 17 26 17h56h22q10 0 16.5 -6.5t6.5 -16.5v-364q0 -10 -6.5 -16.5t-16.5 -6.5h-64q-10 0 -16.5 6.5t-6.5 16.5v204l-64 -126q-7 -15 -25 -15h-37q-17 0 -24 15l-69 133v-211q0 -10 -6.5 -16.5t-16.5 -6.5h-61q-10 0 -16.5 6.5t-6.5 16.5z" />
<glyph unicode="&#x25fc;" horiz-adv-x="1024" d="M0 0v1024h1024v-1024h-1024z" />
<glyph unicode="&#xfb03;" horiz-adv-x="1650" d="M20 857v121q0 46 47 46h109v20q0 200 106.5 309.5t311.5 108.5q22 0 34 -13t12 -35v-121q0 -43 -48 -44q-195 -3 -195 -205v-20h243h99v41q0 416 464 416q83 0 186 -19q41 -7 41 -50v-112q0 -23 -13.5 -34.5t-36.5 -8.5q-97 11 -177 11q-124 0 -183 -44.5t-59 -158.5v-41 h437h78q46 0 46 -46v-932q0 -46 -46 -46h-129q-47 0 -47 46v765h-339v-765q0 -46 -47 -46h-129q-46 0 -46 46v765h-155h-187v-765q0 -46 -46 -46h-129q-46 0 -46 46v765h-109q-47 0 -47 46z" />
<glyph unicode="&#xfb04;" horiz-adv-x="1650" d="M20 857v121q0 46 47 46h109v20q0 200 106.5 309.5t311.5 108.5q22 0 34 -13t12 -35v-121q0 -43 -48 -44q-195 -3 -195 -205v-20h243h99v41q0 416 464 416q124 0 278 -29q41 -7 41 -50v-1356q0 -46 -46 -46h-129q-47 0 -47 46v1236q-45 4 -97 4q-121 0 -181.5 -52.5 t-60.5 -168.5v-41h145q46 0 46 -46v-121q0 -46 -46 -46h-145v-765q0 -46 -47 -46h-129q-46 0 -46 46v765h-155h-187v-765q0 -46 -46 -46h-129q-46 0 -46 46v765h-109q-47 0 -47 46z" />
</font>
</defs>
</svg>
